<svg width="617" height="534" viewBox="0 0 617 534" fill="none" xmlns="http://www.w3.org/2000/svg">
<g filter="url(#filter0_d_6493_2952)">
<path fill-rule="evenodd" clip-rule="evenodd" d="M612.732 27.3307C612.629 20.7172 612.556 14.1032 612.512 7.48901C566.951 44.2281 469.067 36.0248 425.82 27.3307C398.131 18.4578 320.819 7.52064 233.088 34.7555C145.356 61.9904 43.9458 23.4077 4.20703 0.711914C4.3425 10.366 4.47431 20.0165 4.50617 29.6715C4.51606 35.9918 4.53986 42.3121 4.57878 48.6323L4.43648 26.3074L4.48005 35.09L4.60994 43.2245C4.73118 53.2641 5.00535 55.7922 10.7936 64.4726C19.3612 71.386 25.0655 74.939 36.0413 76.4838L46.1805 76.4116C52.0666 76.4166 57.9487 76.4063 63.8343 76.3281C68.0263 76.2701 72.2187 76.2314 76.411 76.2117C87.4157 76.1839 98.419 76.12 109.423 76.0033C120.819 75.8816 132.215 75.8058 143.612 75.7499C165.782 75.6448 187.95 75.4817 210.119 75.2666L217.237 75.1944C217.178 123.415 217.346 203.006 217.318 251.227C217.305 274.667 217.29 298.106 217.26 321.547C217.233 342.137 217.211 362.727 217.203 383.317L217.202 386.378C217.199 396.23 217.196 406.081 217.181 415.933C217.162 426.338 217.147 436.743 217.147 447.149C217.149 450.979 217.149 454.81 217.149 458.64L217.119 469.565L217.131 479.509C217.118 493.903 218.493 502.977 228.177 513.995C240.355 524.491 249.241 525.95 265.161 526L273.211 525.858C278.877 525.84 284.543 525.817 290.209 525.79C299.112 525.671 308.013 525.554 316.916 525.508C322.749 525.487 328.582 525.458 334.415 525.421L342.752 525.355L350.868 525.295L358.354 525.191C368.896 525.063 373.382 523.597 382.172 517.513C391.831 508.799 396.48 500.163 398.076 487.182L398.053 478.542C398.07 473.442 398.085 468.341 398.045 463.241C398.014 459.513 397.998 455.785 397.996 452.057C398.008 441.888 397.991 431.72 397.936 421.551C397.878 410.752 397.853 399.953 397.843 389.154C397.825 368.756 397.773 348.359 397.693 327.961C397.601 304.56 397.544 281.16 397.503 257.758C397.419 209.368 397.07 129.609 396.893 81.2194L396.87 75.1944C419.612 75.2508 442.355 75.2965 465.097 75.3253L467.74 75.3283C478.45 75.3407 489.161 75.3531 499.871 75.3785C511.23 75.4081 522.588 75.4345 533.947 75.4447C538.263 75.4474 542.58 75.4512 546.896 75.4562C553.119 75.4772 559.343 75.498 565.566 75.4999L571.275 75.4987C571.918 75.4998 572.549 75.5019 573.168 75.5039C586.346 75.5467 594.45 75.573 605.07 66.2971C612.882 56.4215 612.882 56.4215 612.945 33.4952L612.976 55.9284C612.937 46.3942 612.878 36.8639 612.732 27.3307Z" fill="#D4AF37"/>
<path d="M4.66797 1.4873C24.6944 12.8158 59.6898 27.9121 100.554 36.8975C141.884 45.9854 189.254 48.8341 233.221 35.1855C320.859 7.97965 398.076 18.9124 425.683 27.7588L425.707 27.7666L425.731 27.7715C447.384 32.1244 482.703 36.353 518.316 34.8965C553.537 33.4561 589.14 26.4495 612.068 8.41211C612.113 14.7209 612.184 21.0297 612.281 27.3379C612.357 32.2369 612.408 37.1353 612.446 42.0342C612.373 48.0979 612.167 51.8062 611.476 54.6855C610.52 58.6639 608.642 61.0545 604.743 65.9834C599.494 70.5614 594.888 72.8292 589.978 73.9561C585.037 75.0898 579.772 75.0752 573.17 75.0537C572.551 75.0517 571.919 75.0499 571.276 75.0488H571.275C568.45 75.0494 568.449 75.0492 565.566 75.0498C559.344 75.0479 553.121 75.0269 546.897 75.0059H546.896C542.58 75.0009 538.264 74.9978 533.947 74.9951C522.589 74.9849 511.231 74.9584 499.872 74.9287C489.161 74.9034 478.451 74.8903 467.74 74.8779C466.859 74.8769 465.979 74.876 465.098 74.875L430.984 74.8203C419.613 74.7982 408.242 74.7723 396.871 74.7441L396.419 74.7432L396.42 75.1963L396.442 81.2207C396.62 129.611 396.969 209.369 397.053 257.759V257.76C397.094 281.161 397.151 304.562 397.243 327.963C397.323 348.36 397.375 368.757 397.393 389.154C397.403 399.954 397.428 410.754 397.486 421.554C397.541 431.721 397.558 441.889 397.546 452.057V452.058C397.548 455.786 397.564 459.515 397.595 463.244C397.635 468.341 397.621 473.44 397.604 478.54V478.543C397.611 481.384 397.617 484.224 397.625 487.15C396.041 499.996 391.453 508.525 381.894 517.157C377.523 520.181 374.252 522.036 370.782 523.157C367.307 524.28 363.602 524.678 358.349 524.741H358.348C355.901 524.775 353.383 524.81 350.861 524.845L342.749 524.905H342.748L334.411 524.971C328.579 525.008 322.747 525.037 316.915 525.058H316.914C312.461 525.081 308.009 525.122 303.558 525.172L290.203 525.34C284.539 525.367 278.874 525.389 273.21 525.407L273.203 525.408C270.526 525.455 267.913 525.5 265.155 525.549C257.206 525.524 251.06 525.147 245.393 523.483C239.742 521.825 234.538 518.879 228.496 513.675C223.703 508.217 220.98 503.258 219.45 497.895C217.916 492.513 217.574 486.698 217.58 479.51V479.509C217.575 474.587 217.575 474.586 217.569 469.566C217.579 465.925 217.589 462.282 217.599 458.641V458.64C217.599 454.809 217.599 450.979 217.598 447.148C217.597 436.744 217.612 426.339 217.631 415.934C217.646 406.082 217.649 396.23 217.651 386.379C217.652 385.359 217.652 384.338 217.652 383.317C217.661 362.727 217.683 342.137 217.71 321.547C217.74 298.107 217.754 274.667 217.768 251.227C217.796 203.002 217.628 123.418 217.688 75.1953V74.7402L217.232 74.7441C214.883 74.7679 212.535 74.7919 210.114 74.8164C187.946 75.0315 165.779 75.1946 143.61 75.2998C132.213 75.3557 120.816 75.432 109.418 75.5537C98.4155 75.6704 87.4137 75.734 76.4102 75.7617H76.4092C74.3122 75.7716 72.215 75.7863 70.1182 75.8057L63.8281 75.8779C59.4163 75.9365 55.0061 75.9574 50.5938 75.9619H46.1777C42.8442 75.9856 39.51 76.0088 36.0762 76.0332C30.6423 75.2661 26.5283 74.0064 22.7168 72.0898C18.9079 70.1745 15.3837 67.5953 11.1289 64.1641C8.26633 59.8664 6.79452 57.1259 6.01074 54.2402C5.22111 51.3329 5.12032 48.249 5.05957 43.2188V43.2178L4.97852 38.1328C4.96845 35.3122 4.96047 32.4915 4.95605 29.6709V29.6699C4.92505 20.2728 4.79952 10.8805 4.66797 1.4873Z" stroke="#522F15" stroke-opacity="0.25" stroke-width="0.9"/>
</g>
<defs>
<filter id="filter0_d_6493_2952" x="0.607031" y="0.711914" width="615.985" height="532.488" filterUnits="userSpaceOnUse" color-interpolation-filters="sRGB">
<feFlood flood-opacity="0" result="BackgroundImageFix"/>
<feColorMatrix in="SourceAlpha" type="matrix" values="0 0 0 0 0 0 0 0 0 0 0 0 0 0 0 0 0 0 127 0" result="hardAlpha"/>
<feOffset dy="3.6"/>
<feGaussianBlur stdDeviation="1.8"/>
<feComposite in2="hardAlpha" operator="out"/>
<feColorMatrix type="matrix" values="0 0 0 0 0 0 0 0 0 0 0 0 0 0 0 0 0 0 0.25 0"/>
<feBlend mode="normal" in2="BackgroundImageFix" result="effect1_dropShadow_6493_2952"/>
<feBlend mode="normal" in="SourceGraphic" in2="effect1_dropShadow_6493_2952" result="shape"/>
</filter>
</defs>
</svg>
