<svg width="189" height="243" viewBox="0 0 189 243" fill="none" xmlns="http://www.w3.org/2000/svg">
<g filter="url(#filter0_d_5223_4917)">
<mask id="path-1-inside-1_5223_4917" fill="white">
<path fill-rule="evenodd" clip-rule="evenodd" d="M184.791 87.4344C184.761 85.4698 184.739 83.505 184.726 81.5402C171.195 92.4539 142.124 90.0171 129.28 87.4344C121.056 84.7986 98.0955 81.5496 72.04 89.64C45.9844 97.7304 15.8663 86.269 4.06424 79.527C4.10447 82.3948 4.14362 85.2616 4.15308 88.1298C4.15602 90.0073 4.16308 91.8848 4.17464 93.7623L4.13238 87.1304L4.14532 89.7394L4.1839 92.1558C4.21991 95.1382 4.30133 95.8892 6.02039 98.4678C8.5649 100.522 10.259 101.577 13.5188 102.036L16.53 102.014C18.2781 102.016 20.0251 102.013 21.7731 101.99C23.0181 101.972 24.2632 101.961 25.5083 101.955C28.7766 101.947 32.0445 101.928 35.3126 101.893C38.6972 101.857 42.0817 101.834 45.4665 101.818C52.0507 101.787 58.6345 101.738 65.2185 101.674L67.3326 101.653C67.3149 115.977 67.3649 139.621 67.3565 153.945C67.3525 160.908 67.3482 167.871 67.3393 174.835C67.3313 180.951 67.3247 187.068 67.3223 193.184L67.322 194.094C67.3212 197.02 67.3204 199.947 67.3159 202.873C67.3103 205.964 67.3056 209.055 67.3059 212.146C67.3063 213.284 67.3064 214.422 67.3062 215.56L67.2975 218.805L67.3009 221.759C67.2972 226.035 67.7056 228.731 70.5817 232.003C74.1984 235.122 76.8375 235.555 81.5656 235.57L83.9564 235.528C85.6391 235.522 87.3218 235.515 89.0046 235.507C91.6487 235.472 94.2922 235.437 96.9365 235.424C98.6688 235.417 100.401 235.409 102.133 235.398L104.609 235.378L107.02 235.36L109.243 235.329C112.374 235.292 113.706 234.856 116.317 233.049C119.185 230.46 120.566 227.895 121.04 224.039L121.033 221.472C121.039 219.957 121.043 218.442 121.031 216.927C121.022 215.819 121.017 214.712 121.016 213.604C121.02 210.584 121.015 207.563 120.999 204.542C120.981 201.334 120.974 198.126 120.971 194.918C120.966 188.859 120.95 182.799 120.926 176.74C120.899 169.789 120.882 162.837 120.87 155.886C120.845 141.511 120.742 117.817 120.689 103.443L120.682 101.653C127.436 101.67 134.191 101.683 140.945 101.692L141.73 101.693C144.911 101.696 148.092 101.7 151.273 101.708C154.646 101.716 158.019 101.724 161.393 101.727C162.675 101.728 163.957 101.729 165.239 101.731C167.087 101.737 168.935 101.743 170.784 101.744L172.479 101.743C172.67 101.744 172.857 101.744 173.041 101.745C176.955 101.758 179.362 101.765 182.516 99.0098C184.836 96.0761 184.836 96.0761 184.855 89.2656L184.864 95.9297C184.852 93.0974 184.835 90.2663 184.791 87.4344Z"/>
<path d="M81.6765 0.139579L79.5497 0.162761C76.4596 0.189921 75.1758 0.647318 72.6221 2.48079C69.818 4.94294 68.3477 6.93676 67.9056 10.6974L67.9217 13.4568C67.922 15.0578 67.9229 16.6589 67.9403 18.2598C67.9532 19.4011 67.9618 20.5423 67.9662 21.6836C67.9724 24.6782 67.9867 27.6726 68.0127 30.667C68.0398 33.7687 68.0566 36.8704 68.0691 39.9722C68.0925 46.0058 68.1289 52.0392 68.1768 58.0727L68.1929 60.0108C61.1816 59.9101 54.1706 59.8286 47.1588 59.7775C43.5826 59.7534 40.0064 59.7317 36.4304 59.6827C32.9286 59.6298 29.4275 59.5829 25.9254 59.5647C24.5922 59.5599 23.2589 59.5531 21.9257 59.5442C20.008 59.5067 18.0922 59.4696 16.1741 59.4663L14.4073 59.4684C12.2057 59.3989 10.6873 59.5475 8.47323 60.0108C6.11448 62.194 4.7373 63.7355 4.00243 66.8885L4.01467 69.0206L4 71.4599L4.04713 74.0542C4.05094 75.8785 4.0567 77.7027 4.06424 79.527C15.8663 86.269 45.9844 97.7304 72.04 89.64C98.0955 81.5496 121.056 84.7986 129.28 87.4344C142.124 90.0171 171.195 92.4539 184.726 81.5402C184.708 77.8143 184.675 74.0887 184.64 70.3629L184.601 67.898C184.569 65.7011 184.633 64.3635 183.651 62.3995C181.093 60.3376 179.371 59.2831 176.092 58.8315L172.995 58.8529C171.197 58.8514 169.401 58.8545 167.603 58.8777C166.323 58.895 165.042 58.9064 163.761 58.9123C160.4 58.9206 157.039 58.9395 153.678 58.9742C150.197 59.0104 146.716 59.0329 143.235 59.0495C136.464 59.0807 129.692 59.1292 122.921 59.1931L120.746 59.2145C120.763 53.2021 120.777 47.1897 120.785 41.1773L120.786 40.4775C120.79 37.6472 120.793 34.8168 120.801 31.9865C120.81 28.9836 120.818 25.9807 120.821 22.9777C120.821 21.8374 120.822 20.6972 120.824 19.5569L120.836 16.2039L120.837 13.1125C120.846 8.2568 120.053 6.32368 116.765 2.67985C113.158 0.311637 110.209 0.0140483 106.024 0L103.739 0.0297918C102.128 0.032852 100.518 0.0370321 98.9081 0.0422334C96.3793 0.0673753 93.851 0.0920648 91.3222 0.0997758C89.6648 0.102841 88.0075 0.108039 86.3502 0.115571L83.9813 0.129325L81.6765 0.139579Z"/>
</mask>
<path fill-rule="evenodd" clip-rule="evenodd" d="M184.791 87.4344C184.761 85.4698 184.739 83.505 184.726 81.5402C171.195 92.4539 142.124 90.0171 129.28 87.4344C121.056 84.7986 98.0955 81.5496 72.04 89.64C45.9844 97.7304 15.8663 86.269 4.06424 79.527C4.10447 82.3948 4.14362 85.2616 4.15308 88.1298C4.15602 90.0073 4.16308 91.8848 4.17464 93.7623L4.13238 87.1304L4.14532 89.7394L4.1839 92.1558C4.21991 95.1382 4.30133 95.8892 6.02039 98.4678C8.5649 100.522 10.259 101.577 13.5188 102.036L16.53 102.014C18.2781 102.016 20.0251 102.013 21.7731 101.99C23.0181 101.972 24.2632 101.961 25.5083 101.955C28.7766 101.947 32.0445 101.928 35.3126 101.893C38.6972 101.857 42.0817 101.834 45.4665 101.818C52.0507 101.787 58.6345 101.738 65.2185 101.674L67.3326 101.653C67.3149 115.977 67.3649 139.621 67.3565 153.945C67.3525 160.908 67.3482 167.871 67.3393 174.835C67.3313 180.951 67.3247 187.068 67.3223 193.184L67.322 194.094C67.3212 197.02 67.3204 199.947 67.3159 202.873C67.3103 205.964 67.3056 209.055 67.3059 212.146C67.3063 213.284 67.3064 214.422 67.3062 215.56L67.2975 218.805L67.3009 221.759C67.2972 226.035 67.7056 228.731 70.5817 232.003C74.1984 235.122 76.8375 235.555 81.5656 235.57L83.9564 235.528C85.6391 235.522 87.3218 235.515 89.0046 235.507C91.6487 235.472 94.2922 235.437 96.9365 235.424C98.6688 235.417 100.401 235.409 102.133 235.398L104.609 235.378L107.02 235.36L109.243 235.329C112.374 235.292 113.706 234.856 116.317 233.049C119.185 230.46 120.566 227.895 121.04 224.039L121.033 221.472C121.039 219.957 121.043 218.442 121.031 216.927C121.022 215.819 121.017 214.712 121.016 213.604C121.02 210.584 121.015 207.563 120.999 204.542C120.981 201.334 120.974 198.126 120.971 194.918C120.966 188.859 120.95 182.799 120.926 176.74C120.899 169.789 120.882 162.837 120.87 155.886C120.845 141.511 120.742 117.817 120.689 103.443L120.682 101.653C127.436 101.67 134.191 101.683 140.945 101.692L141.73 101.693C144.911 101.696 148.092 101.7 151.273 101.708C154.646 101.716 158.019 101.724 161.393 101.727C162.675 101.728 163.957 101.729 165.239 101.731C167.087 101.737 168.935 101.743 170.784 101.744L172.479 101.743C172.67 101.744 172.857 101.744 173.041 101.745C176.955 101.758 179.362 101.765 182.516 99.0098C184.836 96.0761 184.836 96.0761 184.855 89.2656L184.864 95.9297C184.852 93.0974 184.835 90.2663 184.791 87.4344Z" fill="#D4AF37"/>
<path d="M81.6765 0.139579L79.5497 0.162761C76.4596 0.189921 75.1758 0.647318 72.6221 2.48079C69.818 4.94294 68.3477 6.93676 67.9056 10.6974L67.9217 13.4568C67.922 15.0578 67.9229 16.6589 67.9403 18.2598C67.9532 19.4011 67.9618 20.5423 67.9662 21.6836C67.9724 24.6782 67.9867 27.6726 68.0127 30.667C68.0398 33.7687 68.0566 36.8704 68.0691 39.9722C68.0925 46.0058 68.1289 52.0392 68.1768 58.0727L68.1929 60.0108C61.1816 59.9101 54.1706 59.8286 47.1588 59.7775C43.5826 59.7534 40.0064 59.7317 36.4304 59.6827C32.9286 59.6298 29.4275 59.5829 25.9254 59.5647C24.5922 59.5599 23.2589 59.5531 21.9257 59.5442C20.008 59.5067 18.0922 59.4696 16.1741 59.4663L14.4073 59.4684C12.2057 59.3989 10.6873 59.5475 8.47323 60.0108C6.11448 62.194 4.7373 63.7355 4.00243 66.8885L4.01467 69.0206L4 71.4599L4.04713 74.0542C4.05094 75.8785 4.0567 77.7027 4.06424 79.527C15.8663 86.269 45.9844 97.7304 72.04 89.64C98.0955 81.5496 121.056 84.7986 129.28 87.4344C142.124 90.0171 171.195 92.4539 184.726 81.5402C184.708 77.8143 184.675 74.0887 184.64 70.3629L184.601 67.898C184.569 65.7011 184.633 64.3635 183.651 62.3995C181.093 60.3376 179.371 59.2831 176.092 58.8315L172.995 58.8529C171.197 58.8514 169.401 58.8545 167.603 58.8777C166.323 58.895 165.042 58.9064 163.761 58.9123C160.4 58.9206 157.039 58.9395 153.678 58.9742C150.197 59.0104 146.716 59.0329 143.235 59.0495C136.464 59.0807 129.692 59.1292 122.921 59.1931L120.746 59.2145C120.763 53.2021 120.777 47.1897 120.785 41.1773L120.786 40.4775C120.79 37.6472 120.793 34.8168 120.801 31.9865C120.81 28.9836 120.818 25.9807 120.821 22.9777C120.821 21.8374 120.822 20.6972 120.824 19.5569L120.836 16.2039L120.837 13.1125C120.846 8.2568 120.053 6.32368 116.765 2.67985C113.158 0.311637 110.209 0.0140483 106.024 0L103.739 0.0297918C102.128 0.032852 100.518 0.0370321 98.9081 0.0422334C96.3793 0.0673753 93.851 0.0920648 91.3222 0.0997758C89.6648 0.102841 88.0075 0.108039 86.3502 0.115571L83.9813 0.129325L81.6765 0.139579Z" fill="#FFFAED"/>
<path d="M81.6765 0.139579L81.6745 -0.310426L81.6716 -0.310394L81.6765 0.139579ZM83.9813 0.129325L83.9833 0.579321L83.9839 0.579317L83.9813 0.129325ZM120.836 16.2039L121.286 16.2055V16.2039L120.836 16.2039ZM107.02 235.36L107.023 235.81L107.026 235.81L107.02 235.36ZM104.609 235.378L104.606 234.928H104.606L104.609 235.378ZM67.2975 218.805L66.8475 218.804V218.806L67.2975 218.805ZM4.14532 89.7394L3.6953 89.7416L3.69538 89.7465L4.14532 89.7394ZM4.13238 87.1304L4.58238 87.1282L4.58237 87.1267L4.13238 87.1304ZM4 71.4599L3.54988 71.4572L3.55007 71.4681L4 71.4599ZM4.01467 69.0206L4.46469 69.0233L4.46466 69.018L4.01467 69.0206ZM129.28 87.4344L129.143 87.8629L129.167 87.8706L129.191 87.8755L129.28 87.4344ZM79.5497 0.162761L79.5546 0.612735C80.6074 0.601259 80.6074 0.601259 81.6814 0.589552L81.6765 0.139579L81.6716 -0.310394C80.5976 -0.298687 80.5976 -0.298687 79.5448 -0.287212L79.5497 0.162761ZM81.6765 0.139579L81.6785 0.589575C82.4391 0.586191 83.1996 0.582807 83.9833 0.57932L83.9813 0.129325L83.9793 -0.320671C83.1956 -0.317184 82.4351 -0.3138 81.6745 -0.310416L81.6765 0.139579ZM83.9813 0.129325L83.9839 0.579317C85.1565 0.572509 85.1565 0.572509 86.3528 0.565563L86.3502 0.115571L86.3476 -0.334422C85.1513 -0.327476 85.1513 -0.327476 83.9786 -0.320668L83.9813 0.129325ZM103.739 0.0297918L103.744 0.479754C104.499 0.469922 105.253 0.460091 106.03 0.449962L106.024 0L106.018 -0.449962C105.241 -0.439833 104.487 -0.430001 103.733 -0.42017L103.739 0.0297918ZM120.837 13.1125L120.387 13.1125C120.387 14.1398 120.386 15.1457 120.386 16.2039L120.836 16.2039L121.286 16.2039C121.286 15.16 121.287 14.1256 121.287 13.1126L120.837 13.1125ZM120.836 16.2039L120.386 16.2023C120.382 17.3199 120.378 18.4375 120.374 19.5552L120.824 19.5569L121.274 19.5586C121.278 18.4409 121.282 17.3232 121.286 16.2055L120.836 16.2039ZM120.746 59.2145L120.751 59.6645C121.467 59.6574 122.187 59.6503 122.925 59.643L122.921 59.1931L122.916 58.7431C122.175 58.7504 121.461 58.7574 120.742 58.7645L120.746 59.2145ZM172.995 58.8529L172.998 59.3029C174.531 59.2923 174.531 59.2923 176.095 59.2815L176.092 58.8315L176.089 58.3815C174.525 58.3923 174.525 58.3923 172.992 58.4029L172.995 58.8529ZM184.601 67.898L184.151 67.905C184.164 68.7248 184.176 69.5256 184.19 70.37L184.64 70.3629L185.089 70.3558C185.076 69.524 185.063 68.698 185.051 67.8909L184.601 67.898ZM184.864 95.9297L184.414 95.9389C184.415 95.9658 184.415 95.9894 184.416 96.0055C184.416 96.0096 184.416 96.0166 184.417 96.0245C184.417 96.0281 184.418 96.0355 184.419 96.0446C184.419 96.0446 184.422 96.0775 184.433 96.1163C184.444 96.1483 184.505 96.2625 184.571 96.3333C184.809 96.4398 185.179 96.3168 185.263 96.2053C185.282 96.1658 185.302 96.1058 185.307 96.0867C185.309 96.0759 185.312 96.0582 185.313 96.0512C185.315 96.0303 185.316 96.0126 185.316 96.0112C185.317 95.9847 185.318 95.9258 185.318 95.8594C185.319 95.7127 185.318 95.457 185.318 95.13C185.316 94.4754 185.313 93.5301 185.309 92.586C185.306 91.6417 185.302 90.6988 185.301 90.0483C185.3 89.7227 185.3 89.4717 185.3 89.3305C185.301 89.2512 185.301 89.2237 185.301 89.2271C185.301 89.229 185.301 89.2335 185.3 89.2395C185.3 89.2422 185.299 89.2593 185.294 89.2811C185.292 89.2949 185.281 89.3354 185.271 89.3616C185.24 89.4261 185.017 89.6166 184.795 89.6443C184.619 89.5825 184.453 89.4052 184.43 89.3526C184.422 89.33 184.413 89.2948 184.41 89.2824C184.403 89.2434 184.403 89.206 184.404 89.2274C184.404 89.2321 184.404 89.2464 184.405 89.2749L184.855 89.2656L185.305 89.2564C185.304 89.2284 185.303 89.2046 185.303 89.1882C185.302 89.1839 185.302 89.1777 185.302 89.1708C185.301 89.1674 185.301 89.1618 185.3 89.1551C185.3 89.1513 185.298 89.1348 185.295 89.1144C185.292 89.1017 185.283 89.0662 185.275 89.0436C185.252 88.9908 185.086 88.8134 184.91 88.7517C184.687 88.7794 184.464 88.9699 184.433 89.0346C184.424 89.0608 184.413 89.1015 184.41 89.1156C184.406 89.1379 184.404 89.1558 184.404 89.1594C184.403 89.1664 184.403 89.1722 184.403 89.1756C184.401 89.203 184.401 89.2635 184.4 89.327C184.4 89.4713 184.4 89.725 184.401 90.0503C184.402 90.7016 184.406 91.6453 184.409 92.5893C184.413 93.5336 184.416 94.4783 184.418 95.1321C184.418 95.4593 184.419 95.7125 184.418 95.8562C184.418 95.8922 184.418 95.9205 184.417 95.9412C184.417 95.9655 184.417 95.971 184.417 95.9673C184.417 95.966 184.417 95.963 184.418 95.959C184.418 95.9562 184.419 95.9467 184.42 95.9345C184.421 95.9278 184.424 95.9104 184.426 95.8998C184.431 95.8809 184.451 95.8211 184.469 95.7816C184.553 95.6702 184.924 95.5472 185.161 95.6537C185.227 95.7245 185.289 95.8386 185.299 95.8704C185.303 95.886 185.308 95.9109 185.31 95.9201C185.311 95.926 185.312 95.9363 185.313 95.9404C185.314 95.9485 185.314 95.9548 185.315 95.9571C185.315 95.96 185.315 95.9622 185.315 95.9631C185.315 95.9633 185.315 95.9641 185.315 95.9642C185.315 95.9643 185.315 95.9647 185.315 95.9646C185.315 95.9646 185.315 95.9643 185.315 95.9637C185.315 95.9631 185.315 95.9622 185.315 95.961C185.315 95.9587 185.315 95.9556 185.315 95.9517C185.314 95.9438 185.314 95.9335 185.314 95.9204L184.864 95.9297ZM172.479 101.743L172.479 101.293C171.647 101.293 171.633 101.293 170.783 101.294L170.784 101.744L170.784 102.194C171.647 102.193 171.633 102.193 172.479 102.193L172.479 101.743ZM120.682 101.653L120.232 101.655C120.234 102.25 120.237 102.831 120.239 103.444L120.689 103.443L121.139 103.441C121.137 102.837 121.134 102.237 121.132 101.651L120.682 101.653ZM121.033 221.472L120.583 221.473C120.586 222.32 120.588 223.167 120.59 224.04L121.04 224.039L121.49 224.037C121.488 223.165 121.486 222.318 121.483 221.471L121.033 221.472ZM109.243 235.329L109.237 234.88C108.506 234.89 107.767 234.9 107.013 234.911L107.02 235.36L107.026 235.81C107.785 235.8 108.513 235.79 109.249 235.779L109.243 235.329ZM107.02 235.36L107.016 234.91C106.42 234.915 106.122 234.917 105.82 234.919C105.519 234.922 105.215 234.924 104.606 234.928L104.609 235.378L104.613 235.828C105.221 235.824 105.526 235.822 105.827 235.819C106.128 235.817 106.427 235.815 107.023 235.81L107.02 235.36ZM104.609 235.378L104.606 234.928C103.787 234.935 102.974 234.941 102.13 234.948L102.133 235.398L102.137 235.848C102.977 235.841 103.798 235.835 104.613 235.828L104.609 235.378ZM83.9564 235.528L83.9484 235.078C83.5539 235.085 83.1595 235.092 82.762 235.099C82.3645 235.106 81.9641 235.113 81.5576 235.12L81.5656 235.57L81.5735 236.02C81.98 236.013 82.3804 236.005 82.7779 235.998C83.1754 235.991 83.5698 235.984 83.9643 235.977L83.9564 235.528ZM67.3009 221.759L67.7509 221.759C67.7492 220.296 67.7492 220.297 67.7475 218.805L67.2975 218.805L66.8475 218.806C66.8492 220.297 66.8492 220.298 66.8509 221.76L67.3009 221.759ZM67.2975 218.805L67.7475 218.806C67.7504 217.725 67.7533 216.643 67.7562 215.561L67.3062 215.56L66.8562 215.559C66.8533 216.64 66.8504 217.722 66.8475 218.804L67.2975 218.805ZM67.3326 101.653L67.328 101.203C66.6281 101.21 65.9349 101.217 65.2139 101.224L65.2185 101.674L65.223 102.124C65.9396 102.117 66.6417 102.11 67.3372 102.103L67.3326 101.653ZM16.53 102.014L16.5268 101.564C15.5332 101.572 14.5393 101.579 13.5156 101.586L13.5188 102.036L13.522 102.486C14.5459 102.479 15.5394 102.471 16.5332 102.464L16.53 102.014ZM4.1839 92.1558L4.63384 92.1486C4.62111 91.3512 4.60838 90.5538 4.59526 89.7322L4.14532 89.7394L3.69538 89.7465C3.70849 90.5681 3.72122 91.3656 3.73396 92.163L4.1839 92.1558ZM4.14532 89.7394L4.59532 89.7371C4.59105 88.8762 4.58678 88.0152 4.58238 87.1282L4.13238 87.1304L3.68239 87.1326C3.68679 88.0197 3.69106 88.8806 3.69533 89.7416L4.14532 89.7394ZM4.13238 87.1304L4.58237 87.1267C4.58172 87.0474 4.58131 86.9996 4.58106 86.9896C4.58103 86.9883 4.58093 86.9851 4.58086 86.983C4.58066 86.9783 4.57865 86.9525 4.5759 86.9313C4.13376 86.5501 3.68371 86.9523 3.68168 86.9787C3.68147 86.9837 3.68126 86.9909 3.68122 86.9931C3.68115 86.9979 3.68115 87.0028 3.68115 87.0035C3.68115 87.0077 3.68117 87.0139 3.6812 87.0214C3.68126 87.0367 3.68139 87.0604 3.68156 87.0917C3.68226 87.2168 3.68383 87.4666 3.68599 87.7993C3.69031 88.4647 3.69696 89.4625 3.7036 90.4594C3.71025 91.4563 3.71689 92.4524 3.72117 93.1143C3.72332 93.4454 3.72488 93.6927 3.72555 93.8148C3.72572 93.8454 3.72583 93.8678 3.72589 93.8817C3.72591 93.8889 3.72592 93.8929 3.72592 93.8945C3.72592 93.8991 3.72587 93.8918 3.72611 93.8838C3.72639 93.8767 3.74012 93.7854 3.76911 93.7053C4.25144 93.4541 4.62453 93.8627 4.6253 93.8745C4.62546 93.878 4.62565 93.8831 4.6257 93.8846C4.62572 93.8855 4.62576 93.8869 4.62577 93.8874C4.62577 93.8875 4.62566 93.8787 4.62544 93.8548C4.62524 93.8328 4.62497 93.801 4.62463 93.7586L4.17464 93.7623L3.72466 93.7659C3.72532 93.848 3.72575 93.8958 3.72596 93.9062C3.72598 93.907 3.72602 93.9088 3.72605 93.9099C3.72611 93.9118 3.72631 93.9171 3.72648 93.9206C3.72725 93.9326 4.10034 94.3413 4.58269 94.0901C4.61168 94.0099 4.62542 93.9185 4.62569 93.9113C4.62577 93.9085 4.62585 93.9044 4.62587 93.9029C4.62589 93.9019 4.6259 93.9003 4.62591 93.8995C4.62592 93.8979 4.62592 93.8965 4.62592 93.8954C4.62592 93.8914 4.62591 93.8853 4.62588 93.8782C4.62582 93.8635 4.62571 93.8404 4.62554 93.8098C4.62486 93.6872 4.6233 93.4395 4.62116 93.1085C4.61687 92.4464 4.61023 91.4503 4.60358 90.4534C4.59694 89.4565 4.59029 88.4588 4.58597 87.7934C4.58382 87.4607 4.58224 87.2113 4.58155 87.0866C4.58137 87.0555 4.58125 87.0323 4.58119 87.0177C4.58116 87.0102 4.58115 87.0057 4.58115 87.0035C4.58115 87.001 4.58117 87.0038 4.58111 87.0076C4.58107 87.0096 4.58087 87.0166 4.58066 87.0216C4.57863 87.0478 4.1286 87.45 3.68646 87.0688C3.68371 87.0477 3.68172 87.022 3.68152 87.0175C3.68145 87.0156 3.68136 87.0126 3.68134 87.0116C3.68129 87.0097 3.68138 87.0163 3.6816 87.0404C3.6818 87.0615 3.68206 87.0925 3.6824 87.134L4.13238 87.1304ZM4.04713 74.0542L4.49706 74.046C4.4815 73.1899 4.46595 72.3338 4.44993 71.4517L4 71.4599L3.55007 71.4681C3.5661 72.3501 3.58165 73.2063 3.5972 74.0624L4.04713 74.0542ZM4 71.4599L4.44999 71.4626C4.45483 70.6576 4.45967 69.8527 4.46466 69.0233L4.01467 69.0206L3.56467 69.0179C3.55969 69.8473 3.55485 70.6522 3.55001 71.4572L4 71.4599ZM4.01467 69.0206L4.46466 69.018C4.46062 68.3144 4.45658 67.6108 4.45242 66.8859L4.00243 66.8885L3.55244 66.8911C3.5566 67.616 3.56064 68.3196 3.56467 69.0232L4.01467 69.0206ZM14.4073 59.4684L14.4078 59.9184C15.2833 59.9173 15.2815 59.9173 16.1747 59.9163L16.1741 59.4663L16.1736 59.0163C15.2823 59.0173 15.2804 59.0173 14.4068 59.0184L14.4073 59.4684ZM68.1929 60.0108L68.6429 60.007C68.635 59.0577 68.6348 59.0376 68.6268 58.0689L68.1768 58.0727L67.7268 58.0764C67.735 59.0652 67.7348 59.0451 67.7429 60.0145L68.1929 60.0108ZM67.9217 13.4568L68.3717 13.4542C68.3637 12.0882 68.3637 12.0883 68.3556 10.6947L67.9056 10.6974L67.4556 10.7C67.4637 12.0935 67.4637 12.0935 67.4717 13.4594L67.9217 13.4568ZM4.06424 79.527L3.84103 79.9177C9.78042 83.3106 20.303 87.8783 32.6104 90.5852C44.9162 93.2917 59.0449 94.1463 72.1734 90.0698L72.04 89.64L71.9065 89.2103C58.9795 93.2242 45.0213 92.3933 32.8037 89.7062C20.5877 87.0194 10.1502 82.4853 4.28745 79.1362L4.06424 79.527ZM72.04 89.64L72.1734 90.0698C98.1357 82.0083 121.002 85.2537 129.143 87.8629L129.28 87.4344L129.417 87.0059C121.111 84.3435 98.0554 81.0909 71.9065 89.2103L72.04 89.64ZM129.28 87.4344L129.191 87.8755C135.642 89.1728 146.157 90.4319 156.764 89.9981C167.349 89.565 178.125 87.4424 185.008 81.8904L184.726 81.5402L184.443 81.1899C177.796 86.5517 167.27 88.6675 156.727 89.0988C146.204 89.5293 135.761 88.2787 129.369 86.9932L129.28 87.4344ZM141.73 101.693L141.73 101.243C141.469 101.242 141.207 101.242 140.945 101.242L140.945 101.692L140.944 102.142C141.206 102.142 141.468 102.142 141.729 102.143L141.73 101.693ZM67.322 194.094L67.772 194.094C67.7721 193.791 67.7722 193.488 67.7723 193.184L67.3223 193.184L66.8723 193.184C66.8722 193.487 66.8721 193.79 66.872 194.094L67.322 194.094ZM120.786 40.4775L120.336 40.4769C120.336 40.7102 120.335 40.9434 120.335 41.1767L120.785 41.1773L121.235 41.1779C121.235 40.9446 121.236 40.7113 121.236 40.4781L120.786 40.4775ZM79.5497 0.162761L79.5576 1.06273L79.5595 1.06271L79.5497 0.162761ZM81.6765 0.139579L81.6725 -0.760431L81.6667 -0.760367L81.6765 0.139579ZM83.9813 0.129325L83.9853 1.02932L83.9865 1.02931L83.9813 0.129325ZM86.3502 0.115571L86.3461 -0.784421L86.3449 -0.784414L86.3502 0.115571ZM91.3222 0.0997758L91.3239 0.999775L91.3249 0.999772L91.3222 0.0997758ZM98.9081 0.0422334L98.9052 -0.857782L98.8991 -0.857722L98.9081 0.0422334ZM103.739 0.0297918L103.74 0.929846L103.75 0.929715L103.739 0.0297918ZM106.024 0L106.027 -0.899995L106.019 -0.90002L106.012 -0.899924L106.024 0ZM116.765 2.67985L117.433 2.07689L117.356 1.99102L117.259 1.92754L116.765 2.67985ZM120.837 13.1125L119.937 13.1108V13.1125L120.837 13.1125ZM120.836 16.2039L121.736 16.2072V16.204L120.836 16.2039ZM120.824 19.5569L119.924 19.5535L119.924 19.5557L120.824 19.5569ZM120.821 22.9777L121.721 22.9786V22.9783L120.821 22.9777ZM120.801 31.9865L119.901 31.9839V31.9841L120.801 31.9865ZM120.785 41.1773L121.685 41.1786V41.1785L120.785 41.1773ZM120.746 59.2145L119.846 59.212L119.844 60.1234L120.755 60.1144L120.746 59.2145ZM122.921 59.1931L122.912 58.2931L122.912 58.2931L122.921 59.1931ZM143.235 59.0495L143.239 59.9495H143.239L143.235 59.0495ZM153.678 58.9742L153.669 58.0743H153.669L153.678 58.9742ZM163.761 58.9123L163.764 59.8123L163.766 59.8123L163.761 58.9123ZM167.603 58.8777L167.592 57.9778L167.591 57.9778L167.603 58.8777ZM172.995 58.8529L172.994 59.7529L173.001 59.7529L172.995 58.8529ZM176.092 58.8315L176.215 57.9399L176.151 57.9311L176.086 57.9315L176.092 58.8315ZM183.651 62.3995L184.456 61.997L184.368 61.8218L184.216 61.6988L183.651 62.3995ZM184.601 67.898L183.701 67.9108L183.701 67.9121L184.601 67.898ZM184.64 70.3629L185.54 70.3544L185.539 70.3487L184.64 70.3629ZM184.726 81.5402L183.826 81.5446L183.826 81.5462L184.726 81.5402ZM184.791 87.4344L185.691 87.4205V87.4204L184.791 87.4344ZM184.864 95.9297L183.964 95.9334L185.764 95.9284L184.864 95.9297ZM184.855 89.2656L185.755 89.2644L183.955 89.2631L184.855 89.2656ZM182.516 99.0098L183.108 99.6876L183.17 99.633L183.222 99.5681L182.516 99.0098ZM172.479 101.743L172.481 100.843H172.479L172.479 101.743ZM170.784 101.744L170.783 102.644H170.784L170.784 101.744ZM165.239 101.731L165.242 100.831L165.24 100.831L165.239 101.731ZM161.393 101.727L161.392 102.627H161.392L161.393 101.727ZM151.273 101.708L151.275 100.808H151.275L151.273 101.708ZM140.945 101.692L140.944 102.592H140.944L140.945 101.692ZM120.682 101.653L120.684 100.753L119.779 100.751L119.782 101.656L120.682 101.653ZM120.689 103.443L121.589 103.439V103.439L120.689 103.443ZM120.87 155.886L119.97 155.887V155.887L120.87 155.886ZM120.926 176.74L121.826 176.737L120.926 176.74ZM120.971 194.918L120.071 194.919V194.919L120.971 194.918ZM120.999 204.542L121.899 204.537V204.537L120.999 204.542ZM121.016 213.604L120.116 213.603V213.605L121.016 213.604ZM121.031 216.927L121.931 216.919V216.919L121.031 216.927ZM121.033 221.472L120.133 221.469L120.133 221.474L121.033 221.472ZM121.04 224.039L121.933 224.148L121.94 224.093L121.94 224.036L121.04 224.039ZM116.317 233.049L116.829 233.789L116.877 233.756L116.92 233.717L116.317 233.049ZM109.243 235.329L109.232 234.43L109.231 234.43L109.243 235.329ZM107.02 235.36L107.026 236.26L107.032 236.26L107.02 235.36ZM104.609 235.378L104.603 234.478H104.602L104.609 235.378ZM102.133 235.398L102.139 236.298H102.14L102.133 235.398ZM96.9365 235.424L96.9332 234.524H96.9318L96.9365 235.424ZM89.0046 235.507L89.0089 236.407L89.0165 236.407L89.0046 235.507ZM83.9564 235.528L83.9535 234.627L83.9405 234.628L83.9564 235.528ZM81.5656 235.57L81.5628 236.47L81.5721 236.47L81.5815 236.47L81.5656 235.57ZM70.5817 232.003L69.9056 232.598L69.9468 232.644L69.994 232.685L70.5817 232.003ZM67.3009 221.759L68.2009 221.76V221.758L67.3009 221.759ZM67.2975 218.805L66.3975 218.803L66.3975 218.806L67.2975 218.805ZM67.3062 215.56L68.2062 215.562V215.56L67.3062 215.56ZM67.3059 212.146L66.4059 212.146V212.147L67.3059 212.146ZM67.3159 202.873L68.2159 202.875V202.874L67.3159 202.873ZM67.3223 193.184L66.4223 193.184V193.184L67.3223 193.184ZM67.3393 174.835L68.2393 174.836V174.836L67.3393 174.835ZM67.3565 153.945L66.4565 153.945L67.3565 153.945ZM67.3326 101.653L68.2326 101.654L68.2337 100.744L67.3235 100.753L67.3326 101.653ZM65.2185 101.674L65.2272 102.574H65.2276L65.2185 101.674ZM45.4665 101.818L45.4623 100.918H45.4621L45.4665 101.818ZM35.3126 101.893L35.3221 102.793H35.3222L35.3126 101.893ZM25.5083 101.955L25.506 101.055L25.504 101.055L25.5083 101.955ZM21.7731 101.99L21.785 102.89H21.7855L21.7731 101.99ZM16.53 102.014L16.5308 101.114L16.5236 101.114L16.53 102.014ZM13.5188 102.036L13.3933 102.927L13.4589 102.936L13.5252 102.936L13.5188 102.036ZM6.02039 98.4678L5.27155 98.967L5.34795 99.0816L5.45513 99.1681L6.02039 98.4678ZM4.1839 92.1558L5.08384 92.145L5.08378 92.1415L4.1839 92.1558ZM4.14532 89.7394L3.24528 89.7438L3.24544 89.7537L4.14532 89.7394ZM4.13238 87.1304L5.03236 87.1247L3.23239 87.1349L4.13238 87.1304ZM4.17464 93.7623L3.27466 93.768L5.07463 93.7567L4.17464 93.7623ZM4.15308 88.1298L5.05308 88.1283L5.05307 88.1268L4.15308 88.1298ZM4.06424 79.527L3.1642 79.5307L3.16433 79.5396L4.06424 79.527ZM4.04713 74.0542L4.94713 74.0523L4.94711 74.0451L4.94698 74.0379L4.04713 74.0542ZM4 71.4599L3.10002 71.4545L3.09995 71.4654L3.10015 71.4762L4 71.4599ZM4.01467 69.0206L4.91471 69.026L4.91465 69.0154L4.01467 69.0206ZM4.00243 66.8885L3.12592 66.6842L3.10184 66.7875L3.10244 66.8936L4.00243 66.8885ZM8.47323 60.0108L8.28892 59.1298L8.04487 59.1809L7.86189 59.3503L8.47323 60.0108ZM14.4073 59.4684L14.3789 60.3679L14.3936 60.3684L14.4084 60.3684L14.4073 59.4684ZM16.1741 59.4663L16.1757 58.5663L16.1731 58.5663L16.1741 59.4663ZM21.9257 59.5442L21.9081 60.4441L21.9197 60.4442L21.9257 59.5442ZM25.9254 59.5647L25.9301 58.6647L25.9286 58.6647L25.9254 59.5647ZM36.4304 59.6827L36.4168 60.5826L36.418 60.5826L36.4304 59.6827ZM47.1588 59.7775L47.1654 58.8775L47.1649 58.8775L47.1588 59.7775ZM68.1929 60.0108L68.18 60.9107L69.1005 60.9239L69.0928 60.0033L68.1929 60.0108ZM68.1768 58.0727L67.2768 58.0798L67.2768 58.0801L68.1768 58.0727ZM68.0691 39.9722L68.9691 39.9687V39.9686L68.0691 39.9722ZM68.0127 30.667L67.1127 30.6749V30.6749L68.0127 30.667ZM67.9662 21.6836L68.8662 21.6818L68.8662 21.6802L67.9662 21.6836ZM67.9403 18.2598L67.0403 18.2696L67.0404 18.27L67.9403 18.2598ZM67.9217 13.4568L68.8217 13.4567L68.8217 13.4516L67.9217 13.4568ZM67.9056 10.6974L67.0118 10.5923L67.0053 10.6473L67.0056 10.7026L67.9056 10.6974ZM72.6221 2.48079L72.0972 1.7497L72.0614 1.77541L72.0283 1.80449L72.6221 2.48079ZM67.322 194.094L66.422 194.093V194.093L67.322 194.094ZM141.73 101.693L141.731 100.793L141.73 101.693ZM173.041 101.745L173.038 102.645H173.038L173.041 101.745ZM120.786 40.4775L121.686 40.4787V40.4787L120.786 40.4775ZM86.3502 0.115571L86.3543 1.01556C88.0107 1.00803 89.6673 1.00284 91.3239 0.999774L91.3222 0.0997758L91.3205 -0.800223C89.6624 -0.797156 88.0042 -0.791955 86.3461 -0.78442L86.3502 0.115571ZM91.3222 0.0997758L91.3249 0.999772C93.8573 0.99205 96.3887 0.967327 98.917 0.942189L98.9081 0.0422334L98.8991 -0.857722C96.37 -0.832577 93.8447 -0.80792 91.3194 -0.80022L91.3222 0.0997758ZM98.9081 0.0422334L98.911 0.942229C100.521 0.937029 102.13 0.93285 103.74 0.92979L103.739 0.0297918L103.737 -0.870207C102.126 -0.867146 100.516 -0.862964 98.9052 -0.857762L98.9081 0.0422334ZM106.024 0L106.021 0.899995C110.142 0.913828 112.881 1.20627 116.271 3.43217L116.765 2.67985L117.259 1.92754C113.435 -0.582994 110.276 -0.885732 106.027 -0.899995L106.024 0ZM116.765 2.67985L116.097 3.28282C117.72 5.08115 118.652 6.37859 119.2 7.7712C119.746 9.16025 119.941 10.7238 119.937 13.1108L120.837 13.1125L121.737 13.1143C121.741 10.6455 121.545 8.81465 120.875 7.11225C120.207 5.41342 119.098 3.92238 117.433 2.07689L116.765 2.67985ZM120.824 19.5569L119.924 19.5557C119.922 20.6962 119.921 21.8366 119.921 22.9771L120.821 22.9777L121.721 22.9783C121.721 21.8382 121.722 20.6982 121.724 19.5581L120.824 19.5569ZM120.821 22.9777L119.921 22.9768C119.918 25.9789 119.91 28.9811 119.901 31.9839L120.801 31.9865L121.701 31.9892C121.71 28.9861 121.718 25.9825 121.721 22.9786L120.821 22.9777ZM120.785 41.1773L119.885 41.176C119.877 47.1879 119.863 53.1999 119.846 59.212L120.746 59.2145L121.646 59.217C121.663 53.2043 121.677 47.1915 121.685 41.1786L120.785 41.1773ZM122.921 59.1931L122.929 60.093C129.699 60.0292 136.469 59.9807 143.239 59.9495L143.235 59.0495L143.231 58.1495C136.458 58.1807 129.685 58.2292 122.912 58.2931L122.921 59.1931ZM143.235 59.0495L143.239 59.9495C146.722 59.9328 150.204 59.9103 153.688 59.8742L153.678 58.9742L153.669 58.0743C150.19 58.1104 146.711 58.1329 143.231 58.1495L143.235 59.0495ZM153.678 58.9742L153.688 59.8742C157.046 59.8395 160.404 59.8205 163.764 59.8123L163.761 58.9123L163.759 58.0123C160.396 58.0206 157.033 58.0396 153.669 58.0743L153.678 58.9742ZM163.761 58.9123L163.766 59.8123C165.049 59.8064 166.332 59.7949 167.615 59.7777L167.603 58.8777L167.591 57.9778C166.313 57.995 165.035 58.0065 163.757 58.0123L163.761 58.9123ZM167.603 58.8777L167.615 59.7777C169.406 59.7545 171.198 59.7514 172.994 59.7529L172.995 58.8529L172.996 57.9529C171.197 57.9514 169.396 57.9545 167.592 57.9778L167.603 58.8777ZM176.092 58.8315L175.969 59.7231C177.529 59.9379 178.683 60.2902 179.741 60.8172C180.811 61.3504 181.82 62.0794 183.086 63.1003L183.651 62.3995L184.216 61.6988C182.924 60.6577 181.793 59.8286 180.543 59.206C179.281 58.5774 177.934 58.1767 176.215 57.9399L176.092 58.8315ZM183.651 62.3995L182.846 62.802C183.722 64.5532 183.669 65.6816 183.701 67.9108L184.601 67.898L185.501 67.8851C185.47 65.7206 185.544 64.1739 184.456 61.997L183.651 62.3995ZM184.64 70.3629L183.74 70.3714C183.775 74.0969 183.808 77.8209 183.826 81.5446L184.726 81.5402L185.626 81.5357C185.608 77.8077 185.575 74.0804 185.54 70.3544L184.64 70.3629ZM184.726 81.5402L183.826 81.5462C183.839 83.5136 183.861 85.481 183.891 87.4483L184.791 87.4344L185.691 87.4204C185.661 85.4585 185.639 83.4963 185.626 81.5341L184.726 81.5402ZM184.791 87.4344L183.891 87.4482C183.935 90.275 183.952 93.102 183.964 95.9334L184.864 95.9297L185.764 95.926C185.752 93.0928 185.735 90.2577 185.691 87.4205L184.791 87.4344ZM184.855 89.2656L183.955 89.2631C183.945 92.729 183.934 94.2934 183.673 95.3815C183.435 96.3746 182.993 96.9559 181.81 98.4515L182.516 99.0098L183.222 99.5681C184.359 98.1301 185.077 97.2446 185.423 95.8016C185.747 94.4537 185.745 92.6128 185.755 89.2681L184.855 89.2656ZM170.784 101.744L170.784 100.844C168.937 100.843 167.09 100.837 165.242 100.831L165.239 101.731L165.236 102.631C167.084 102.637 168.933 102.643 170.783 102.644L170.784 101.744ZM165.239 101.731L165.24 100.831C163.958 100.829 162.675 100.828 161.393 100.827L161.393 101.727L161.392 102.627C162.674 102.628 163.956 102.629 165.238 102.631L165.239 101.731ZM161.393 101.727L161.394 100.827C158.021 100.824 154.648 100.816 151.275 100.808L151.273 101.708L151.27 102.608C154.644 102.616 158.018 102.624 161.392 102.627L161.393 101.727ZM140.945 101.692L140.946 100.792C134.192 100.783 127.438 100.77 120.684 100.753L120.682 101.653L120.68 102.553C127.434 102.57 134.189 102.583 140.944 102.592L140.945 101.692ZM120.689 103.443L119.789 103.446C119.842 117.822 119.945 141.514 119.97 155.887L120.87 155.886L121.77 155.884C121.745 141.508 121.642 117.813 121.589 103.439L120.689 103.443ZM120.87 155.886L119.97 155.887C119.982 162.839 119.999 169.791 120.026 176.744L120.926 176.74L121.826 176.737C121.799 169.786 121.782 162.835 121.77 155.884L120.87 155.886ZM120.926 176.74L120.026 176.744C120.05 182.802 120.066 188.861 120.071 194.919L120.971 194.918L121.871 194.917C121.866 188.857 121.85 182.797 121.826 176.737L120.926 176.74ZM120.971 194.918L120.071 194.919C120.074 198.128 120.081 201.337 120.099 204.547L120.999 204.542L121.899 204.537C121.881 201.331 121.874 198.125 121.871 194.917L120.971 194.918ZM120.999 204.542L120.099 204.547C120.115 207.566 120.12 210.584 120.116 213.603L121.016 213.604L121.916 213.605C121.92 210.583 121.915 207.56 121.899 204.537L120.999 204.542ZM121.016 213.604L120.116 213.605C120.117 214.714 120.122 215.824 120.131 216.934L121.031 216.927L121.931 216.919C121.922 215.814 121.917 214.709 121.916 213.604L121.016 213.604ZM121.031 216.927L120.131 216.934C120.143 218.443 120.139 219.953 120.133 221.469L121.033 221.472L121.933 221.475C121.939 219.96 121.943 218.44 121.931 216.919L121.031 216.927ZM121.04 224.039L120.147 223.929C119.7 227.562 118.427 229.932 115.714 232.38L116.317 233.049L116.92 233.717C119.944 230.988 121.432 228.227 121.933 224.148L121.04 224.039ZM116.317 233.049L115.805 232.309C114.525 233.194 113.625 233.697 112.698 233.996C111.774 234.295 110.763 234.411 109.232 234.43L109.243 235.329L109.254 236.229C110.855 236.21 112.075 236.089 113.252 235.709C114.427 235.329 115.498 234.71 116.829 233.789L116.317 233.049ZM102.133 235.398L102.128 234.498C100.396 234.509 98.6647 234.517 96.9332 234.524L96.9365 235.424L96.9397 236.324C98.6728 236.317 100.406 236.309 102.139 236.298L102.133 235.398ZM96.9365 235.424L96.9318 234.524C94.2833 234.537 91.6361 234.572 88.9926 234.607L89.0046 235.507L89.0165 236.407C91.6611 236.372 94.3011 236.337 96.9411 236.324L96.9365 235.424ZM89.0046 235.507L89.0002 234.607C87.318 234.615 85.6357 234.622 83.9535 234.628L83.9564 235.528L83.9593 236.428C85.6425 236.422 87.3257 236.415 89.0089 236.407L89.0046 235.507ZM81.5656 235.57L81.5684 234.67C79.2176 234.662 77.4838 234.549 75.9104 234.087C74.3586 233.631 72.9054 232.819 71.1693 231.322L70.5817 232.003L69.994 232.685C71.8747 234.307 73.5494 235.27 75.4034 235.814C77.2358 236.352 79.1855 236.462 81.5628 236.47L81.5656 235.57ZM70.5817 232.003L71.2577 231.409C69.8935 229.857 69.1459 228.48 68.7269 227.011C68.3017 225.52 68.199 223.881 68.2009 221.76L67.3009 221.759L66.4009 221.758C66.399 223.913 66.4987 225.76 66.9958 227.504C67.4991 229.269 68.3938 230.877 69.9056 232.598L70.5817 232.003ZM67.3062 215.56L68.2062 215.56C68.2064 214.422 68.2063 213.284 68.2059 212.146L67.3059 212.146L66.4059 212.147C66.4063 213.284 66.4064 214.422 66.4062 215.56L67.3062 215.56ZM67.3059 212.146L68.2059 212.146C68.2056 209.056 68.2103 205.966 68.2159 202.875L67.3159 202.873L66.4159 202.871C66.4103 205.963 66.4056 209.054 66.4059 212.146L67.3059 212.146ZM67.3223 193.184L68.2223 193.185C68.2247 187.068 68.2313 180.952 68.2393 174.836L67.3393 174.835L66.4393 174.833C66.4313 180.95 66.4247 187.067 66.4223 193.184L67.3223 193.184ZM67.3393 174.835L68.2393 174.836C68.2482 167.872 68.2525 160.909 68.2565 153.946L67.3565 153.945L66.4565 153.945C66.4525 160.908 66.4482 167.871 66.4393 174.833L67.3393 174.835ZM67.3565 153.945L68.2565 153.946C68.2649 139.613 68.2149 115.983 68.2326 101.654L67.3326 101.653L66.4326 101.652C66.4149 115.972 66.4649 139.629 66.4565 153.945L67.3565 153.945ZM65.2185 101.674L65.2097 100.774C58.6272 100.838 52.0449 100.887 45.4623 100.918L45.4665 101.818L45.4708 102.718C52.0565 102.687 58.6419 102.638 65.2272 102.574L65.2185 101.674ZM45.4665 101.818L45.4621 100.918C42.0764 100.934 38.69 100.957 35.303 100.993L35.3126 101.893L35.3222 102.793C38.7045 102.757 42.0871 102.734 45.4709 102.718L45.4665 101.818ZM35.3126 101.893L35.303 100.993C32.0378 101.028 28.7723 101.047 25.506 101.055L25.5083 101.955L25.5105 102.855C28.7808 102.847 32.0511 102.828 35.3221 102.793L35.3126 101.893ZM25.5083 101.955L25.504 101.055C24.2562 101.061 23.0084 101.072 21.7606 101.09L21.7731 101.99L21.7855 102.89C23.0278 102.872 24.2701 102.861 25.5125 102.855L25.5083 101.955ZM21.7731 101.99L21.7611 101.09C20.0196 101.113 18.2778 101.116 16.5308 101.114L16.53 102.014L16.5293 102.914C18.2785 102.916 20.0306 102.913 21.785 102.89L21.7731 101.99ZM13.5188 102.036L13.6442 101.145C12.0944 100.926 10.953 100.573 9.90577 100.046C8.84567 99.5127 7.84682 98.7854 6.58566 97.7675L6.02039 98.4678L5.45513 99.1681C6.73847 100.204 7.85894 101.031 9.09697 101.654C10.3478 102.283 11.6834 102.686 13.3933 102.927L13.5188 102.036ZM6.02039 98.4678L6.76924 97.9686C5.92127 96.6966 5.53954 95.9639 5.33955 95.2274C5.13492 94.4738 5.10209 93.6572 5.08383 92.145L4.1839 92.1558L3.28396 92.1667C3.30171 93.6368 3.3276 94.6869 3.60245 95.6991C3.88194 96.7283 4.40045 97.6604 5.27155 98.967L6.02039 98.4678ZM4.17464 93.7623L5.07463 93.7567C5.06308 91.8807 5.05601 90.0045 5.05308 88.1283L4.15308 88.1298L3.25308 88.1312C3.25602 90.01 3.26309 91.8889 3.27466 93.7678L4.17464 93.7623ZM4.15308 88.1298L5.05307 88.1268C5.04359 85.2531 5.00437 82.3817 4.96415 79.5143L4.06424 79.527L3.16433 79.5396C3.20456 82.4079 3.24364 85.2701 3.25308 88.1327L4.15308 88.1298ZM4.06424 79.527L4.96423 79.5232C4.95669 77.6996 4.95094 75.8759 4.94713 74.0523L4.04713 74.0542L3.14713 74.0561C3.15094 75.881 3.15671 77.7059 3.16424 79.5307L4.06424 79.527ZM4.00243 66.8885L4.87894 67.0928C5.55307 64.2004 6.77391 62.8099 9.08457 60.6713L8.47323 60.0108L7.86189 59.3503C5.45505 61.578 3.92153 63.2706 3.12592 66.6842L4.00243 66.8885ZM8.47323 60.0108L8.65754 60.8917C10.8079 60.4418 12.2547 60.3009 14.3789 60.3679L14.4073 59.4684L14.4357 58.5688C12.1567 58.4969 10.5668 58.6532 8.28892 59.1298L8.47323 60.0108ZM16.1741 59.4663L16.1726 60.3663C18.0814 60.3696 19.9893 60.4065 21.9081 60.444L21.9257 59.5442L21.9433 58.6444C20.0268 58.6069 18.1031 58.5696 16.1757 58.5663L16.1741 59.4663ZM21.9257 59.5442L21.9197 60.4442C23.2539 60.4531 24.588 60.4599 25.9222 60.4647L25.9254 59.5647L25.9286 58.6647C24.5963 58.6599 23.264 58.6531 21.9317 58.6442L21.9257 59.5442ZM25.9254 59.5647L25.9207 60.4647C29.4182 60.4829 32.9158 60.5297 36.4168 60.5826L36.4304 59.6827L36.444 58.7828C32.9415 58.7299 29.4368 58.6829 25.9301 58.6647L25.9254 59.5647ZM36.4304 59.6827L36.418 60.5826C39.9979 60.6316 43.5776 60.6534 47.1528 60.6775L47.1588 59.7775L47.1649 58.8775C43.5875 58.8534 40.0149 58.8317 36.4427 58.7828L36.4304 59.6827ZM47.1588 59.7775L47.1522 60.6774C54.1615 60.7286 61.1703 60.8101 68.18 60.9107L68.1929 60.0108L68.2058 59.1109C61.1929 59.0102 54.1797 58.9287 47.1654 58.8775L47.1588 59.7775ZM68.1768 58.0727L69.0768 58.0655C69.0289 52.0332 68.9925 46.001 68.9691 39.9687L68.0691 39.9722L67.1691 39.9757C67.1926 46.0106 67.2289 52.0452 67.2768 58.0798L68.1768 58.0727ZM68.0691 39.9722L68.9691 39.9686C68.9566 36.866 68.9397 33.7628 68.9126 30.6592L68.0127 30.667L67.1127 30.6749C67.1398 33.7747 67.1567 36.8748 67.1691 39.9758L68.0691 39.9722ZM68.0127 30.667L68.9126 30.6592C68.8867 27.6671 68.8724 24.6748 68.8662 21.6818L67.9662 21.6836L67.0662 21.6855C67.0724 24.6817 67.0867 27.678 67.1127 30.6749L68.0127 30.667ZM67.9662 21.6836L68.8662 21.6802C68.8618 20.5367 68.8532 19.3931 68.8402 18.2496L67.9403 18.2598L67.0404 18.27C67.0532 19.409 67.0618 20.548 67.0662 21.6871L67.9662 21.6836ZM67.9403 18.2598L68.8402 18.2501C68.8229 16.6546 68.822 15.0581 68.8217 13.4567L67.9217 13.4568L67.0217 13.457C67.022 15.0576 67.0229 16.6632 67.0403 18.2696L67.9403 18.2598ZM67.9056 10.6974L68.7995 10.8024C69.0082 9.02691 69.4523 7.71634 70.1478 6.56855C70.8511 5.40783 71.8402 4.36499 73.2159 3.15708L72.6221 2.48079L72.0283 1.80449C70.5998 3.05873 69.4517 4.24388 68.6084 5.63576C67.7571 7.04056 67.2451 8.60721 67.0118 10.5923L67.9056 10.6974ZM72.6221 2.48079L73.147 3.21188C74.4014 2.31125 75.2743 1.80076 76.1729 1.49702C77.0676 1.19463 78.0512 1.07597 79.5576 1.06273L79.5497 0.162761L79.5418 -0.737204C77.9581 -0.723285 76.7548 -0.599673 75.5966 -0.208207C74.4424 0.181909 73.3965 0.816852 72.0972 1.7497L72.6221 2.48079ZM4.17464 93.7623L5.07463 93.7565L5.03236 87.1247L4.13238 87.1304L3.2324 87.1361L3.27466 93.768L4.17464 93.7623ZM4.13238 87.1304L3.23239 87.1349L3.24533 89.7438L4.14532 89.7394L5.04531 89.7349L5.03237 87.1259L4.13238 87.1304ZM4.14532 89.7394L3.24544 89.7537L3.28401 92.1702L4.1839 92.1558L5.08378 92.1415L5.04521 89.725L4.14532 89.7394ZM13.5188 102.036L13.5252 102.936L16.5365 102.914L16.53 102.014L16.5236 101.114L13.5124 101.136L13.5188 102.036ZM65.2185 101.674L65.2276 102.574L67.3417 102.553L67.3326 101.653L67.3235 100.753L65.2093 100.774L65.2185 101.674ZM67.3223 193.184L66.4223 193.184L66.422 194.093L67.322 194.094L68.222 194.094L68.2223 193.185L67.3223 193.184ZM67.322 194.094L66.422 194.093C66.4212 197.02 66.4204 199.946 66.4159 202.872L67.3159 202.873L68.2159 202.874C68.2204 199.947 68.2212 197.02 68.222 194.094L67.322 194.094ZM67.3062 215.56L66.4062 215.557L66.3975 218.803L67.2975 218.805L68.1975 218.808L68.2062 215.562L67.3062 215.56ZM67.2975 218.805L66.3975 218.806L66.4009 221.76L67.3009 221.759L68.2009 221.758L68.1975 218.804L67.2975 218.805ZM81.5656 235.57L81.5815 236.47L83.9723 236.427L83.9564 235.528L83.9405 234.628L81.5497 234.67L81.5656 235.57ZM102.133 235.398L102.14 236.298L104.617 236.278L104.609 235.378L104.602 234.478L102.126 234.498L102.133 235.398ZM104.609 235.378L104.616 236.278L107.026 236.26L107.02 235.36L107.013 234.46L104.603 234.478L104.609 235.378ZM107.02 235.36L107.032 236.26L109.256 236.229L109.243 235.329L109.231 234.43L107.007 234.461L107.02 235.36ZM121.04 224.039L121.94 224.036L121.933 221.47L121.033 221.472L120.133 221.474L120.14 224.041L121.04 224.039ZM120.689 103.443L121.589 103.439L121.582 101.649L120.682 101.653L119.782 101.656L119.789 103.446L120.689 103.443ZM140.945 101.692L140.944 102.592L141.729 102.593L141.73 101.693L141.731 100.793L140.946 100.792L140.945 101.692ZM141.73 101.693L141.729 102.593C144.91 102.596 148.09 102.6 151.27 102.608L151.273 101.708L151.275 100.808C148.093 100.8 144.912 100.796 141.731 100.793L141.73 101.693ZM170.784 101.744L170.784 102.644L172.479 102.643L172.479 101.743L172.479 100.843L170.783 100.844L170.784 101.744ZM172.479 101.743L172.478 102.643C172.668 102.644 172.854 102.644 173.038 102.645L173.041 101.745L173.044 100.845C172.86 100.844 172.672 100.844 172.481 100.843L172.479 101.743ZM173.041 101.745L173.038 102.645C174.969 102.651 176.659 102.661 178.265 102.293C179.912 101.914 181.433 101.15 183.108 99.6876L182.516 99.0098L181.924 98.332C180.444 99.6246 179.185 100.235 177.862 100.538C176.497 100.851 175.028 100.851 173.044 100.845L173.041 101.745ZM184.855 89.2656L183.955 89.2669L183.964 95.9309L184.864 95.9297L185.764 95.9284L185.755 89.2644L184.855 89.2656ZM81.6765 0.139579L81.6667 -0.760367L79.5399 -0.737185L79.5497 0.162761L79.5595 1.06271L81.6863 1.03953L81.6765 0.139579ZM67.9056 10.6974L67.0056 10.7026L67.0217 13.4621L67.9217 13.4568L68.8217 13.4516L68.8056 10.6921L67.9056 10.6974ZM68.1768 58.0727L67.2768 58.0801L67.2929 60.0182L68.1929 60.0108L69.0928 60.0033L69.0768 58.0652L68.1768 58.0727ZM16.1741 59.4663L16.1731 58.5663L14.4062 58.5684L14.4073 59.4684L14.4084 60.3684L16.1752 60.3663L16.1741 59.4663ZM4.00243 66.8885L3.10244 66.8936L3.11468 69.0258L4.01467 69.0206L4.91465 69.0154L4.90242 66.8833L4.00243 66.8885ZM4.01467 69.0206L3.11468 69.0152L3.10002 71.4545L4 71.4599L4.89998 71.4653L4.91465 69.026L4.01467 69.0206ZM4 71.4599L3.10015 71.4762L3.14728 74.0706L4.04713 74.0542L4.94698 74.0379L4.89985 71.4435L4 71.4599ZM184.64 70.3629L185.539 70.3487L185.501 67.8838L184.601 67.898L183.701 67.9121L183.74 70.3771L184.64 70.3629ZM176.092 58.8315L176.086 57.9315L172.989 57.9529L172.995 58.8529L173.001 59.7529L176.098 59.7315L176.092 58.8315ZM122.921 59.1931L122.912 58.2931L120.737 58.3145L120.746 59.2145L120.755 60.1144L122.93 60.093L122.921 59.1931ZM120.785 41.1773L121.685 41.1785L121.686 40.4787L120.786 40.4775L119.886 40.4763L119.885 41.1761L120.785 41.1773ZM120.786 40.4775L121.686 40.4787C121.69 37.6482 121.693 34.8185 121.701 31.9889L120.801 31.9865L119.901 31.9841C119.893 34.8152 119.89 37.6461 119.886 40.4763L120.786 40.4775ZM120.824 19.5569L121.724 19.5602L121.736 16.2072L120.836 16.2039L119.936 16.2006L119.924 19.5535L120.824 19.5569ZM120.836 16.2039L121.736 16.204L121.737 13.1126L120.837 13.1125L119.937 13.1125L119.936 16.2038L120.836 16.2039ZM106.024 0L106.012 -0.899924L103.727 -0.870132L103.739 0.0297918L103.75 0.929715L106.035 0.899924L106.024 0ZM86.3502 0.115571L86.3449 -0.784414L83.976 -0.77066L83.9813 0.129325L83.9865 1.02931L86.3554 1.01556L86.3502 0.115571ZM83.9813 0.129325L83.9772 -0.770666L81.6725 -0.760412L81.6765 0.139579L81.6805 1.03957L83.9853 1.02932L83.9813 0.129325Z" fill="#522F15" fill-opacity="0.25" mask="url(#path-1-inside-1_5223_4917)"/>
</g>
<defs>
<filter id="filter0_d_5223_4917" x="0.4" y="0" width="188.063" height="242.77" filterUnits="userSpaceOnUse" color-interpolation-filters="sRGB">
<feFlood flood-opacity="0" result="BackgroundImageFix"/>
<feColorMatrix in="SourceAlpha" type="matrix" values="0 0 0 0 0 0 0 0 0 0 0 0 0 0 0 0 0 0 127 0" result="hardAlpha"/>
<feOffset dy="3.6"/>
<feGaussianBlur stdDeviation="1.8"/>
<feComposite in2="hardAlpha" operator="out"/>
<feColorMatrix type="matrix" values="0 0 0 0 0 0 0 0 0 0 0 0 0 0 0 0 0 0 0.25 0"/>
<feBlend mode="normal" in2="BackgroundImageFix" result="effect1_dropShadow_5223_4917"/>
<feBlend mode="normal" in="SourceGraphic" in2="effect1_dropShadow_5223_4917" result="shape"/>
</filter>
</defs>
</svg>
