<svg width="609" height="793" viewBox="0 0 609 793" fill="none" xmlns="http://www.w3.org/2000/svg">
<mask id="path-1-inside-1_6493_2946" fill="white">
<path d="M254.383 0.547905L261.544 0.469866L269.304 0.435346L277.281 0.389047C282.861 0.363694 288.441 0.346193 294.022 0.335876C302.537 0.309918 311.05 0.226806 319.564 0.142171C324.986 0.124661 330.407 0.11059 335.829 0.100288L343.523 0C357.614 0.0472907 367.546 1.04907 379.69 9.02121C390.762 21.2874 393.432 27.7949 393.4 44.1408L393.399 54.5473C393.385 58.3097 393.371 62.0721 393.357 65.8345C393.352 69.673 393.348 73.5115 393.345 77.35C393.335 87.4589 393.309 97.5676 393.279 107.676C393.254 117.204 393.242 126.732 393.229 136.26L393.226 138.615C393.197 158.855 393.152 179.095 393.095 199.334L400.417 199.262C423.217 199.047 446.017 198.884 468.818 198.779C480.539 198.723 492.26 198.647 503.981 198.525C515.298 198.409 526.614 198.345 537.931 198.317C542.243 198.297 546.556 198.258 550.867 198.2C556.92 198.122 562.969 198.112 569.022 198.117L579.45 198.045C590.492 199.565 596.288 203.115 604.901 210.056C608.208 216.667 607.994 221.17 608.099 228.565L608.23 236.863C608.349 249.405 608.459 261.947 608.521 274.489C608.565 281.103 608.638 287.717 608.741 294.331C608.817 299.249 608.869 304.166 608.907 309.083C608.926 307.546 608.936 305.86 608.943 304.002C608.936 301.276 608.936 299.641 608.954 300.495V300.496L608.97 311.82C608.97 311.869 608.97 311.918 608.97 311.968C608.993 318.227 609.016 324.381 608.986 322.929C608.967 318.313 608.943 313.698 608.907 309.083C608.728 323.627 607.764 324.846 601.079 333.297C590.459 342.573 582.356 342.547 569.178 342.504L569.084 342.504C568.495 342.502 567.895 342.5 567.284 342.499L561.575 342.5C555.352 342.498 549.129 342.477 542.905 342.456C538.589 342.451 534.272 342.448 529.956 342.445C518.597 342.435 507.239 342.408 495.88 342.379C485.17 342.353 474.46 342.341 463.749 342.329L461.106 342.325C438.364 342.297 415.622 342.251 392.88 342.195L392.902 348.22C393.08 396.609 393.428 476.369 393.512 524.759C393.553 548.16 393.61 571.561 393.702 594.962C393.782 615.359 393.834 635.756 393.852 656.154C393.862 666.953 393.887 677.752 393.946 688.551C394 698.72 394.017 708.889 394.005 719.058C394.007 722.785 394.023 726.513 394.054 730.241C394.094 735.341 394.079 740.442 394.062 745.542L394.085 754.183C392.489 767.163 387.84 775.799 378.182 784.513C369.391 790.597 364.906 792.063 354.363 792.191L346.877 792.295L338.761 792.355L330.424 792.421C324.591 792.458 318.758 792.487 312.926 792.508C304.022 792.554 295.121 792.671 286.218 792.79C280.552 792.817 274.886 792.84 269.22 792.858L261.17 793C245.251 792.95 236.364 791.491 224.187 780.995C214.503 769.978 213.127 760.903 213.14 746.509L213.129 736.566C213.138 732.924 213.148 729.282 213.158 725.64C213.159 721.81 213.158 717.979 213.157 714.149C213.156 703.744 213.172 693.338 213.19 682.933C213.205 673.094 213.208 663.254 213.211 653.415V653.379L213.212 650.318C213.22 629.727 213.242 609.137 213.269 588.547C213.299 565.107 213.314 541.667 213.327 518.227C213.355 470.006 213.187 390.415 213.247 342.195L206.128 342.267C183.959 342.482 161.791 342.645 139.622 342.75C128.225 342.806 116.829 342.882 105.432 343.003C94.4282 343.12 83.425 343.184 72.4203 343.212C68.2279 343.232 64.0356 343.27 59.8436 343.328C53.958 343.406 48.0758 343.417 42.1898 343.412L32.0506 343.484C21.0747 341.939 15.3704 338.386 6.80285 331.473C1.01461 322.792 0.740443 320.264 0.619201 310.225L0.536858 305.068C0.545447 307.486 0.55615 309.904 0.569036 312.323C0.588352 315.272 0.598746 316.952 0.588043 315.632L0.516496 304.403C0.516273 304.37 0.516051 304.336 0.515828 304.303C0.513718 303.987 0.511609 303.67 0.509509 303.355L0.489311 302.09L0.453532 294.878C0.4421 293.097 0.437624 292.307 0.445742 293.308L0.509969 303.384L0.536858 305.068C0.526918 302.269 0.51981 299.47 0.515427 296.672C0.483568 287.017 0.351757 277.366 0.216292 267.712C0.190914 261.571 0.171518 255.43 0.158691 249.289L0 240.556L0.0493789 232.345L0.00818231 225.167C2.48256 214.553 7.11965 209.364 15.0618 202.015C22.5169 200.455 27.6293 199.955 35.0423 200.189L40.9915 200.182C47.4498 200.193 53.9005 200.318 60.3575 200.444C64.8466 200.474 69.3357 200.497 73.8249 200.513C85.6168 200.574 97.4054 200.732 109.196 200.91C121.237 201.075 133.278 201.148 145.32 201.229C168.929 201.402 192.536 201.676 216.143 202.015L216.089 195.49C215.928 175.18 215.805 154.87 215.727 134.559C215.685 124.117 215.628 113.676 215.536 103.235C215.449 93.1543 215.401 83.0744 215.38 72.9937C215.365 69.1518 215.336 65.3099 215.293 61.4682C215.234 56.079 215.231 50.6893 215.23 45.2997L215.176 36.0106C216.665 23.3513 221.615 16.6394 231.057 8.35109C239.656 2.17907 243.978 0.639331 254.383 0.547905Z"/>
</mask>
<path d="M254.383 0.547905L261.544 0.469866L269.304 0.435346L277.281 0.389047C282.861 0.363694 288.441 0.346193 294.022 0.335876C302.537 0.309918 311.05 0.226806 319.564 0.142171C324.986 0.124661 330.407 0.11059 335.829 0.100288L343.523 0C357.614 0.0472907 367.546 1.04907 379.69 9.02121C390.762 21.2874 393.432 27.7949 393.4 44.1408L393.399 54.5473C393.385 58.3097 393.371 62.0721 393.357 65.8345C393.352 69.673 393.348 73.5115 393.345 77.35C393.335 87.4589 393.309 97.5676 393.279 107.676C393.254 117.204 393.242 126.732 393.229 136.26L393.226 138.615C393.197 158.855 393.152 179.095 393.095 199.334L400.417 199.262C423.217 199.047 446.017 198.884 468.818 198.779C480.539 198.723 492.26 198.647 503.981 198.525C515.298 198.409 526.614 198.345 537.931 198.317C542.243 198.297 546.556 198.258 550.867 198.2C556.92 198.122 562.969 198.112 569.022 198.117L579.45 198.045C590.492 199.565 596.288 203.115 604.901 210.056C608.208 216.667 607.994 221.17 608.099 228.565L608.23 236.863C608.349 249.405 608.459 261.947 608.521 274.489C608.565 281.103 608.638 287.717 608.741 294.331C608.817 299.249 608.869 304.166 608.907 309.083C608.926 307.546 608.936 305.86 608.943 304.002C608.936 301.276 608.936 299.641 608.954 300.495V300.496L608.97 311.82C608.97 311.869 608.97 311.918 608.97 311.968C608.993 318.227 609.016 324.381 608.986 322.929C608.967 318.313 608.943 313.698 608.907 309.083C608.728 323.627 607.764 324.846 601.079 333.297C590.459 342.573 582.356 342.547 569.178 342.504L569.084 342.504C568.495 342.502 567.895 342.5 567.284 342.499L561.575 342.5C555.352 342.498 549.129 342.477 542.905 342.456C538.589 342.451 534.272 342.448 529.956 342.445C518.597 342.435 507.239 342.408 495.88 342.379C485.17 342.353 474.46 342.341 463.749 342.329L461.106 342.325C438.364 342.297 415.622 342.251 392.88 342.195L392.902 348.22C393.08 396.609 393.428 476.369 393.512 524.759C393.553 548.16 393.61 571.561 393.702 594.962C393.782 615.359 393.834 635.756 393.852 656.154C393.862 666.953 393.887 677.752 393.946 688.551C394 698.72 394.017 708.889 394.005 719.058C394.007 722.785 394.023 726.513 394.054 730.241C394.094 735.341 394.079 740.442 394.062 745.542L394.085 754.183C392.489 767.163 387.84 775.799 378.182 784.513C369.391 790.597 364.906 792.063 354.363 792.191L346.877 792.295L338.761 792.355L330.424 792.421C324.591 792.458 318.758 792.487 312.926 792.508C304.022 792.554 295.121 792.671 286.218 792.79C280.552 792.817 274.886 792.84 269.22 792.858L261.17 793C245.251 792.95 236.364 791.491 224.187 780.995C214.503 769.978 213.127 760.903 213.14 746.509L213.129 736.566C213.138 732.924 213.148 729.282 213.158 725.64C213.159 721.81 213.158 717.979 213.157 714.149C213.156 703.744 213.172 693.338 213.19 682.933C213.205 673.094 213.208 663.254 213.211 653.415V653.379L213.212 650.318C213.22 629.727 213.242 609.137 213.269 588.547C213.299 565.107 213.314 541.667 213.327 518.227C213.355 470.006 213.187 390.415 213.247 342.195L206.128 342.267C183.959 342.482 161.791 342.645 139.622 342.75C128.225 342.806 116.829 342.882 105.432 343.003C94.4282 343.12 83.425 343.184 72.4203 343.212C68.2279 343.232 64.0356 343.27 59.8436 343.328C53.958 343.406 48.0758 343.417 42.1898 343.412L32.0506 343.484C21.0747 341.939 15.3704 338.386 6.80285 331.473C1.01461 322.792 0.740443 320.264 0.619201 310.225L0.536858 305.068C0.545447 307.486 0.55615 309.904 0.569036 312.323C0.588352 315.272 0.598746 316.952 0.588043 315.632L0.516496 304.403C0.516273 304.37 0.516051 304.336 0.515828 304.303C0.513718 303.987 0.511609 303.67 0.509509 303.355L0.489311 302.09L0.453532 294.878C0.4421 293.097 0.437624 292.307 0.445742 293.308L0.509969 303.384L0.536858 305.068C0.526918 302.269 0.51981 299.47 0.515427 296.672C0.483568 287.017 0.351757 277.366 0.216292 267.712C0.190914 261.571 0.171518 255.43 0.158691 249.289L0 240.556L0.0493789 232.345L0.00818231 225.167C2.48256 214.553 7.11965 209.364 15.0618 202.015C22.5169 200.455 27.6293 199.955 35.0423 200.189L40.9915 200.182C47.4498 200.193 53.9005 200.318 60.3575 200.444C64.8466 200.474 69.3357 200.497 73.8249 200.513C85.6168 200.574 97.4054 200.732 109.196 200.91C121.237 201.075 133.278 201.148 145.32 201.229C168.929 201.402 192.536 201.676 216.143 202.015L216.089 195.49C215.928 175.18 215.805 154.87 215.727 134.559C215.685 124.117 215.628 113.676 215.536 103.235C215.449 93.1543 215.401 83.0744 215.38 72.9937C215.365 69.1518 215.336 65.3099 215.293 61.4682C215.234 56.079 215.231 50.6893 215.23 45.2997L215.176 36.0106C216.665 23.3513 221.615 16.6394 231.057 8.35109C239.656 2.17907 243.978 0.639331 254.383 0.547905Z" fill="#FFFAED"/>
<path d="M608.943 304.002L608.493 304L608.493 304.003L608.943 304.002ZM0.509969 303.384L0.959981 303.381L0.959912 303.377L0.509969 303.384ZM0.509509 303.355L0.0594992 303.358L0.0595661 303.362L0.509509 303.355ZM0.453532 294.878L0.00353675 294.88L0.00354097 294.881L0.453532 294.878ZM0.569036 312.323L1.01903 312.32L1.01903 312.32L0.569036 312.323ZM608.97 311.82L609.42 311.818C609.409 308.991 609.399 306.155 609.393 304L608.943 304.002L608.493 304.003C608.499 306.158 608.509 308.994 608.52 311.821L608.97 311.82ZM608.954 300.496L608.504 300.495C608.501 301.728 608.498 302.895 608.493 304L608.943 304.002L609.393 304.003C609.398 302.897 609.401 301.73 609.404 300.497L608.954 300.496ZM0.509969 303.384L0.959912 303.377L0.959451 303.348L0.509509 303.355L0.0595661 303.362L0.0600266 303.391L0.509969 303.384ZM0.453532 294.878L0.903526 294.876L0.895736 293.305L0.445742 293.308L-0.00425289 293.31L0.00353723 294.88L0.453532 294.878ZM0.453532 294.878L0.00354097 294.881C0.0162143 296.855 0.0374352 300.045 0.0595187 303.358L0.509509 303.355L0.959499 303.352C0.937415 300.039 0.916195 296.849 0.903522 294.875L0.453532 294.878ZM0.516496 304.403L0.0665063 304.406C0.0856172 307.273 0.104769 310.146 0.119046 312.326L0.569036 312.323L1.01903 312.32C1.00475 310.14 0.985597 307.267 0.966486 304.4L0.516496 304.403ZM0.588043 315.632L1.03803 315.63C1.03124 314.527 1.02491 313.423 1.01903 312.32L0.569036 312.323L0.119042 312.325C0.124922 313.428 0.131256 314.532 0.138051 315.635L0.588043 315.632ZM0.515828 304.303L0.965819 304.3L0.95996 303.381L0.509969 303.384L0.0599784 303.387L0.065837 304.306L0.515828 304.303ZM608.97 311.968L608.52 311.968L608.536 322.929L608.986 322.929L609.436 322.928L609.42 311.967L608.97 311.968ZM254.383 0.547905L254.391 1.44787L254.393 1.44785L254.383 0.547905ZM261.544 0.469866L261.54 -0.430143L261.534 -0.43008L261.544 0.469866ZM269.304 0.435346L269.308 1.33534L269.309 1.33533L269.304 0.435346ZM277.281 0.389047L277.276 -0.510945L277.275 -0.510938L277.281 0.389047ZM294.022 0.335876L294.023 1.23588L294.025 1.23587L294.022 0.335876ZM319.564 0.142171L319.561 -0.757845L319.555 -0.757785L319.564 0.142171ZM335.829 0.100288L335.83 1.00034L335.84 1.00021L335.829 0.100288ZM343.523 0L343.526 -0.899995L343.519 -0.90002L343.511 -0.899924L343.523 0ZM379.69 9.02121L380.358 8.41816L380.28 8.33231L380.184 8.26884L379.69 9.02121ZM393.4 44.1408L392.5 44.139L392.5 44.1407L393.4 44.1408ZM393.399 54.5473L394.299 54.5506L394.299 54.5473L393.399 54.5473ZM393.357 65.8345L392.457 65.8311L392.457 65.8333L393.357 65.8345ZM393.345 77.35L394.245 77.3509L394.245 77.3507L393.345 77.35ZM393.279 107.676L392.379 107.674L392.379 107.674L393.279 107.676ZM393.226 138.615L394.126 138.617L394.126 138.617L393.226 138.615ZM393.095 199.334L392.195 199.332L392.193 200.243L393.104 200.234L393.095 199.334ZM400.417 199.262L400.409 198.362L400.408 198.362L400.417 199.262ZM468.818 198.779L468.822 199.679L468.822 199.679L468.818 198.779ZM503.981 198.525L503.971 197.625L503.971 197.625L503.981 198.525ZM537.931 198.317L537.934 199.217L537.936 199.217L537.931 198.317ZM550.867 198.2L550.856 197.301L550.855 197.301L550.867 198.2ZM569.022 198.117L569.021 199.017L569.028 199.017L569.022 198.117ZM579.45 198.045L579.573 197.153L579.508 197.144L579.444 197.145L579.45 198.045ZM604.901 210.056L605.706 209.653L605.618 209.478L605.466 209.355L604.901 210.056ZM608.099 228.565L607.199 228.578L607.199 228.579L608.099 228.565ZM608.23 236.863L609.13 236.855L609.13 236.849L608.23 236.863ZM608.521 274.489L607.621 274.494L607.621 274.495L608.521 274.489ZM608.741 294.331L609.641 294.317L609.641 294.317L608.741 294.331ZM608.986 322.929L608.086 322.932L608.086 322.94L608.086 322.947L608.986 322.929ZM608.97 311.968L609.87 311.964L609.87 311.964L608.97 311.968ZM608.97 311.82L608.07 311.821L608.07 311.823L608.97 311.82ZM608.943 304.002L609.843 304.005L609.843 303.999L608.943 304.002ZM608.954 300.495H609.854V300.486L609.854 300.477L608.954 300.495ZM608.954 300.496L608.054 300.496L608.054 300.497L608.954 300.496ZM601.079 333.297L601.671 333.975L601.733 333.921L601.785 333.856L601.079 333.297ZM567.284 342.499L567.286 341.599L567.284 341.599L567.284 342.499ZM561.575 342.5L561.575 343.4L561.576 343.4L561.575 342.5ZM542.905 342.456L542.908 341.556L542.906 341.556L542.905 342.456ZM529.956 342.445L529.955 343.345L529.955 343.345L529.956 342.445ZM495.88 342.379L495.883 341.479L495.882 341.479L495.88 342.379ZM461.106 342.325L461.105 343.225L461.105 343.225L461.106 342.325ZM392.88 342.195L392.882 341.295L391.976 341.292L391.98 342.198L392.88 342.195ZM392.902 348.22L393.802 348.216L393.802 348.216L392.902 348.22ZM393.512 524.759L392.612 524.76L392.612 524.76L393.512 524.759ZM393.702 594.962L394.602 594.958L394.602 594.958L393.702 594.962ZM393.852 656.154L392.952 656.155L392.952 656.155L393.852 656.154ZM393.946 688.551L394.846 688.547L394.846 688.547L393.946 688.551ZM394.005 719.058L393.105 719.057L393.105 719.058L394.005 719.058ZM394.054 730.241L394.954 730.234L394.954 730.234L394.054 730.241ZM394.062 745.542L393.162 745.539L393.162 745.544L394.062 745.542ZM394.085 754.183L394.978 754.292L394.985 754.237L394.985 754.18L394.085 754.183ZM378.182 784.513L378.694 785.253L378.741 785.22L378.784 785.181L378.182 784.513ZM354.363 792.191L354.352 791.291L354.351 791.291L354.363 792.191ZM346.877 792.295L346.884 793.195L346.889 793.195L346.877 792.295ZM338.761 792.355L338.754 791.455L338.754 791.455L338.761 792.355ZM330.424 792.421L330.43 793.321L330.431 793.321L330.424 792.421ZM312.926 792.508L312.922 791.608L312.921 791.608L312.926 792.508ZM286.218 792.79L286.222 793.69L286.23 793.69L286.218 792.79ZM269.22 792.858L269.218 791.958L269.205 791.958L269.22 792.858ZM261.17 793L261.168 793.9L261.177 793.9L261.186 793.9L261.17 793ZM224.187 780.995L223.511 781.589L223.552 781.636L223.599 781.676L224.187 780.995ZM213.14 746.509L214.04 746.51L214.04 746.508L213.14 746.509ZM213.129 736.566L212.229 736.563L212.229 736.567L213.129 736.566ZM213.158 725.64L214.058 725.643L214.058 725.64L213.158 725.64ZM213.157 714.149L212.257 714.149L212.257 714.149L213.157 714.149ZM213.19 682.933L214.09 682.935L214.09 682.934L213.19 682.933ZM213.212 650.318L212.312 650.317L212.312 650.317L213.212 650.318ZM213.269 588.547L214.169 588.548L214.169 588.548L213.269 588.547ZM213.327 518.227L212.427 518.226L212.427 518.226L213.327 518.227ZM213.247 342.195L214.147 342.196L214.148 341.285L213.238 341.295L213.247 342.195ZM206.128 342.267L206.137 343.167L206.137 343.167L206.128 342.267ZM139.622 342.75L139.617 341.85L139.617 341.85L139.622 342.75ZM105.432 343.003L105.442 343.903L105.442 343.903L105.432 343.003ZM72.4203 343.212L72.418 342.312L72.416 342.312L72.4203 343.212ZM59.8436 343.328L59.8555 344.228L59.856 344.228L59.8436 343.328ZM42.1898 343.412L42.1906 342.512L42.1834 342.512L42.1898 343.412ZM32.0506 343.484L31.9251 344.375L31.9907 344.384L32.057 344.384L32.0506 343.484ZM6.80285 331.473L6.05406 331.972L6.13048 332.087L6.23767 332.173L6.80285 331.473ZM0.619201 310.225L1.51914 310.214L1.51909 310.21L0.619201 310.225ZM0.509969 303.384L-0.390054 303.39L-0.389916 303.398L0.509969 303.384ZM0.509509 303.355L1.40953 303.349L1.40939 303.341L0.509509 303.355ZM0.489311 302.09L-0.410732 302.095L-0.410574 302.105L0.489311 302.09ZM0.453532 294.878L1.35352 294.873L1.35351 294.872L0.453532 294.878ZM0.445742 293.308L1.34572 293.302L1.34571 293.3L0.445742 293.308ZM0.515828 304.303L-0.384152 304.309L-0.384152 304.309L0.515828 304.303ZM0.516496 304.403L1.41648 304.398L1.41648 304.397L0.516496 304.403ZM0.569036 312.323L-0.330952 312.327L-0.330945 312.328L0.569036 312.323ZM0.588043 315.632L-0.31194 315.638L-0.311928 315.64L0.588043 315.632ZM0.515427 296.672L1.41543 296.67L1.41542 296.669L0.515427 296.672ZM0.216292 267.712L-0.683744 267.716L-0.683619 267.725L0.216292 267.712ZM0.158691 249.289L1.05869 249.287L1.05867 249.28L1.05854 249.273L0.158691 249.289ZM0 240.556L-0.899984 240.55L-0.900049 240.561L-0.899851 240.572L0 240.556ZM0.0493789 232.345L0.949425 232.35L0.949364 232.339L0.0493789 232.345ZM0.00818231 225.167L-0.868315 224.963L-0.892412 225.066L-0.891803 225.172L0.00818231 225.167ZM15.0618 202.015L14.8775 201.134L14.6335 201.185L14.4505 201.354L15.0618 202.015ZM35.0423 200.189L35.0139 201.088L35.0286 201.089L35.0434 201.089L35.0423 200.189ZM40.9915 200.182L40.993 199.282L40.9904 199.282L40.9915 200.182ZM60.3575 200.444L60.3399 201.344L60.3515 201.344L60.3575 200.444ZM73.8249 200.513L73.8296 199.613L73.8281 199.613L73.8249 200.513ZM109.196 200.91L109.182 201.81L109.184 201.81L109.196 200.91ZM145.32 201.229L145.326 200.329L145.326 200.329L145.32 201.229ZM216.143 202.015L216.13 202.914L217.051 202.928L217.043 202.007L216.143 202.015ZM216.089 195.49L215.189 195.497L215.189 195.498L216.089 195.49ZM215.727 134.559L216.627 134.555L216.627 134.555L215.727 134.559ZM215.536 103.235L214.637 103.242L214.637 103.243L215.536 103.235ZM215.38 72.9937L216.28 72.9919L216.28 72.9903L215.38 72.9937ZM215.293 61.4682L214.393 61.478L214.393 61.4784L215.293 61.4682ZM215.23 45.2997L216.13 45.2996L216.13 45.2945L215.23 45.2997ZM215.176 36.0106L214.282 35.9055L214.276 35.9605L214.276 36.0158L215.176 36.0106ZM231.057 8.35109L230.532 7.61994L230.496 7.64565L230.463 7.67473L231.057 8.35109ZM213.211 653.379L212.311 653.378V653.379H213.211ZM213.211 653.415L214.111 653.415V653.415H213.211ZM463.749 342.329L463.75 341.429L463.75 341.429L463.749 342.329ZM569.084 342.504L569.081 343.404L569.082 343.404L569.084 342.504ZM569.178 342.504L569.18 341.604L569.18 341.604L569.178 342.504ZM393.229 136.26L394.129 136.261L394.129 136.261L393.229 136.26ZM254.383 0.547905L254.393 1.44785L261.554 1.36981L261.544 0.469866L261.534 -0.43008L254.373 -0.352042L254.383 0.547905ZM261.544 0.469866L261.548 1.36986L269.308 1.33534L269.304 0.435346L269.3 -0.464645L261.54 -0.430125L261.544 0.469866ZM269.304 0.435346L269.309 1.33533L277.286 1.28903L277.281 0.389047L277.275 -0.510938L269.299 -0.464639L269.304 0.435346ZM277.281 0.389047L277.285 1.28904C282.864 1.26369 288.444 1.24619 294.023 1.23587L294.022 0.335876L294.02 -0.564122C288.439 -0.553804 282.858 -0.536301 277.276 -0.510944L277.281 0.389047ZM294.022 0.335876L294.025 1.23587C302.543 1.2099 311.059 1.12676 319.573 1.04213L319.564 0.142171L319.555 -0.757785C311.04 -0.673146 302.53 -0.590067 294.019 -0.56412L294.022 0.335876ZM319.564 0.142171L319.567 1.04217C324.988 1.02466 330.409 1.01059 335.83 1.00029L335.829 0.100288L335.827 -0.79971C330.405 -0.789408 324.983 -0.775335 319.561 -0.757825L319.564 0.142171ZM335.829 0.100288L335.84 1.00021L343.535 0.899924L343.523 0L343.511 -0.899924L335.817 -0.799635L335.829 0.100288ZM343.523 0L343.52 0.899995C357.547 0.947071 367.269 1.94371 379.196 9.77357L379.69 9.02121L380.184 8.26884C367.823 0.154428 357.681 -0.852489 343.526 -0.899995L343.523 0ZM379.69 9.02121L379.022 9.62425C384.536 15.7338 387.884 20.3304 389.871 25.3807C391.857 30.4274 392.515 36.007 392.5 44.139L393.4 44.1408L394.3 44.1425C394.316 35.9287 393.655 30.0817 391.546 24.7216C389.438 19.3651 385.915 14.5748 380.358 8.41816L379.69 9.02121ZM393.4 44.1408L392.5 44.1407L392.499 54.5472L393.399 54.5473L394.299 54.5473L394.3 44.1408L393.4 44.1408ZM393.399 54.5473L392.499 54.544C392.485 58.3064 392.471 62.0687 392.457 65.8311L393.357 65.8345L394.257 65.8379C394.271 62.0754 394.285 58.313 394.299 54.5506L393.399 54.5473ZM393.357 65.8345L392.457 65.8333C392.452 69.672 392.448 73.5107 392.445 77.3494L393.345 77.35L394.245 77.3507C394.248 73.5123 394.252 69.674 394.257 65.8356L393.357 65.8345ZM393.345 77.35L392.445 77.3491C392.435 87.4571 392.409 97.5651 392.379 107.674L393.279 107.676L394.179 107.679C394.209 97.5701 394.235 87.4607 394.245 77.3509L393.345 77.35ZM393.226 138.615L392.326 138.614C392.297 158.853 392.252 179.092 392.195 199.332L393.095 199.334L393.995 199.337C394.052 179.097 394.097 158.857 394.126 138.617L393.226 138.615ZM393.095 199.334L393.104 200.234L400.426 200.162L400.417 199.262L400.408 198.362L393.086 198.434L393.095 199.334ZM400.417 199.262L400.426 200.162C423.224 199.947 446.022 199.784 468.822 199.679L468.818 198.779L468.813 197.879C446.011 197.984 423.21 198.147 400.409 198.362L400.417 199.262ZM468.818 198.779L468.822 199.679C480.544 199.623 492.267 199.547 503.99 199.425L503.981 198.525L503.971 197.625C492.253 197.747 480.534 197.823 468.813 197.879L468.818 198.779ZM503.981 198.525L503.99 199.425C515.304 199.309 526.618 199.245 537.934 199.217L537.931 198.317L537.929 197.417C526.61 197.445 515.291 197.509 503.971 197.625L503.981 198.525ZM537.931 198.317L537.936 199.217C542.25 199.197 546.565 199.158 550.879 199.1L550.867 198.2L550.855 197.301C546.546 197.358 542.237 197.397 537.927 197.417L537.931 198.317ZM550.867 198.2L550.879 199.1C556.925 199.022 562.969 199.012 569.021 199.017L569.022 198.117L569.023 197.217C562.969 197.212 556.914 197.222 550.856 197.301L550.867 198.2ZM569.022 198.117L569.028 199.017L579.456 198.945L579.45 198.045L579.444 197.145L569.016 197.217L569.022 198.117ZM579.45 198.045L579.327 198.936C584.768 199.686 588.881 200.929 592.685 202.823C596.501 204.724 600.042 207.296 604.336 210.757L604.901 210.056L605.466 209.355C601.147 205.874 597.483 203.202 593.487 201.212C589.48 199.216 585.173 197.924 579.573 197.153L579.45 198.045ZM604.901 210.056L604.096 210.459C607.296 216.857 607.093 221.15 607.199 228.578L608.099 228.565L608.999 228.552C608.894 221.189 609.119 216.478 605.706 209.653L604.901 210.056ZM608.099 228.565L607.199 228.579L607.33 236.877L608.23 236.863L609.13 236.849L608.999 228.551L608.099 228.565ZM608.23 236.863L607.33 236.872C607.449 249.413 607.559 261.953 607.621 274.494L608.521 274.489L609.421 274.485C609.359 261.94 609.249 249.397 609.13 236.855L608.23 236.863ZM608.521 274.489L607.621 274.495C607.665 281.112 607.738 287.729 607.841 294.345L608.741 294.331L609.641 294.317C609.538 287.706 609.465 281.095 609.421 274.483L608.521 274.489ZM608.741 294.331L607.841 294.345C607.917 299.26 607.969 304.174 608.007 309.09L608.907 309.083L609.807 309.076C609.769 304.157 609.716 299.238 609.641 294.317L608.741 294.331ZM608.907 309.083L608.007 309.09C608.043 313.703 608.067 318.317 608.086 322.932L608.986 322.929L609.886 322.925C609.867 318.308 609.843 313.692 609.807 309.076L608.907 309.083ZM608.986 322.929L608.086 322.947C608.088 323.037 608.089 323.108 608.091 323.154C608.092 323.165 608.093 323.181 608.094 323.197C608.095 323.205 608.096 323.219 608.097 323.234C608.098 323.241 608.102 323.285 608.114 323.339C608.116 323.348 608.137 323.451 608.198 323.565C608.243 323.641 608.414 323.832 608.552 323.928C608.812 324.025 609.332 323.977 609.548 323.852C609.65 323.759 609.775 323.589 609.809 323.523C609.827 323.483 609.851 323.415 609.859 323.388C609.874 323.337 609.881 323.296 609.883 323.281C609.891 323.227 609.893 323.18 609.893 323.179C609.897 323.109 609.898 322.933 609.899 322.712C609.901 322.238 609.9 321.407 609.898 320.338C609.893 318.198 609.882 315.094 609.87 311.964L608.97 311.968L608.07 311.971C608.082 315.101 608.093 318.203 608.098 320.342C608.1 321.412 608.101 322.238 608.099 322.705C608.099 322.822 608.098 322.915 608.097 322.983C608.096 323.06 608.096 323.086 608.096 323.084C608.096 323.081 608.096 323.075 608.097 323.065C608.097 323.06 608.099 323.035 608.104 323.003C608.107 322.989 608.113 322.949 608.127 322.898C608.135 322.871 608.16 322.804 608.177 322.764C608.211 322.698 608.337 322.528 608.438 322.435C608.654 322.31 609.174 322.262 609.434 322.359C609.572 322.455 609.743 322.646 609.788 322.722C609.849 322.836 609.869 322.938 609.871 322.946C609.883 322.999 609.887 323.041 609.887 323.044C609.888 323.057 609.889 323.066 609.889 323.069C609.89 323.076 609.89 323.079 609.89 323.074C609.889 323.053 609.887 323.002 609.885 322.91L608.986 322.929ZM608.97 311.968L609.87 311.964C609.87 311.94 609.87 311.915 609.87 311.89C609.87 311.866 609.87 311.841 609.87 311.816L608.97 311.82L608.07 311.823C608.07 311.848 608.07 311.872 608.07 311.897C608.07 311.922 608.07 311.946 608.07 311.971L608.97 311.968ZM608.943 304.002L609.843 303.999C609.84 302.636 609.838 301.548 609.839 300.908C609.84 300.58 609.842 300.387 609.844 300.328C609.844 300.322 609.844 300.325 609.843 300.334C609.843 300.337 609.842 300.351 609.84 300.371C609.839 300.38 609.837 300.399 609.832 300.424C609.83 300.434 609.819 300.506 609.785 300.593C609.774 300.622 609.723 300.756 609.6 300.886C609.53 300.953 609.335 301.079 609.209 301.128C609.049 301.162 608.731 301.142 608.584 301.091C608.285 300.96 608.164 300.714 608.149 300.685C608.111 300.612 608.091 300.55 608.084 300.525C608.068 300.47 608.06 300.426 608.058 300.414C608.055 300.395 608.054 300.38 608.053 300.372C608.05 300.347 608.049 300.33 608.05 300.336C608.05 300.351 608.052 300.404 608.054 300.514L608.954 300.495L609.854 300.477C609.852 300.373 609.85 300.29 609.847 300.241C609.847 300.232 609.845 300.203 609.841 300.171C609.84 300.162 609.838 300.145 609.835 300.126C609.833 300.112 609.826 300.067 609.809 300.011C609.801 299.986 609.782 299.924 609.744 299.851C609.728 299.821 609.608 299.576 609.309 299.444C609.161 299.394 608.844 299.374 608.683 299.407C608.557 299.456 608.362 299.583 608.292 299.649C608.169 299.78 608.118 299.913 608.107 299.943C608.073 300.03 608.061 300.103 608.059 300.114C608.055 300.14 608.052 300.161 608.051 300.171C608.048 300.194 608.047 300.212 608.047 300.221C608.045 300.24 608.045 300.258 608.044 300.271C608.041 300.363 608.04 300.589 608.039 300.904C608.038 301.549 608.04 302.641 608.043 304.004L608.943 304.002ZM608.954 300.495H608.054V300.496H608.954H609.854V300.495H608.954ZM608.943 304.002L608.043 303.998C608.036 305.856 608.026 307.539 608.007 309.072L608.907 309.083L609.807 309.094C609.826 307.553 609.836 305.865 609.843 304.005L608.943 304.002ZM608.907 309.083L608.007 309.072C607.918 316.363 607.627 320.16 606.582 323.181C605.543 326.187 603.742 328.48 600.373 332.739L601.079 333.297L601.785 333.856C605.101 329.664 607.125 327.121 608.284 323.769C609.437 320.432 609.718 316.347 609.807 309.094L608.907 309.083ZM567.284 342.499L567.284 341.599L561.575 341.6L561.575 342.5L561.576 343.4L567.285 343.399L567.284 342.499ZM561.575 342.5L561.576 341.6C555.354 341.598 549.132 341.577 542.908 341.556L542.905 342.456L542.902 343.356C549.126 343.377 555.35 343.398 561.575 343.4L561.575 342.5ZM542.905 342.456L542.906 341.556C538.59 341.551 534.273 341.548 529.956 341.545L529.956 342.445L529.955 343.345C534.272 343.348 538.588 343.351 542.904 343.356L542.905 342.456ZM529.956 342.445L529.957 341.545C518.599 341.535 507.241 341.508 495.883 341.479L495.88 342.379L495.878 343.279C507.237 343.308 518.596 343.335 529.955 343.345L529.956 342.445ZM461.106 342.325L461.107 341.425C438.365 341.397 415.624 341.351 392.882 341.295L392.88 342.195L392.877 343.095C415.62 343.151 438.362 343.197 461.105 343.225L461.106 342.325ZM392.88 342.195L391.98 342.198L392.002 348.223L392.902 348.22L393.802 348.216L393.78 342.191L392.88 342.195ZM392.902 348.22L392.002 348.223C392.18 396.614 392.528 476.371 392.612 524.76L393.512 524.759L394.412 524.757C394.328 476.366 393.98 396.605 393.802 348.216L392.902 348.22ZM393.512 524.759L392.612 524.76C392.653 548.162 392.71 571.563 392.802 594.965L393.702 594.962L394.602 594.958C394.51 571.558 394.453 548.158 394.412 524.757L393.512 524.759ZM393.702 594.962L392.802 594.965C392.882 615.362 392.934 635.758 392.952 656.155L393.852 656.154L394.752 656.153C394.734 635.755 394.682 615.356 394.602 594.958L393.702 594.962ZM393.852 656.154L392.952 656.155C392.962 666.955 392.987 677.755 393.046 688.556L393.946 688.551L394.846 688.547C394.787 677.749 394.762 666.952 394.752 656.153L393.852 656.154ZM393.946 688.551L393.046 688.556C393.1 698.723 393.117 708.889 393.105 719.057L394.005 719.058L394.905 719.059C394.917 708.888 394.9 698.718 394.846 688.547L393.946 688.551ZM394.005 719.058L393.105 719.058C393.107 722.788 393.123 726.518 393.154 730.248L394.054 730.241L394.954 730.234C394.923 726.508 394.907 722.783 394.905 719.057L394.005 719.058ZM394.054 730.241L393.154 730.248C393.194 735.343 393.18 740.438 393.162 745.539L394.062 745.542L394.962 745.545C394.979 740.445 394.994 735.34 394.954 730.234L394.054 730.241ZM394.062 745.542L393.162 745.544L393.185 754.185L394.085 754.183L394.985 754.18L394.962 745.54L394.062 745.542ZM394.085 754.183L393.192 754.073C391.623 766.831 387.082 775.271 377.579 783.845L378.182 784.513L378.784 785.181C388.598 776.327 393.355 767.495 394.978 754.292L394.085 754.183ZM378.182 784.513L377.669 783.773C373.3 786.797 370.066 788.626 366.653 789.729C363.241 790.832 359.588 791.228 354.352 791.291L354.363 792.191L354.374 793.091C359.68 793.027 363.542 792.626 367.206 791.442C370.869 790.259 374.273 788.313 378.694 785.253L378.182 784.513ZM354.363 792.191L354.351 791.291L346.864 791.395L346.877 792.295L346.889 793.195L354.376 793.091L354.363 792.191ZM346.877 792.295L346.87 791.395L338.754 791.455L338.761 792.355L338.768 793.255L346.884 793.195L346.877 792.295ZM338.761 792.355L338.754 791.455L330.417 791.521L330.424 792.421L330.431 793.321L338.768 793.255L338.761 792.355ZM330.424 792.421L330.418 791.521C324.586 791.558 318.754 791.587 312.922 791.608L312.926 792.508L312.929 793.408C318.762 793.387 324.596 793.358 330.43 793.321L330.424 792.421ZM312.926 792.508L312.921 791.608C304.013 791.654 295.109 791.772 286.206 791.89L286.218 792.79L286.23 793.69C295.134 793.571 304.031 793.454 312.93 793.408L312.926 792.508ZM286.218 792.79L286.214 791.89C280.548 791.917 274.883 791.94 269.218 791.958L269.22 792.858L269.223 793.758C274.89 793.74 280.556 793.717 286.222 793.69L286.218 792.79ZM269.22 792.858L269.205 791.958L261.155 792.1L261.17 793L261.186 793.9L269.236 793.758L269.22 792.858ZM261.17 793L261.173 792.1C253.227 792.075 247.133 791.696 241.529 790.051C235.946 788.413 230.791 785.499 224.774 780.313L224.187 780.995L223.599 781.676C229.76 786.987 235.137 790.051 241.022 791.778C246.885 793.499 253.194 793.875 261.168 793.9L261.17 793ZM224.187 780.995L224.863 780.401C220.094 774.976 217.403 770.069 215.892 764.771C214.376 759.453 214.034 753.69 214.04 746.51L213.14 746.509L212.24 746.508C212.234 753.722 212.573 759.694 214.162 765.265C215.756 770.858 218.595 775.996 223.511 781.589L224.187 780.995ZM213.14 746.509L214.04 746.508L214.029 736.565L213.129 736.566L212.229 736.567L212.24 746.51L213.14 746.509ZM213.129 736.566L214.029 736.568C214.038 732.926 214.048 729.284 214.058 725.643L213.158 725.64L212.258 725.638C212.248 729.279 212.238 732.921 212.229 736.563L213.129 736.566ZM213.158 725.64L214.058 725.64C214.059 721.81 214.058 717.979 214.057 714.149L213.157 714.149L212.257 714.149C212.258 717.98 212.259 721.81 212.258 725.64L213.158 725.64ZM213.157 714.149L214.057 714.149C214.056 703.744 214.072 693.34 214.09 682.935L213.19 682.933L212.29 682.931C212.272 693.337 212.256 703.743 212.257 714.149L213.157 714.149ZM213.212 650.318L214.112 650.318C214.12 629.728 214.142 609.138 214.169 588.548L213.269 588.547L212.369 588.546C212.342 609.136 212.32 629.726 212.312 650.317L213.212 650.318ZM213.269 588.547L214.169 588.548C214.199 565.107 214.214 541.667 214.227 518.227L213.327 518.227L212.427 518.226C212.414 541.666 212.399 565.106 212.369 588.546L213.269 588.547ZM213.327 518.227L214.227 518.227C214.255 469.998 214.087 390.421 214.147 342.196L213.247 342.195L212.347 342.193C212.287 390.41 212.455 470.014 212.427 518.226L213.327 518.227ZM213.247 342.195L213.238 341.295L206.119 341.367L206.128 342.267L206.137 343.167L213.256 343.095L213.247 342.195ZM206.128 342.267L206.119 341.367C183.952 341.582 161.785 341.745 139.617 341.85L139.622 342.75L139.626 343.65C161.797 343.545 183.967 343.382 206.137 343.167L206.128 342.267ZM139.622 342.75L139.617 341.85C128.219 341.906 116.821 341.982 105.423 342.103L105.432 343.003L105.442 343.903C116.836 343.782 128.23 343.706 139.626 343.65L139.622 342.75ZM105.432 343.003L105.423 342.103C94.4215 342.22 83.4207 342.284 72.418 342.312L72.4203 343.212L72.4226 344.112C83.4292 344.084 94.4349 344.02 105.442 343.903L105.432 343.003ZM72.4203 343.212L72.416 342.312C68.221 342.332 64.0259 342.37 59.8311 342.428L59.8436 343.328L59.856 344.228C64.0453 344.17 68.2349 344.132 72.4245 344.112L72.4203 343.212ZM59.8436 343.328L59.8316 342.428C53.9525 342.506 48.0755 342.517 42.1906 342.512L42.1898 343.412L42.1891 344.312C48.0762 344.317 53.9635 344.306 59.8555 344.228L59.8436 343.328ZM42.1898 343.412L42.1834 342.512L32.0442 342.584L32.0506 343.484L32.057 344.384L42.1962 344.312L42.1898 343.412ZM32.0506 343.484L32.176 342.593C26.7681 341.832 22.6952 340.582 18.9279 338.688C15.1479 336.787 11.6407 334.22 7.36804 330.772L6.80285 331.473L6.23767 332.173C10.5325 335.639 14.1613 338.305 18.1193 340.296C22.0901 342.292 26.3572 343.592 31.9251 344.375L32.0506 343.484ZM6.80285 331.473L7.55164 330.973C4.66909 326.651 3.22191 323.948 2.45444 321.123C1.68234 318.28 1.58001 315.255 1.51914 310.214L0.619201 310.225L-0.280734 310.236C-0.220367 315.234 -0.12499 318.493 0.717369 321.594C1.56436 324.713 3.14838 327.615 6.05406 331.972L6.80285 331.473ZM0.619201 310.225L1.51909 310.21L1.43674 305.054L0.536858 305.068L-0.363027 305.082L-0.280685 310.239L0.619201 310.225ZM0.536858 305.068L1.43674 305.054L1.40985 303.37L0.509969 303.384L-0.389916 303.398L-0.363027 305.082L0.536858 305.068ZM0.509509 303.355L1.40939 303.341L1.3892 302.076L0.489311 302.09L-0.410574 302.105L-0.390377 303.369L0.509509 303.355ZM0.489311 302.09L1.3893 302.086L1.35352 294.873L0.453532 294.878L-0.446457 294.882L-0.410678 302.095L0.489311 302.09ZM0.445742 293.308L1.34571 293.3C1.3437 293.052 1.34243 292.91 1.34184 292.868C1.34178 292.863 1.34166 292.855 1.34145 292.847C1.34139 292.845 1.34125 292.839 1.34098 292.833C1.34085 292.83 1.34056 292.823 1.34002 292.814C1.33974 292.81 1.33897 292.799 1.33846 292.793C1.33757 292.783 1.33457 292.756 1.33224 292.739C1.32584 292.701 1.27082 292.519 1.20031 292.385C0.493625 291.97 -0.364553 292.469 -0.433065 292.657C-0.442438 292.701 -0.452087 292.763 -0.454117 292.782C-0.45507 292.792 -0.456364 292.81 -0.45678 292.816C-0.457934 292.836 -0.458177 292.852 -0.458178 292.852C-0.458475 292.867 -0.458392 292.889 -0.458373 292.897C-0.458302 292.927 -0.458065 292.981 -0.457682 293.054C-0.456145 293.35 -0.452164 293.994 -0.44645 294.884L0.453532 294.878L1.35351 294.872C1.3478 293.982 1.34382 293.34 1.34229 293.045C1.34191 292.971 1.34169 292.92 1.34162 292.893C1.34158 292.873 1.34167 292.877 1.34148 292.887C1.34144 292.889 1.34136 292.893 1.34123 292.897C1.34113 292.9 1.34083 292.91 1.34012 292.922C1.33971 292.928 1.33842 292.945 1.33747 292.956C1.33544 292.975 1.3258 293.037 1.31643 293.081C1.24792 293.269 0.389746 293.767 -0.316937 293.353C-0.387441 293.219 -0.442452 293.037 -0.448848 292.999C-0.451181 292.982 -0.454173 292.955 -0.455054 292.945C-0.455563 292.939 -0.456328 292.928 -0.456604 292.924C-0.457132 292.916 -0.457416 292.909 -0.457531 292.906C-0.457783 292.9 -0.457905 292.895 -0.457936 292.894C-0.458054 292.889 -0.45806 292.888 -0.457985 292.893C-0.457489 292.928 -0.456272 293.063 -0.454229 293.315L0.445742 293.308ZM0.509509 303.355L-0.390471 303.361C-0.388371 303.676 -0.386262 303.993 -0.384152 304.309L0.515828 304.303L1.41581 304.297C1.4137 303.981 1.41159 303.664 1.40949 303.349L0.509509 303.355ZM0.515828 304.303L-0.384152 304.309C-0.384152 304.309 -0.384151 304.309 -0.384151 304.309C-0.38415 304.309 -0.38415 304.309 -0.38415 304.309C-0.384149 304.31 -0.384149 304.31 -0.384148 304.31C-0.384148 304.31 -0.384147 304.31 -0.384147 304.31C-0.384146 304.31 -0.384146 304.31 -0.384146 304.31C-0.384145 304.31 -0.384145 304.31 -0.384144 304.31C-0.384144 304.31 -0.384143 304.31 -0.384143 304.31C-0.384143 304.311 -0.384142 304.311 -0.384142 304.311C-0.384141 304.311 -0.384141 304.311 -0.38414 304.311C-0.38414 304.311 -0.38414 304.311 -0.384139 304.311C-0.384139 304.311 -0.384138 304.311 -0.384138 304.311C-0.384137 304.311 -0.384137 304.311 -0.384136 304.311C-0.384136 304.311 -0.384136 304.312 -0.384135 304.312C-0.384135 304.312 -0.384134 304.312 -0.384134 304.312C-0.384133 304.312 -0.384133 304.312 -0.384133 304.312C-0.384132 304.312 -0.384132 304.312 -0.384131 304.312C-0.384131 304.312 -0.38413 304.312 -0.38413 304.312C-0.38413 304.312 -0.384129 304.313 -0.384129 304.313C-0.384128 304.313 -0.384128 304.313 -0.384127 304.313C-0.384127 304.313 -0.384126 304.313 -0.384126 304.313C-0.384126 304.313 -0.384125 304.313 -0.384125 304.313C-0.384124 304.313 -0.384124 304.313 -0.384123 304.313C-0.384123 304.313 -0.384123 304.314 -0.384122 304.314C-0.384122 304.314 -0.384121 304.314 -0.384121 304.314C-0.38412 304.314 -0.38412 304.314 -0.38412 304.314C-0.384119 304.314 -0.384119 304.314 -0.384118 304.314C-0.384118 304.314 -0.384117 304.314 -0.384117 304.314C-0.384116 304.314 -0.384116 304.314 -0.384116 304.315C-0.384115 304.315 -0.384115 304.315 -0.384114 304.315C-0.384114 304.315 -0.384113 304.315 -0.384113 304.315C-0.384113 304.315 -0.384112 304.315 -0.384112 304.315C-0.384111 304.315 -0.384111 304.315 -0.38411 304.315C-0.38411 304.315 -0.384109 304.315 -0.384109 304.316C-0.384109 304.316 -0.384108 304.316 -0.384108 304.316C-0.384107 304.316 -0.384107 304.316 -0.384106 304.316C-0.384106 304.316 -0.384106 304.316 -0.384105 304.316C-0.384105 304.316 -0.384104 304.316 -0.384104 304.316C-0.384103 304.316 -0.384103 304.316 -0.384103 304.317C-0.384102 304.317 -0.384102 304.317 -0.384101 304.317C-0.384101 304.317 -0.3841 304.317 -0.3841 304.317C-0.384099 304.317 -0.384099 304.317 -0.384099 304.317C-0.384098 304.317 -0.384098 304.317 -0.384097 304.317C-0.384097 304.317 -0.384096 304.317 -0.384096 304.317C-0.384096 304.318 -0.384095 304.318 -0.384095 304.318C-0.384094 304.318 -0.384094 304.318 -0.384093 304.318C-0.384093 304.318 -0.384093 304.318 -0.384092 304.318C-0.384092 304.318 -0.384091 304.318 -0.384091 304.318C-0.38409 304.318 -0.38409 304.318 -0.384089 304.318C-0.384089 304.319 -0.384089 304.319 -0.384088 304.319C-0.384088 304.319 -0.384087 304.319 -0.384087 304.319C-0.384086 304.319 -0.384086 304.319 -0.384086 304.319C-0.384085 304.319 -0.384085 304.319 -0.384084 304.319C-0.384084 304.319 -0.384083 304.319 -0.384083 304.319C-0.384083 304.32 -0.384082 304.32 -0.384082 304.32C-0.384081 304.32 -0.384081 304.32 -0.38408 304.32C-0.38408 304.32 -0.384079 304.32 -0.384079 304.32C-0.384079 304.32 -0.384078 304.32 -0.384078 304.32C-0.384077 304.32 -0.384077 304.32 -0.384076 304.32C-0.384076 304.32 -0.384076 304.321 -0.384075 304.321C-0.384075 304.321 -0.384074 304.321 -0.384074 304.321C-0.384073 304.321 -0.384073 304.321 -0.384073 304.321C-0.384072 304.321 -0.384072 304.321 -0.384071 304.321C-0.384071 304.321 -0.38407 304.321 -0.38407 304.321C-0.384069 304.321 -0.384069 304.322 -0.384069 304.322C-0.384068 304.322 -0.384068 304.322 -0.384067 304.322C-0.384067 304.322 -0.384066 304.322 -0.384066 304.322C-0.384066 304.322 -0.384065 304.322 -0.384065 304.322C-0.384064 304.322 -0.384064 304.322 -0.384063 304.322C-0.384063 304.322 -0.384062 304.323 -0.384062 304.323C-0.384062 304.323 -0.384061 304.323 -0.384061 304.323C-0.38406 304.323 -0.38406 304.323 -0.384059 304.323C-0.384059 304.323 -0.384059 304.323 -0.384058 304.323C-0.384058 304.323 -0.384057 304.323 -0.384057 304.323C-0.384056 304.323 -0.384056 304.323 -0.384056 304.324C-0.384055 304.324 -0.384055 304.324 -0.384054 304.324C-0.384054 304.324 -0.384053 304.324 -0.384053 304.324C-0.384052 304.324 -0.384052 304.324 -0.384052 304.324C-0.384051 304.324 -0.384051 304.324 -0.38405 304.324C-0.38405 304.324 -0.384049 304.324 -0.384049 304.325C-0.384049 304.325 -0.384048 304.325 -0.384048 304.325C-0.384047 304.325 -0.384047 304.325 -0.384046 304.325C-0.384046 304.325 -0.384046 304.325 -0.384045 304.325C-0.384045 304.325 -0.384044 304.325 -0.384044 304.325C-0.384043 304.325 -0.384043 304.325 -0.384042 304.326C-0.384042 304.326 -0.384042 304.326 -0.384041 304.326C-0.384041 304.326 -0.38404 304.326 -0.38404 304.326C-0.384039 304.326 -0.384039 304.326 -0.384039 304.326C-0.384038 304.326 -0.384038 304.326 -0.384037 304.326C-0.384037 304.326 -0.384036 304.326 -0.384036 304.326C-0.384036 304.327 -0.384035 304.327 -0.384035 304.327C-0.384034 304.327 -0.384034 304.327 -0.384033 304.327C-0.384033 304.327 -0.384032 304.327 -0.384032 304.327C-0.384032 304.327 -0.384031 304.327 -0.384031 304.327C-0.38403 304.327 -0.38403 304.327 -0.384029 304.327C-0.384029 304.328 -0.384029 304.328 -0.384028 304.328C-0.384028 304.328 -0.384027 304.328 -0.384027 304.328C-0.384026 304.328 -0.384026 304.328 -0.384026 304.328C-0.384025 304.328 -0.384025 304.328 -0.384024 304.328C-0.384024 304.328 -0.384023 304.328 -0.384023 304.328C-0.384022 304.329 -0.384022 304.329 -0.384022 304.329C-0.384021 304.329 -0.384021 304.329 -0.38402 304.329C-0.38402 304.329 -0.384019 304.329 -0.384019 304.329C-0.384019 304.329 -0.384018 304.329 -0.384018 304.329C-0.384017 304.329 -0.384017 304.329 -0.384016 304.329C-0.384016 304.329 -0.384015 304.33 -0.384015 304.33C-0.384015 304.33 -0.384014 304.33 -0.384014 304.33C-0.384013 304.33 -0.384013 304.33 -0.384012 304.33C-0.384012 304.33 -0.384012 304.33 -0.384011 304.33C-0.384011 304.33 -0.38401 304.33 -0.38401 304.33C-0.384009 304.33 -0.384009 304.331 -0.384009 304.331C-0.384008 304.331 -0.384008 304.331 -0.384007 304.331C-0.384007 304.331 -0.384006 304.331 -0.384006 304.331C-0.384005 304.331 -0.384005 304.331 -0.384005 304.331C-0.384004 304.331 -0.384004 304.331 -0.384003 304.331C-0.384003 304.331 -0.384002 304.332 -0.384002 304.332C-0.384002 304.332 -0.384001 304.332 -0.384001 304.332C-0.384 304.332 -0.384 304.332 -0.383999 304.332C-0.383999 304.332 -0.383999 304.332 -0.383998 304.332C-0.383998 304.332 -0.383997 304.332 -0.383997 304.332C-0.383996 304.332 -0.383996 304.333 -0.383995 304.333C-0.383995 304.333 -0.383995 304.333 -0.383994 304.333C-0.383994 304.333 -0.383993 304.333 -0.383993 304.333C-0.383992 304.333 -0.383992 304.333 -0.383992 304.333C-0.383991 304.333 -0.383991 304.333 -0.38399 304.333C-0.38399 304.333 -0.383989 304.333 -0.383989 304.334C-0.383989 304.334 -0.383988 304.334 -0.383988 304.334C-0.383987 304.334 -0.383987 304.334 -0.383986 304.334C-0.383986 304.334 -0.383985 304.334 -0.383985 304.334C-0.383985 304.334 -0.383984 304.334 -0.383984 304.334C-0.383983 304.334 -0.383983 304.334 -0.383982 304.335C-0.383982 304.335 -0.383982 304.335 -0.383981 304.335C-0.383981 304.335 -0.38398 304.335 -0.38398 304.335C-0.383979 304.335 -0.383979 304.335 -0.383979 304.335C-0.383978 304.335 -0.383978 304.335 -0.383977 304.335C-0.383977 304.335 -0.383976 304.335 -0.383976 304.336C-0.383975 304.336 -0.383975 304.336 -0.383975 304.336C-0.383974 304.336 -0.383974 304.336 -0.383973 304.336C-0.383973 304.336 -0.383972 304.336 -0.383972 304.336C-0.383972 304.336 -0.383971 304.336 -0.383971 304.336C-0.38397 304.336 -0.38397 304.336 -0.383969 304.336C-0.383969 304.337 -0.383969 304.337 -0.383968 304.337C-0.383968 304.337 -0.383967 304.337 -0.383967 304.337C-0.383966 304.337 -0.383966 304.337 -0.383965 304.337C-0.383965 304.337 -0.383965 304.337 -0.383964 304.337C-0.383964 304.337 -0.383963 304.337 -0.383963 304.337C-0.383962 304.338 -0.383962 304.338 -0.383962 304.338C-0.383961 304.338 -0.383961 304.338 -0.38396 304.338C-0.38396 304.338 -0.383959 304.338 -0.383959 304.338C-0.383958 304.338 -0.383958 304.338 -0.383958 304.338C-0.383957 304.338 -0.383957 304.338 -0.383956 304.338C-0.383956 304.339 -0.383955 304.339 -0.383955 304.339C-0.383955 304.339 -0.383954 304.339 -0.383954 304.339C-0.383953 304.339 -0.383953 304.339 -0.383952 304.339C-0.383952 304.339 -0.383952 304.339 -0.383951 304.339C-0.383951 304.339 -0.38395 304.339 -0.38395 304.339C-0.383949 304.339 -0.383949 304.34 -0.383948 304.34C-0.383948 304.34 -0.383948 304.34 -0.383947 304.34C-0.383947 304.34 -0.383946 304.34 -0.383946 304.34C-0.383945 304.34 -0.383945 304.34 -0.383945 304.34C-0.383944 304.34 -0.383944 304.34 -0.383943 304.34C-0.383943 304.34 -0.383942 304.341 -0.383942 304.341C-0.383942 304.341 -0.383941 304.341 -0.383941 304.341C-0.38394 304.341 -0.38394 304.341 -0.383939 304.341C-0.383939 304.341 -0.383938 304.341 -0.383938 304.341C-0.383938 304.341 -0.383937 304.341 -0.383937 304.341C-0.383936 304.341 -0.383936 304.342 -0.383935 304.342C-0.383935 304.342 -0.383935 304.342 -0.383934 304.342C-0.383934 304.342 -0.383933 304.342 -0.383933 304.342C-0.383932 304.342 -0.383932 304.342 -0.383932 304.342C-0.383931 304.342 -0.383931 304.342 -0.38393 304.342C-0.38393 304.342 -0.383929 304.342 -0.383929 304.343C-0.383928 304.343 -0.383928 304.343 -0.383928 304.343C-0.383927 304.343 -0.383927 304.343 -0.383926 304.343C-0.383926 304.343 -0.383925 304.343 -0.383925 304.343C-0.383925 304.343 -0.383924 304.343 -0.383924 304.343C-0.383923 304.343 -0.383923 304.343 -0.383922 304.344C-0.383922 304.344 -0.383922 304.344 -0.383921 304.344C-0.383921 304.344 -0.38392 304.344 -0.38392 304.344C-0.383919 304.344 -0.383919 304.344 -0.383918 304.344C-0.383918 304.344 -0.383918 304.344 -0.383917 304.344C-0.383917 304.344 -0.383916 304.344 -0.383916 304.345C-0.383915 304.345 -0.383915 304.345 -0.383915 304.345C-0.383914 304.345 -0.383914 304.345 -0.383913 304.345C-0.383913 304.345 -0.383912 304.345 -0.383912 304.345C-0.383911 304.345 -0.383911 304.345 -0.383911 304.345C-0.38391 304.345 -0.38391 304.345 -0.383909 304.345C-0.383909 304.346 -0.383908 304.346 -0.383908 304.346C-0.383908 304.346 -0.383907 304.346 -0.383907 304.346C-0.383906 304.346 -0.383906 304.346 -0.383905 304.346C-0.383905 304.346 -0.383905 304.346 -0.383904 304.346C-0.383904 304.346 -0.383903 304.346 -0.383903 304.346C-0.383902 304.347 -0.383902 304.347 -0.383901 304.347C-0.383901 304.347 -0.383901 304.347 -0.3839 304.347C-0.3839 304.347 -0.383899 304.347 -0.383899 304.347C-0.383898 304.347 -0.383898 304.347 -0.383898 304.347C-0.383897 304.347 -0.383897 304.347 -0.383896 304.347C-0.383896 304.348 -0.383895 304.348 -0.383895 304.348C-0.383895 304.348 -0.383894 304.348 -0.383894 304.348C-0.383893 304.348 -0.383893 304.348 -0.383892 304.348C-0.383892 304.348 -0.383891 304.348 -0.383891 304.348C-0.383891 304.348 -0.38389 304.348 -0.38389 304.348C-0.383889 304.348 -0.383889 304.349 -0.383888 304.349C-0.383888 304.349 -0.383888 304.349 -0.383887 304.349C-0.383887 304.349 -0.383886 304.349 -0.383886 304.349C-0.383885 304.349 -0.383885 304.349 -0.383885 304.349C-0.383884 304.349 -0.383884 304.349 -0.383883 304.349C-0.383883 304.349 -0.383882 304.35 -0.383882 304.35C-0.383881 304.35 -0.383881 304.35 -0.383881 304.35C-0.38388 304.35 -0.38388 304.35 -0.383879 304.35C-0.383879 304.35 -0.383878 304.35 -0.383878 304.35C-0.383878 304.35 -0.383877 304.35 -0.383877 304.35C-0.383876 304.35 -0.383876 304.351 -0.383875 304.351C-0.383875 304.351 -0.383875 304.351 -0.383874 304.351C-0.383874 304.351 -0.383873 304.351 -0.383873 304.351C-0.383872 304.351 -0.383872 304.351 -0.383871 304.351C-0.383871 304.351 -0.383871 304.351 -0.38387 304.351C-0.38387 304.351 -0.383869 304.351 -0.383869 304.352C-0.383868 304.352 -0.383868 304.352 -0.383868 304.352C-0.383867 304.352 -0.383867 304.352 -0.383866 304.352C-0.383866 304.352 -0.383865 304.352 -0.383865 304.352C-0.383864 304.352 -0.383864 304.352 -0.383864 304.352C-0.383863 304.352 -0.383863 304.352 -0.383862 304.353C-0.383862 304.353 -0.383861 304.353 -0.383861 304.353C-0.383861 304.353 -0.38386 304.353 -0.38386 304.353C-0.383859 304.353 -0.383859 304.353 -0.383858 304.353C-0.383858 304.353 -0.383858 304.353 -0.383857 304.353C-0.383857 304.353 -0.383856 304.353 -0.383856 304.354C-0.383855 304.354 -0.383855 304.354 -0.383854 304.354C-0.383854 304.354 -0.383854 304.354 -0.383853 304.354C-0.383853 304.354 -0.383852 304.354 -0.383852 304.354C-0.383851 304.354 -0.383851 304.354 -0.383851 304.354C-0.38385 304.354 -0.38385 304.354 -0.383849 304.354C-0.383849 304.355 -0.383848 304.355 -0.383848 304.355C-0.383848 304.355 -0.383847 304.355 -0.383847 304.355C-0.383846 304.355 -0.383846 304.355 -0.383845 304.355C-0.383845 304.355 -0.383844 304.355 -0.383844 304.355C-0.383844 304.355 -0.383843 304.355 -0.383843 304.355C-0.383842 304.356 -0.383842 304.356 -0.383841 304.356C-0.383841 304.356 -0.383841 304.356 -0.38384 304.356C-0.38384 304.356 -0.383839 304.356 -0.383839 304.356C-0.383838 304.356 -0.383838 304.356 -0.383838 304.356C-0.383837 304.356 -0.383837 304.356 -0.383836 304.356C-0.383836 304.357 -0.383835 304.357 -0.383835 304.357C-0.383834 304.357 -0.383834 304.357 -0.383834 304.357C-0.383833 304.357 -0.383833 304.357 -0.383832 304.357C-0.383832 304.357 -0.383831 304.357 -0.383831 304.357C-0.383831 304.357 -0.38383 304.357 -0.38383 304.357C-0.383829 304.357 -0.383829 304.358 -0.383828 304.358C-0.383828 304.358 -0.383828 304.358 -0.383827 304.358C-0.383827 304.358 -0.383826 304.358 -0.383826 304.358C-0.383825 304.358 -0.383825 304.358 -0.383824 304.358C-0.383824 304.358 -0.383824 304.358 -0.383823 304.358C-0.383823 304.358 -0.383822 304.359 -0.383822 304.359C-0.383821 304.359 -0.383821 304.359 -0.383821 304.359C-0.38382 304.359 -0.38382 304.359 -0.383819 304.359C-0.383819 304.359 -0.383818 304.359 -0.383818 304.359C-0.383817 304.359 -0.383817 304.359 -0.383817 304.359C-0.383816 304.359 -0.383816 304.36 -0.383815 304.36C-0.383815 304.36 -0.383814 304.36 -0.383814 304.36C-0.383814 304.36 -0.383813 304.36 -0.383813 304.36C-0.383812 304.36 -0.383812 304.36 -0.383811 304.36C-0.383811 304.36 -0.383811 304.36 -0.38381 304.36C-0.38381 304.36 -0.383809 304.361 -0.383809 304.361C-0.383808 304.361 -0.383808 304.361 -0.383807 304.361C-0.383807 304.361 -0.383807 304.361 -0.383806 304.361C-0.383806 304.361 -0.383805 304.361 -0.383805 304.361C-0.383804 304.361 -0.383804 304.361 -0.383804 304.361C-0.383803 304.361 -0.383803 304.361 -0.383802 304.362C-0.383802 304.362 -0.383801 304.362 -0.383801 304.362C-0.383801 304.362 -0.3838 304.362 -0.3838 304.362C-0.383799 304.362 -0.383799 304.362 -0.383798 304.362C-0.383798 304.362 -0.383797 304.362 -0.383797 304.362C-0.383797 304.362 -0.383796 304.362 -0.383796 304.363C-0.383795 304.363 -0.383795 304.363 -0.383794 304.363C-0.383794 304.363 -0.383794 304.363 -0.383793 304.363C-0.383793 304.363 -0.383792 304.363 -0.383792 304.363C-0.383791 304.363 -0.383791 304.363 -0.383791 304.363C-0.38379 304.363 -0.38379 304.363 -0.383789 304.364C-0.383789 304.364 -0.383788 304.364 -0.383788 304.364C-0.383787 304.364 -0.383787 304.364 -0.383787 304.364C-0.383786 304.364 -0.383786 304.364 -0.383785 304.364C-0.383785 304.364 -0.383784 304.364 -0.383784 304.364C-0.383784 304.364 -0.383783 304.364 -0.383783 304.364C-0.383782 304.365 -0.383782 304.365 -0.383781 304.365C-0.383781 304.365 -0.383781 304.365 -0.38378 304.365C-0.38378 304.365 -0.383779 304.365 -0.383779 304.365C-0.383778 304.365 -0.383778 304.365 -0.383777 304.365C-0.383777 304.365 -0.383777 304.365 -0.383776 304.365C-0.383776 304.366 -0.383775 304.366 -0.383775 304.366C-0.383774 304.366 -0.383774 304.366 -0.383774 304.366C-0.383773 304.366 -0.383773 304.366 -0.383772 304.366C-0.383772 304.366 -0.383771 304.366 -0.383771 304.366C-0.383771 304.366 -0.38377 304.366 -0.38377 304.366C-0.383769 304.367 -0.383769 304.367 -0.383768 304.367C-0.383768 304.367 -0.383767 304.367 -0.383767 304.367C-0.383767 304.367 -0.383766 304.367 -0.383766 304.367C-0.383765 304.367 -0.383765 304.367 -0.383764 304.367C-0.383764 304.367 -0.383764 304.367 -0.383763 304.367C-0.383763 304.367 -0.383762 304.368 -0.383762 304.368C-0.383761 304.368 -0.383761 304.368 -0.38376 304.368C-0.38376 304.368 -0.38376 304.368 -0.383759 304.368C-0.383759 304.368 -0.383758 304.368 -0.383758 304.368C-0.383757 304.368 -0.383757 304.368 -0.383757 304.368C-0.383756 304.368 -0.383756 304.369 -0.383755 304.369C-0.383755 304.369 -0.383754 304.369 -0.383754 304.369C-0.383754 304.369 -0.383753 304.369 -0.383753 304.369C-0.383752 304.369 -0.383752 304.369 -0.383751 304.369C-0.383751 304.369 -0.38375 304.369 -0.38375 304.369C-0.38375 304.369 -0.383749 304.37 -0.383749 304.37C-0.383748 304.37 -0.383748 304.37 -0.383747 304.37C-0.383747 304.37 -0.383747 304.37 -0.383746 304.37C-0.383746 304.37 -0.383745 304.37 -0.383745 304.37C-0.383744 304.37 -0.383744 304.37 -0.383744 304.37C-0.383743 304.37 -0.383743 304.37 -0.383742 304.371C-0.383742 304.371 -0.383741 304.371 -0.383741 304.371C-0.38374 304.371 -0.38374 304.371 -0.38374 304.371C-0.383739 304.371 -0.383739 304.371 -0.383738 304.371C-0.383738 304.371 -0.383737 304.371 -0.383737 304.371C-0.383737 304.371 -0.383736 304.371 -0.383736 304.372C-0.383735 304.372 -0.383735 304.372 -0.383734 304.372C-0.383734 304.372 -0.383734 304.372 -0.383733 304.372C-0.383733 304.372 -0.383732 304.372 -0.383732 304.372C-0.383731 304.372 -0.383731 304.372 -0.38373 304.372C-0.38373 304.372 -0.38373 304.372 -0.383729 304.373C-0.383729 304.373 -0.383728 304.373 -0.383728 304.373C-0.383727 304.373 -0.383727 304.373 -0.383727 304.373C-0.383726 304.373 -0.383726 304.373 -0.383725 304.373C-0.383725 304.373 -0.383724 304.373 -0.383724 304.373C-0.383724 304.373 -0.383723 304.373 -0.383723 304.373C-0.383722 304.374 -0.383722 304.374 -0.383721 304.374C-0.383721 304.374 -0.38372 304.374 -0.38372 304.374C-0.38372 304.374 -0.383719 304.374 -0.383719 304.374C-0.383718 304.374 -0.383718 304.374 -0.383717 304.374C-0.383717 304.374 -0.383717 304.374 -0.383716 304.374C-0.383716 304.375 -0.383715 304.375 -0.383715 304.375C-0.383714 304.375 -0.383714 304.375 -0.383713 304.375C-0.383713 304.375 -0.383713 304.375 -0.383712 304.375C-0.383712 304.375 -0.383711 304.375 -0.383711 304.375C-0.38371 304.375 -0.38371 304.375 -0.38371 304.375C-0.383709 304.376 -0.383709 304.376 -0.383708 304.376C-0.383708 304.376 -0.383707 304.376 -0.383707 304.376C-0.383707 304.376 -0.383706 304.376 -0.383706 304.376C-0.383705 304.376 -0.383705 304.376 -0.383704 304.376C-0.383704 304.376 -0.383703 304.376 -0.383703 304.376C-0.383703 304.376 -0.383702 304.377 -0.383702 304.377C-0.383701 304.377 -0.383701 304.377 -0.3837 304.377C-0.3837 304.377 -0.3837 304.377 -0.383699 304.377C-0.383699 304.377 -0.383698 304.377 -0.383698 304.377C-0.383697 304.377 -0.383697 304.377 -0.383697 304.377C-0.383696 304.377 -0.383696 304.378 -0.383695 304.378C-0.383695 304.378 -0.383694 304.378 -0.383694 304.378C-0.383693 304.378 -0.383693 304.378 -0.383693 304.378C-0.383692 304.378 -0.383692 304.378 -0.383691 304.378C-0.383691 304.378 -0.38369 304.378 -0.38369 304.378C-0.38369 304.378 -0.383689 304.379 -0.383689 304.379C-0.383688 304.379 -0.383688 304.379 -0.383687 304.379C-0.383687 304.379 -0.383687 304.379 -0.383686 304.379C-0.383686 304.379 -0.383685 304.379 -0.383685 304.379C-0.383684 304.379 -0.383684 304.379 -0.383683 304.379C-0.383683 304.379 -0.383683 304.379 -0.383682 304.38C-0.383682 304.38 -0.383681 304.38 -0.383681 304.38C-0.38368 304.38 -0.38368 304.38 -0.38368 304.38C-0.383679 304.38 -0.383679 304.38 -0.383678 304.38C-0.383678 304.38 -0.383677 304.38 -0.383677 304.38C-0.383677 304.38 -0.383676 304.38 -0.383676 304.381C-0.383675 304.381 -0.383675 304.381 -0.383674 304.381C-0.383674 304.381 -0.383673 304.381 -0.383673 304.381C-0.383673 304.381 -0.383672 304.381 -0.383672 304.381C-0.383671 304.381 -0.383671 304.381 -0.38367 304.381C-0.38367 304.381 -0.38367 304.381 -0.383669 304.382C-0.383669 304.382 -0.383668 304.382 -0.383668 304.382C-0.383667 304.382 -0.383667 304.382 -0.383666 304.382C-0.383666 304.382 -0.383666 304.382 -0.383665 304.382C-0.383665 304.382 -0.383664 304.382 -0.383664 304.382C-0.383663 304.382 -0.383663 304.382 -0.383663 304.382C-0.383662 304.383 -0.383662 304.383 -0.383661 304.383C-0.383661 304.383 -0.38366 304.383 -0.38366 304.383C-0.38366 304.383 -0.383659 304.383 -0.383659 304.383C-0.383658 304.383 -0.383658 304.383 -0.383657 304.383C-0.383657 304.383 -0.383656 304.383 -0.383656 304.383C-0.383656 304.384 -0.383655 304.384 -0.383655 304.384C-0.383654 304.384 -0.383654 304.384 -0.383653 304.384C-0.383653 304.384 -0.383653 304.384 -0.383652 304.384C-0.383652 304.384 -0.383651 304.384 -0.383651 304.384C-0.38365 304.384 -0.38365 304.384 -0.38365 304.384C-0.383649 304.385 -0.383649 304.385 -0.383648 304.385C-0.383648 304.385 -0.383647 304.385 -0.383647 304.385C-0.383646 304.385 -0.383646 304.385 -0.383646 304.385C-0.383645 304.385 -0.383645 304.385 -0.383644 304.385C-0.383644 304.385 -0.383643 304.385 -0.383643 304.385C-0.383643 304.385 -0.383642 304.386 -0.383642 304.386C-0.383641 304.386 -0.383641 304.386 -0.38364 304.386C-0.38364 304.386 -0.38364 304.386 -0.383639 304.386C-0.383639 304.386 -0.383638 304.386 -0.383638 304.386C-0.383637 304.386 -0.383637 304.386 -0.383636 304.386C-0.383636 304.386 -0.383636 304.387 -0.383635 304.387C-0.383635 304.387 -0.383634 304.387 -0.383634 304.387C-0.383633 304.387 -0.383633 304.387 -0.383633 304.387C-0.383632 304.387 -0.383632 304.387 -0.383631 304.387C-0.383631 304.387 -0.38363 304.387 -0.38363 304.387C-0.38363 304.387 -0.383629 304.388 -0.383629 304.388C-0.383628 304.388 -0.383628 304.388 -0.383627 304.388C-0.383627 304.388 -0.383626 304.388 -0.383626 304.388C-0.383626 304.388 -0.383625 304.388 -0.383625 304.388C-0.383624 304.388 -0.383624 304.388 -0.383623 304.388C-0.383623 304.388 -0.383623 304.389 -0.383622 304.389C-0.383622 304.389 -0.383621 304.389 -0.383621 304.389C-0.38362 304.389 -0.38362 304.389 -0.38362 304.389C-0.383619 304.389 -0.383619 304.389 -0.383618 304.389C-0.383618 304.389 -0.383617 304.389 -0.383617 304.389C-0.383616 304.389 -0.383616 304.389 -0.383616 304.39C-0.383615 304.39 -0.383615 304.39 -0.383614 304.39C-0.383614 304.39 -0.383613 304.39 -0.383613 304.39C-0.383613 304.39 -0.383612 304.39 -0.383612 304.39C-0.383611 304.39 -0.383611 304.39 -0.38361 304.39C-0.38361 304.39 -0.383609 304.39 -0.383609 304.391C-0.383609 304.391 -0.383608 304.391 -0.383608 304.391C-0.383607 304.391 -0.383607 304.391 -0.383606 304.391C-0.383606 304.391 -0.383606 304.391 -0.383605 304.391C-0.383605 304.391 -0.383604 304.391 -0.383604 304.391C-0.383603 304.391 -0.383603 304.391 -0.383603 304.392C-0.383602 304.392 -0.383602 304.392 -0.383601 304.392C-0.383601 304.392 -0.3836 304.392 -0.3836 304.392C-0.383599 304.392 -0.383599 304.392 -0.383599 304.392C-0.383598 304.392 -0.383598 304.392 -0.383597 304.392C-0.383597 304.392 -0.383596 304.392 -0.383596 304.392C-0.383596 304.393 -0.383595 304.393 -0.383595 304.393C-0.383594 304.393 -0.383594 304.393 -0.383593 304.393C-0.383593 304.393 -0.383593 304.393 -0.383592 304.393C-0.383592 304.393 -0.383591 304.393 -0.383591 304.393C-0.38359 304.393 -0.38359 304.393 -0.383589 304.393C-0.383589 304.394 -0.383589 304.394 -0.383588 304.394C-0.383588 304.394 -0.383587 304.394 -0.383587 304.394C-0.383586 304.394 -0.383586 304.394 -0.383586 304.394C-0.383585 304.394 -0.383585 304.394 -0.383584 304.394C-0.383584 304.394 -0.383583 304.394 -0.383583 304.394C-0.383583 304.395 -0.383582 304.395 -0.383582 304.395C-0.383581 304.395 -0.383581 304.395 -0.38358 304.395C-0.38358 304.395 -0.383579 304.395 -0.383579 304.395C-0.383579 304.395 -0.383578 304.395 -0.383578 304.395C-0.383577 304.395 -0.383577 304.395 -0.383576 304.395C-0.383576 304.395 -0.383576 304.396 -0.383575 304.396C-0.383575 304.396 -0.383574 304.396 -0.383574 304.396C-0.383573 304.396 -0.383573 304.396 -0.383573 304.396C-0.383572 304.396 -0.383572 304.396 -0.383571 304.396C-0.383571 304.396 -0.38357 304.396 -0.38357 304.396C-0.383569 304.396 -0.383569 304.397 -0.383569 304.397C-0.383568 304.397 -0.383568 304.397 -0.383567 304.397C-0.383567 304.397 -0.383566 304.397 -0.383566 304.397C-0.383566 304.397 -0.383565 304.397 -0.383565 304.397C-0.383564 304.397 -0.383564 304.397 -0.383563 304.397C-0.383563 304.397 -0.383562 304.398 -0.383562 304.398C-0.383562 304.398 -0.383561 304.398 -0.383561 304.398C-0.38356 304.398 -0.38356 304.398 -0.383559 304.398C-0.383559 304.398 -0.383559 304.398 -0.383558 304.398C-0.383558 304.398 -0.383557 304.398 -0.383557 304.398C-0.383556 304.398 -0.383556 304.398 -0.383556 304.399C-0.383555 304.399 -0.383555 304.399 -0.383554 304.399C-0.383554 304.399 -0.383553 304.399 -0.383553 304.399C-0.383552 304.399 -0.383552 304.399 -0.383552 304.399C-0.383551 304.399 -0.383551 304.399 -0.38355 304.399C-0.38355 304.399 -0.383549 304.399 -0.383549 304.4C-0.383549 304.4 -0.383548 304.4 -0.383548 304.4C-0.383547 304.4 -0.383547 304.4 -0.383546 304.4C-0.383546 304.4 -0.383546 304.4 -0.383545 304.4C-0.383545 304.4 -0.383544 304.4 -0.383544 304.4C-0.383543 304.4 -0.383543 304.4 -0.383542 304.401C-0.383542 304.401 -0.383542 304.401 -0.383541 304.401C-0.383541 304.401 -0.38354 304.401 -0.38354 304.401C-0.383539 304.401 -0.383539 304.401 -0.383539 304.401C-0.383538 304.401 -0.383538 304.401 -0.383537 304.401C-0.383537 304.401 -0.383536 304.401 -0.383536 304.401C-0.383536 304.402 -0.383535 304.402 -0.383535 304.402C-0.383534 304.402 -0.383534 304.402 -0.383533 304.402C-0.383533 304.402 -0.383532 304.402 -0.383532 304.402C-0.383532 304.402 -0.383531 304.402 -0.383531 304.402C-0.38353 304.402 -0.38353 304.402 -0.383529 304.402C-0.383529 304.403 -0.383529 304.403 -0.383528 304.403C-0.383528 304.403 -0.383527 304.403 -0.383527 304.403C-0.383526 304.403 -0.383526 304.403 -0.383526 304.403C-0.383525 304.403 -0.383525 304.403 -0.383524 304.403C-0.383524 304.403 -0.383523 304.403 -0.383523 304.403C-0.383522 304.404 -0.383522 304.404 -0.383522 304.404C-0.383521 304.404 -0.383521 304.404 -0.38352 304.404C-0.38352 304.404 -0.383519 304.404 -0.383519 304.404C-0.383519 304.404 -0.383518 304.404 -0.383518 304.404C-0.383517 304.404 -0.383517 304.404 -0.383516 304.404C-0.383516 304.404 -0.383515 304.405 -0.383515 304.405C-0.383515 304.405 -0.383514 304.405 -0.383514 304.405C-0.383513 304.405 -0.383513 304.405 -0.383512 304.405C-0.383512 304.405 -0.383512 304.405 -0.383511 304.405C-0.383511 304.405 -0.38351 304.405 -0.38351 304.405C-0.383509 304.405 -0.383509 304.406 -0.383509 304.406C-0.383508 304.406 -0.383508 304.406 -0.383507 304.406C-0.383507 304.406 -0.383506 304.406 -0.383506 304.406C-0.383505 304.406 -0.383505 304.406 -0.383505 304.406C-0.383504 304.406 -0.383504 304.406 -0.383503 304.406C-0.383503 304.406 -0.383502 304.407 -0.383502 304.407C-0.383502 304.407 -0.383501 304.407 -0.383501 304.407C-0.3835 304.407 -0.3835 304.407 -0.383499 304.407C-0.383499 304.407 -0.383499 304.407 -0.383498 304.407C-0.383498 304.407 -0.383497 304.407 -0.383497 304.407C-0.383496 304.407 -0.383496 304.407 -0.383495 304.408C-0.383495 304.408 -0.383495 304.408 -0.383494 304.408C-0.383494 304.408 -0.383493 304.408 -0.383493 304.408C-0.383492 304.408 -0.383492 304.408 -0.383492 304.408C-0.383491 304.408 -0.383491 304.408 -0.38349 304.408C-0.38349 304.408 -0.383489 304.408 -0.383489 304.409C-0.383489 304.409 -0.383488 304.409 -0.383488 304.409C-0.383487 304.409 -0.383487 304.409 -0.383486 304.409C-0.383486 304.409 -0.383485 304.409 -0.383485 304.409C-0.383485 304.409 -0.383484 304.409 -0.383484 304.409L0.516496 304.403L1.41648 304.397C1.41648 304.397 1.41648 304.397 1.41647 304.397C1.41647 304.397 1.41647 304.397 1.41647 304.397C1.41647 304.397 1.41647 304.397 1.41647 304.397C1.41647 304.397 1.41647 304.397 1.41647 304.397C1.41647 304.396 1.41647 304.396 1.41647 304.396C1.41647 304.396 1.41647 304.396 1.41647 304.396C1.41647 304.396 1.41647 304.396 1.41647 304.396C1.41647 304.396 1.41647 304.396 1.41647 304.396C1.41647 304.396 1.41646 304.396 1.41646 304.396C1.41646 304.395 1.41646 304.395 1.41646 304.395C1.41646 304.395 1.41646 304.395 1.41646 304.395C1.41646 304.395 1.41646 304.395 1.41646 304.395C1.41646 304.395 1.41646 304.395 1.41646 304.395C1.41646 304.395 1.41646 304.395 1.41646 304.395C1.41646 304.395 1.41646 304.394 1.41646 304.394C1.41646 304.394 1.41646 304.394 1.41646 304.394C1.41645 304.394 1.41645 304.394 1.41645 304.394C1.41645 304.394 1.41645 304.394 1.41645 304.394C1.41645 304.394 1.41645 304.394 1.41645 304.394C1.41645 304.394 1.41645 304.393 1.41645 304.393C1.41645 304.393 1.41645 304.393 1.41645 304.393C1.41645 304.393 1.41645 304.393 1.41645 304.393C1.41645 304.393 1.41645 304.393 1.41645 304.393C1.41645 304.393 1.41645 304.393 1.41644 304.393C1.41644 304.393 1.41644 304.392 1.41644 304.392C1.41644 304.392 1.41644 304.392 1.41644 304.392C1.41644 304.392 1.41644 304.392 1.41644 304.392C1.41644 304.392 1.41644 304.392 1.41644 304.392C1.41644 304.392 1.41644 304.392 1.41644 304.392C1.41644 304.392 1.41644 304.392 1.41644 304.391C1.41644 304.391 1.41644 304.391 1.41644 304.391C1.41644 304.391 1.41643 304.391 1.41643 304.391C1.41643 304.391 1.41643 304.391 1.41643 304.391C1.41643 304.391 1.41643 304.391 1.41643 304.391C1.41643 304.391 1.41643 304.391 1.41643 304.39C1.41643 304.39 1.41643 304.39 1.41643 304.39C1.41643 304.39 1.41643 304.39 1.41643 304.39C1.41643 304.39 1.41643 304.39 1.41643 304.39C1.41643 304.39 1.41643 304.39 1.41643 304.39C1.41642 304.39 1.41642 304.39 1.41642 304.389C1.41642 304.389 1.41642 304.389 1.41642 304.389C1.41642 304.389 1.41642 304.389 1.41642 304.389C1.41642 304.389 1.41642 304.389 1.41642 304.389C1.41642 304.389 1.41642 304.389 1.41642 304.389C1.41642 304.389 1.41642 304.389 1.41642 304.389C1.41642 304.388 1.41642 304.388 1.41642 304.388C1.41642 304.388 1.41642 304.388 1.41641 304.388C1.41641 304.388 1.41641 304.388 1.41641 304.388C1.41641 304.388 1.41641 304.388 1.41641 304.388C1.41641 304.388 1.41641 304.388 1.41641 304.388C1.41641 304.387 1.41641 304.387 1.41641 304.387C1.41641 304.387 1.41641 304.387 1.41641 304.387C1.41641 304.387 1.41641 304.387 1.41641 304.387C1.41641 304.387 1.41641 304.387 1.41641 304.387C1.41641 304.387 1.4164 304.387 1.4164 304.387C1.4164 304.386 1.4164 304.386 1.4164 304.386C1.4164 304.386 1.4164 304.386 1.4164 304.386C1.4164 304.386 1.4164 304.386 1.4164 304.386C1.4164 304.386 1.4164 304.386 1.4164 304.386C1.4164 304.386 1.4164 304.386 1.4164 304.386C1.4164 304.386 1.4164 304.385 1.4164 304.385C1.4164 304.385 1.4164 304.385 1.4164 304.385C1.41639 304.385 1.41639 304.385 1.41639 304.385C1.41639 304.385 1.41639 304.385 1.41639 304.385C1.41639 304.385 1.41639 304.385 1.41639 304.385C1.41639 304.385 1.41639 304.384 1.41639 304.384C1.41639 304.384 1.41639 304.384 1.41639 304.384C1.41639 304.384 1.41639 304.384 1.41639 304.384C1.41639 304.384 1.41639 304.384 1.41639 304.384C1.41639 304.384 1.41639 304.384 1.41638 304.384C1.41638 304.384 1.41638 304.383 1.41638 304.383C1.41638 304.383 1.41638 304.383 1.41638 304.383C1.41638 304.383 1.41638 304.383 1.41638 304.383C1.41638 304.383 1.41638 304.383 1.41638 304.383C1.41638 304.383 1.41638 304.383 1.41638 304.383C1.41638 304.383 1.41638 304.383 1.41638 304.382C1.41638 304.382 1.41638 304.382 1.41638 304.382C1.41638 304.382 1.41637 304.382 1.41637 304.382C1.41637 304.382 1.41637 304.382 1.41637 304.382C1.41637 304.382 1.41637 304.382 1.41637 304.382C1.41637 304.382 1.41637 304.382 1.41637 304.381C1.41637 304.381 1.41637 304.381 1.41637 304.381C1.41637 304.381 1.41637 304.381 1.41637 304.381C1.41637 304.381 1.41637 304.381 1.41637 304.381C1.41637 304.381 1.41637 304.381 1.41637 304.381C1.41636 304.381 1.41636 304.381 1.41636 304.38C1.41636 304.38 1.41636 304.38 1.41636 304.38C1.41636 304.38 1.41636 304.38 1.41636 304.38C1.41636 304.38 1.41636 304.38 1.41636 304.38C1.41636 304.38 1.41636 304.38 1.41636 304.38C1.41636 304.38 1.41636 304.38 1.41636 304.38C1.41636 304.379 1.41636 304.379 1.41636 304.379C1.41636 304.379 1.41636 304.379 1.41635 304.379C1.41635 304.379 1.41635 304.379 1.41635 304.379C1.41635 304.379 1.41635 304.379 1.41635 304.379C1.41635 304.379 1.41635 304.379 1.41635 304.379C1.41635 304.378 1.41635 304.378 1.41635 304.378C1.41635 304.378 1.41635 304.378 1.41635 304.378C1.41635 304.378 1.41635 304.378 1.41635 304.378C1.41635 304.378 1.41635 304.378 1.41635 304.378C1.41635 304.378 1.41634 304.378 1.41634 304.378C1.41634 304.377 1.41634 304.377 1.41634 304.377C1.41634 304.377 1.41634 304.377 1.41634 304.377C1.41634 304.377 1.41634 304.377 1.41634 304.377C1.41634 304.377 1.41634 304.377 1.41634 304.377C1.41634 304.377 1.41634 304.377 1.41634 304.377C1.41634 304.376 1.41634 304.376 1.41634 304.376C1.41634 304.376 1.41634 304.376 1.41634 304.376C1.41633 304.376 1.41633 304.376 1.41633 304.376C1.41633 304.376 1.41633 304.376 1.41633 304.376C1.41633 304.376 1.41633 304.376 1.41633 304.376C1.41633 304.376 1.41633 304.375 1.41633 304.375C1.41633 304.375 1.41633 304.375 1.41633 304.375C1.41633 304.375 1.41633 304.375 1.41633 304.375C1.41633 304.375 1.41633 304.375 1.41633 304.375C1.41633 304.375 1.41633 304.375 1.41632 304.375C1.41632 304.375 1.41632 304.374 1.41632 304.374C1.41632 304.374 1.41632 304.374 1.41632 304.374C1.41632 304.374 1.41632 304.374 1.41632 304.374C1.41632 304.374 1.41632 304.374 1.41632 304.374C1.41632 304.374 1.41632 304.374 1.41632 304.374C1.41632 304.374 1.41632 304.373 1.41632 304.373C1.41632 304.373 1.41632 304.373 1.41632 304.373C1.41632 304.373 1.41631 304.373 1.41631 304.373C1.41631 304.373 1.41631 304.373 1.41631 304.373C1.41631 304.373 1.41631 304.373 1.41631 304.373C1.41631 304.373 1.41631 304.373 1.41631 304.372C1.41631 304.372 1.41631 304.372 1.41631 304.372C1.41631 304.372 1.41631 304.372 1.41631 304.372C1.41631 304.372 1.41631 304.372 1.41631 304.372C1.41631 304.372 1.41631 304.372 1.41631 304.372C1.4163 304.372 1.4163 304.372 1.4163 304.371C1.4163 304.371 1.4163 304.371 1.4163 304.371C1.4163 304.371 1.4163 304.371 1.4163 304.371C1.4163 304.371 1.4163 304.371 1.4163 304.371C1.4163 304.371 1.4163 304.371 1.4163 304.371C1.4163 304.371 1.4163 304.371 1.4163 304.37C1.4163 304.37 1.4163 304.37 1.4163 304.37C1.4163 304.37 1.4163 304.37 1.41629 304.37C1.41629 304.37 1.41629 304.37 1.41629 304.37C1.41629 304.37 1.41629 304.37 1.41629 304.37C1.41629 304.37 1.41629 304.37 1.41629 304.37C1.41629 304.369 1.41629 304.369 1.41629 304.369C1.41629 304.369 1.41629 304.369 1.41629 304.369C1.41629 304.369 1.41629 304.369 1.41629 304.369C1.41629 304.369 1.41629 304.369 1.41629 304.369C1.41629 304.369 1.41628 304.369 1.41628 304.369C1.41628 304.368 1.41628 304.368 1.41628 304.368C1.41628 304.368 1.41628 304.368 1.41628 304.368C1.41628 304.368 1.41628 304.368 1.41628 304.368C1.41628 304.368 1.41628 304.368 1.41628 304.368C1.41628 304.368 1.41628 304.368 1.41628 304.368C1.41628 304.367 1.41628 304.367 1.41628 304.367C1.41628 304.367 1.41628 304.367 1.41628 304.367C1.41627 304.367 1.41627 304.367 1.41627 304.367C1.41627 304.367 1.41627 304.367 1.41627 304.367C1.41627 304.367 1.41627 304.367 1.41627 304.367C1.41627 304.367 1.41627 304.366 1.41627 304.366C1.41627 304.366 1.41627 304.366 1.41627 304.366C1.41627 304.366 1.41627 304.366 1.41627 304.366C1.41627 304.366 1.41627 304.366 1.41627 304.366C1.41627 304.366 1.41627 304.366 1.41626 304.366C1.41626 304.366 1.41626 304.365 1.41626 304.365C1.41626 304.365 1.41626 304.365 1.41626 304.365C1.41626 304.365 1.41626 304.365 1.41626 304.365C1.41626 304.365 1.41626 304.365 1.41626 304.365C1.41626 304.365 1.41626 304.365 1.41626 304.365C1.41626 304.365 1.41626 304.364 1.41626 304.364C1.41626 304.364 1.41626 304.364 1.41626 304.364C1.41626 304.364 1.41625 304.364 1.41625 304.364C1.41625 304.364 1.41625 304.364 1.41625 304.364C1.41625 304.364 1.41625 304.364 1.41625 304.364C1.41625 304.364 1.41625 304.364 1.41625 304.363C1.41625 304.363 1.41625 304.363 1.41625 304.363C1.41625 304.363 1.41625 304.363 1.41625 304.363C1.41625 304.363 1.41625 304.363 1.41625 304.363C1.41625 304.363 1.41625 304.363 1.41625 304.363C1.41624 304.363 1.41624 304.363 1.41624 304.362C1.41624 304.362 1.41624 304.362 1.41624 304.362C1.41624 304.362 1.41624 304.362 1.41624 304.362C1.41624 304.362 1.41624 304.362 1.41624 304.362C1.41624 304.362 1.41624 304.362 1.41624 304.362C1.41624 304.362 1.41624 304.362 1.41624 304.361C1.41624 304.361 1.41624 304.361 1.41624 304.361C1.41624 304.361 1.41624 304.361 1.41623 304.361C1.41623 304.361 1.41623 304.361 1.41623 304.361C1.41623 304.361 1.41623 304.361 1.41623 304.361C1.41623 304.361 1.41623 304.361 1.41623 304.361C1.41623 304.36 1.41623 304.36 1.41623 304.36C1.41623 304.36 1.41623 304.36 1.41623 304.36C1.41623 304.36 1.41623 304.36 1.41623 304.36C1.41623 304.36 1.41623 304.36 1.41623 304.36C1.41623 304.36 1.41622 304.36 1.41622 304.36C1.41622 304.359 1.41622 304.359 1.41622 304.359C1.41622 304.359 1.41622 304.359 1.41622 304.359C1.41622 304.359 1.41622 304.359 1.41622 304.359C1.41622 304.359 1.41622 304.359 1.41622 304.359C1.41622 304.359 1.41622 304.359 1.41622 304.359C1.41622 304.358 1.41622 304.358 1.41622 304.358C1.41622 304.358 1.41622 304.358 1.41622 304.358C1.41621 304.358 1.41621 304.358 1.41621 304.358C1.41621 304.358 1.41621 304.358 1.41621 304.358C1.41621 304.358 1.41621 304.358 1.41621 304.358C1.41621 304.358 1.41621 304.357 1.41621 304.357C1.41621 304.357 1.41621 304.357 1.41621 304.357C1.41621 304.357 1.41621 304.357 1.41621 304.357C1.41621 304.357 1.41621 304.357 1.41621 304.357C1.41621 304.357 1.41621 304.357 1.4162 304.357C1.4162 304.357 1.4162 304.356 1.4162 304.356C1.4162 304.356 1.4162 304.356 1.4162 304.356C1.4162 304.356 1.4162 304.356 1.4162 304.356C1.4162 304.356 1.4162 304.356 1.4162 304.356C1.4162 304.356 1.4162 304.356 1.4162 304.356C1.4162 304.356 1.4162 304.355 1.4162 304.355C1.4162 304.355 1.4162 304.355 1.4162 304.355C1.4162 304.355 1.41619 304.355 1.41619 304.355C1.41619 304.355 1.41619 304.355 1.41619 304.355C1.41619 304.355 1.41619 304.355 1.41619 304.355C1.41619 304.355 1.41619 304.355 1.41619 304.354C1.41619 304.354 1.41619 304.354 1.41619 304.354C1.41619 304.354 1.41619 304.354 1.41619 304.354C1.41619 304.354 1.41619 304.354 1.41619 304.354C1.41619 304.354 1.41619 304.354 1.41619 304.354C1.41618 304.354 1.41618 304.354 1.41618 304.353C1.41618 304.353 1.41618 304.353 1.41618 304.353C1.41618 304.353 1.41618 304.353 1.41618 304.353C1.41618 304.353 1.41618 304.353 1.41618 304.353C1.41618 304.353 1.41618 304.353 1.41618 304.353C1.41618 304.353 1.41618 304.353 1.41618 304.352C1.41618 304.352 1.41618 304.352 1.41618 304.352C1.41618 304.352 1.41618 304.352 1.41617 304.352C1.41617 304.352 1.41617 304.352 1.41617 304.352C1.41617 304.352 1.41617 304.352 1.41617 304.352C1.41617 304.352 1.41617 304.352 1.41617 304.352C1.41617 304.351 1.41617 304.351 1.41617 304.351C1.41617 304.351 1.41617 304.351 1.41617 304.351C1.41617 304.351 1.41617 304.351 1.41617 304.351C1.41617 304.351 1.41617 304.351 1.41617 304.351C1.41617 304.351 1.41616 304.351 1.41616 304.351C1.41616 304.35 1.41616 304.35 1.41616 304.35C1.41616 304.35 1.41616 304.35 1.41616 304.35C1.41616 304.35 1.41616 304.35 1.41616 304.35C1.41616 304.35 1.41616 304.35 1.41616 304.35C1.41616 304.35 1.41616 304.35 1.41616 304.35C1.41616 304.349 1.41616 304.349 1.41616 304.349C1.41616 304.349 1.41616 304.349 1.41616 304.349C1.41615 304.349 1.41615 304.349 1.41615 304.349C1.41615 304.349 1.41615 304.349 1.41615 304.349C1.41615 304.349 1.41615 304.349 1.41615 304.349C1.41615 304.349 1.41615 304.348 1.41615 304.348C1.41615 304.348 1.41615 304.348 1.41615 304.348C1.41615 304.348 1.41615 304.348 1.41615 304.348C1.41615 304.348 1.41615 304.348 1.41615 304.348C1.41615 304.348 1.41615 304.348 1.41614 304.348C1.41614 304.348 1.41614 304.347 1.41614 304.347C1.41614 304.347 1.41614 304.347 1.41614 304.347C1.41614 304.347 1.41614 304.347 1.41614 304.347C1.41614 304.347 1.41614 304.347 1.41614 304.347C1.41614 304.347 1.41614 304.347 1.41614 304.347C1.41614 304.347 1.41614 304.346 1.41614 304.346C1.41614 304.346 1.41614 304.346 1.41614 304.346C1.41614 304.346 1.41613 304.346 1.41613 304.346C1.41613 304.346 1.41613 304.346 1.41613 304.346C1.41613 304.346 1.41613 304.346 1.41613 304.346C1.41613 304.346 1.41613 304.345 1.41613 304.345C1.41613 304.345 1.41613 304.345 1.41613 304.345C1.41613 304.345 1.41613 304.345 1.41613 304.345C1.41613 304.345 1.41613 304.345 1.41613 304.345C1.41613 304.345 1.41613 304.345 1.41613 304.345C1.41612 304.345 1.41612 304.345 1.41612 304.344C1.41612 304.344 1.41612 304.344 1.41612 304.344C1.41612 304.344 1.41612 304.344 1.41612 304.344C1.41612 304.344 1.41612 304.344 1.41612 304.344C1.41612 304.344 1.41612 304.344 1.41612 304.344C1.41612 304.344 1.41612 304.344 1.41612 304.343C1.41612 304.343 1.41612 304.343 1.41612 304.343C1.41612 304.343 1.41612 304.343 1.41611 304.343C1.41611 304.343 1.41611 304.343 1.41611 304.343C1.41611 304.343 1.41611 304.343 1.41611 304.343C1.41611 304.343 1.41611 304.343 1.41611 304.342C1.41611 304.342 1.41611 304.342 1.41611 304.342C1.41611 304.342 1.41611 304.342 1.41611 304.342C1.41611 304.342 1.41611 304.342 1.41611 304.342C1.41611 304.342 1.41611 304.342 1.41611 304.342C1.41611 304.342 1.4161 304.342 1.4161 304.342C1.4161 304.341 1.4161 304.341 1.4161 304.341C1.4161 304.341 1.4161 304.341 1.4161 304.341C1.4161 304.341 1.4161 304.341 1.4161 304.341C1.4161 304.341 1.4161 304.341 1.4161 304.341C1.4161 304.341 1.4161 304.341 1.4161 304.341C1.4161 304.34 1.4161 304.34 1.4161 304.34C1.4161 304.34 1.4161 304.34 1.4161 304.34C1.41609 304.34 1.41609 304.34 1.41609 304.34C1.41609 304.34 1.41609 304.34 1.41609 304.34C1.41609 304.34 1.41609 304.34 1.41609 304.34C1.41609 304.339 1.41609 304.339 1.41609 304.339C1.41609 304.339 1.41609 304.339 1.41609 304.339C1.41609 304.339 1.41609 304.339 1.41609 304.339C1.41609 304.339 1.41609 304.339 1.41609 304.339C1.41609 304.339 1.41609 304.339 1.41608 304.339C1.41608 304.339 1.41608 304.338 1.41608 304.338C1.41608 304.338 1.41608 304.338 1.41608 304.338C1.41608 304.338 1.41608 304.338 1.41608 304.338C1.41608 304.338 1.41608 304.338 1.41608 304.338C1.41608 304.338 1.41608 304.338 1.41608 304.338C1.41608 304.338 1.41608 304.337 1.41608 304.337C1.41608 304.337 1.41608 304.337 1.41608 304.337C1.41607 304.337 1.41607 304.337 1.41607 304.337C1.41607 304.337 1.41607 304.337 1.41607 304.337C1.41607 304.337 1.41607 304.337 1.41607 304.337C1.41607 304.337 1.41607 304.336 1.41607 304.336C1.41607 304.336 1.41607 304.336 1.41607 304.336C1.41607 304.336 1.41607 304.336 1.41607 304.336C1.41607 304.336 1.41607 304.336 1.41607 304.336C1.41607 304.336 1.41607 304.336 1.41606 304.336C1.41606 304.336 1.41606 304.336 1.41606 304.335C1.41606 304.335 1.41606 304.335 1.41606 304.335C1.41606 304.335 1.41606 304.335 1.41606 304.335C1.41606 304.335 1.41606 304.335 1.41606 304.335C1.41606 304.335 1.41606 304.335 1.41606 304.335C1.41606 304.335 1.41606 304.335 1.41606 304.334C1.41606 304.334 1.41606 304.334 1.41606 304.334C1.41606 304.334 1.41605 304.334 1.41605 304.334C1.41605 304.334 1.41605 304.334 1.41605 304.334C1.41605 304.334 1.41605 304.334 1.41605 304.334C1.41605 304.334 1.41605 304.334 1.41605 304.333C1.41605 304.333 1.41605 304.333 1.41605 304.333C1.41605 304.333 1.41605 304.333 1.41605 304.333C1.41605 304.333 1.41605 304.333 1.41605 304.333C1.41605 304.333 1.41605 304.333 1.41605 304.333C1.41604 304.333 1.41604 304.333 1.41604 304.333C1.41604 304.332 1.41604 304.332 1.41604 304.332C1.41604 304.332 1.41604 304.332 1.41604 304.332C1.41604 304.332 1.41604 304.332 1.41604 304.332C1.41604 304.332 1.41604 304.332 1.41604 304.332C1.41604 304.332 1.41604 304.332 1.41604 304.332C1.41604 304.331 1.41604 304.331 1.41604 304.331C1.41604 304.331 1.41604 304.331 1.41603 304.331C1.41603 304.331 1.41603 304.331 1.41603 304.331C1.41603 304.331 1.41603 304.331 1.41603 304.331C1.41603 304.331 1.41603 304.331 1.41603 304.331C1.41603 304.33 1.41603 304.33 1.41603 304.33C1.41603 304.33 1.41603 304.33 1.41603 304.33C1.41603 304.33 1.41603 304.33 1.41603 304.33C1.41603 304.33 1.41603 304.33 1.41603 304.33C1.41603 304.33 1.41602 304.33 1.41602 304.33C1.41602 304.33 1.41602 304.329 1.41602 304.329C1.41602 304.329 1.41602 304.329 1.41602 304.329C1.41602 304.329 1.41602 304.329 1.41602 304.329C1.41602 304.329 1.41602 304.329 1.41602 304.329C1.41602 304.329 1.41602 304.329 1.41602 304.329C1.41602 304.329 1.41602 304.328 1.41602 304.328C1.41602 304.328 1.41602 304.328 1.41602 304.328C1.41601 304.328 1.41601 304.328 1.41601 304.328C1.41601 304.328 1.41601 304.328 1.41601 304.328C1.41601 304.328 1.41601 304.328 1.41601 304.328C1.41601 304.328 1.41601 304.327 1.41601 304.327C1.41601 304.327 1.41601 304.327 1.41601 304.327C1.41601 304.327 1.41601 304.327 1.41601 304.327C1.41601 304.327 1.41601 304.327 1.41601 304.327C1.41601 304.327 1.41601 304.327 1.416 304.327C1.416 304.327 1.416 304.327 1.416 304.326C1.416 304.326 1.416 304.326 1.416 304.326C1.416 304.326 1.416 304.326 1.416 304.326C1.416 304.326 1.416 304.326 1.416 304.326C1.416 304.326 1.416 304.326 1.416 304.326C1.416 304.326 1.416 304.326 1.416 304.325C1.416 304.325 1.416 304.325 1.416 304.325C1.416 304.325 1.41599 304.325 1.41599 304.325C1.41599 304.325 1.41599 304.325 1.41599 304.325C1.41599 304.325 1.41599 304.325 1.41599 304.325C1.41599 304.325 1.41599 304.325 1.41599 304.324C1.41599 304.324 1.41599 304.324 1.41599 304.324C1.41599 304.324 1.41599 304.324 1.41599 304.324C1.41599 304.324 1.41599 304.324 1.41599 304.324C1.41599 304.324 1.41599 304.324 1.41599 304.324C1.41598 304.324 1.41598 304.324 1.41598 304.324C1.41598 304.323 1.41598 304.323 1.41598 304.323C1.41598 304.323 1.41598 304.323 1.41598 304.323C1.41598 304.323 1.41598 304.323 1.41598 304.323C1.41598 304.323 1.41598 304.323 1.41598 304.323C1.41598 304.323 1.41598 304.323 1.41598 304.323C1.41598 304.322 1.41598 304.322 1.41598 304.322C1.41598 304.322 1.41598 304.322 1.41597 304.322C1.41597 304.322 1.41597 304.322 1.41597 304.322C1.41597 304.322 1.41597 304.322 1.41597 304.322C1.41597 304.322 1.41597 304.322 1.41597 304.322C1.41597 304.321 1.41597 304.321 1.41597 304.321C1.41597 304.321 1.41597 304.321 1.41597 304.321C1.41597 304.321 1.41597 304.321 1.41597 304.321C1.41597 304.321 1.41597 304.321 1.41597 304.321C1.41597 304.321 1.41596 304.321 1.41596 304.321C1.41596 304.321 1.41596 304.32 1.41596 304.32C1.41596 304.32 1.41596 304.32 1.41596 304.32C1.41596 304.32 1.41596 304.32 1.41596 304.32C1.41596 304.32 1.41596 304.32 1.41596 304.32C1.41596 304.32 1.41596 304.32 1.41596 304.32C1.41596 304.32 1.41596 304.319 1.41596 304.319C1.41596 304.319 1.41596 304.319 1.41596 304.319C1.41595 304.319 1.41595 304.319 1.41595 304.319C1.41595 304.319 1.41595 304.319 1.41595 304.319C1.41595 304.319 1.41595 304.319 1.41595 304.319C1.41595 304.319 1.41595 304.318 1.41595 304.318C1.41595 304.318 1.41595 304.318 1.41595 304.318C1.41595 304.318 1.41595 304.318 1.41595 304.318C1.41595 304.318 1.41595 304.318 1.41595 304.318C1.41595 304.318 1.41595 304.318 1.41594 304.318C1.41594 304.318 1.41594 304.317 1.41594 304.317C1.41594 304.317 1.41594 304.317 1.41594 304.317C1.41594 304.317 1.41594 304.317 1.41594 304.317C1.41594 304.317 1.41594 304.317 1.41594 304.317C1.41594 304.317 1.41594 304.317 1.41594 304.317C1.41594 304.317 1.41594 304.317 1.41594 304.316C1.41594 304.316 1.41594 304.316 1.41594 304.316C1.41594 304.316 1.41593 304.316 1.41593 304.316C1.41593 304.316 1.41593 304.316 1.41593 304.316C1.41593 304.316 1.41593 304.316 1.41593 304.316C1.41593 304.316 1.41593 304.316 1.41593 304.315C1.41593 304.315 1.41593 304.315 1.41593 304.315C1.41593 304.315 1.41593 304.315 1.41593 304.315C1.41593 304.315 1.41593 304.315 1.41593 304.315C1.41593 304.315 1.41593 304.315 1.41593 304.315C1.41592 304.315 1.41592 304.315 1.41592 304.314C1.41592 304.314 1.41592 304.314 1.41592 304.314C1.41592 304.314 1.41592 304.314 1.41592 304.314C1.41592 304.314 1.41592 304.314 1.41592 304.314C1.41592 304.314 1.41592 304.314 1.41592 304.314C1.41592 304.314 1.41592 304.314 1.41592 304.314C1.41592 304.313 1.41592 304.313 1.41592 304.313C1.41592 304.313 1.41592 304.313 1.41591 304.313C1.41591 304.313 1.41591 304.313 1.41591 304.313C1.41591 304.313 1.41591 304.313 1.41591 304.313C1.41591 304.313 1.41591 304.313 1.41591 304.313C1.41591 304.312 1.41591 304.312 1.41591 304.312C1.41591 304.312 1.41591 304.312 1.41591 304.312C1.41591 304.312 1.41591 304.312 1.41591 304.312C1.41591 304.312 1.41591 304.312 1.41591 304.312C1.41591 304.312 1.4159 304.312 1.4159 304.312C1.4159 304.311 1.4159 304.311 1.4159 304.311C1.4159 304.311 1.4159 304.311 1.4159 304.311C1.4159 304.311 1.4159 304.311 1.4159 304.311C1.4159 304.311 1.4159 304.311 1.4159 304.311C1.4159 304.311 1.4159 304.311 1.4159 304.311C1.4159 304.311 1.4159 304.31 1.4159 304.31C1.4159 304.31 1.4159 304.31 1.4159 304.31C1.41589 304.31 1.41589 304.31 1.41589 304.31C1.41589 304.31 1.41589 304.31 1.41589 304.31C1.41589 304.31 1.41589 304.31 1.41589 304.31C1.41589 304.31 1.41589 304.309 1.41589 304.309C1.41589 304.309 1.41589 304.309 1.41589 304.309C1.41589 304.309 1.41589 304.309 1.41589 304.309C1.41589 304.309 1.41589 304.309 1.41589 304.309C1.41589 304.309 1.41589 304.309 1.41588 304.309C1.41588 304.309 1.41588 304.308 1.41588 304.308C1.41588 304.308 1.41588 304.308 1.41588 304.308C1.41588 304.308 1.41588 304.308 1.41588 304.308C1.41588 304.308 1.41588 304.308 1.41588 304.308C1.41588 304.308 1.41588 304.308 1.41588 304.308C1.41588 304.308 1.41588 304.308 1.41588 304.307C1.41588 304.307 1.41588 304.307 1.41588 304.307C1.41588 304.307 1.41587 304.307 1.41587 304.307C1.41587 304.307 1.41587 304.307 1.41587 304.307C1.41587 304.307 1.41587 304.307 1.41587 304.307C1.41587 304.307 1.41587 304.307 1.41587 304.306C1.41587 304.306 1.41587 304.306 1.41587 304.306C1.41587 304.306 1.41587 304.306 1.41587 304.306C1.41587 304.306 1.41587 304.306 1.41587 304.306C1.41587 304.306 1.41587 304.306 1.41587 304.306C1.41586 304.306 1.41586 304.306 1.41586 304.305C1.41586 304.305 1.41586 304.305 1.41586 304.305C1.41586 304.305 1.41586 304.305 1.41586 304.305C1.41586 304.305 1.41586 304.305 1.41586 304.305C1.41586 304.305 1.41586 304.305 1.41586 304.305C1.41586 304.305 1.41586 304.305 1.41586 304.305C1.41586 304.304 1.41586 304.304 1.41586 304.304C1.41586 304.304 1.41586 304.304 1.41585 304.304C1.41585 304.304 1.41585 304.304 1.41585 304.304C1.41585 304.304 1.41585 304.304 1.41585 304.304C1.41585 304.304 1.41585 304.304 1.41585 304.304C1.41585 304.303 1.41585 304.303 1.41585 304.303C1.41585 304.303 1.41585 304.303 1.41585 304.303C1.41585 304.303 1.41585 304.303 1.41585 304.303C1.41585 304.303 1.41585 304.303 1.41585 304.303C1.41585 304.303 1.41584 304.303 1.41584 304.303C1.41584 304.302 1.41584 304.302 1.41584 304.302C1.41584 304.302 1.41584 304.302 1.41584 304.302C1.41584 304.302 1.41584 304.302 1.41584 304.302C1.41584 304.302 1.41584 304.302 1.41584 304.302C1.41584 304.302 1.41584 304.302 1.41584 304.302C1.41584 304.302 1.41584 304.301 1.41584 304.301C1.41584 304.301 1.41584 304.301 1.41584 304.301C1.41583 304.301 1.41583 304.301 1.41583 304.301C1.41583 304.301 1.41583 304.301 1.41583 304.301C1.41583 304.301 1.41583 304.301 1.41583 304.301C1.41583 304.301 1.41583 304.3 1.41583 304.3C1.41583 304.3 1.41583 304.3 1.41583 304.3C1.41583 304.3 1.41583 304.3 1.41583 304.3C1.41583 304.3 1.41583 304.3 1.41583 304.3C1.41583 304.3 1.41583 304.3 1.41582 304.3C1.41582 304.3 1.41582 304.299 1.41582 304.299C1.41582 304.299 1.41582 304.299 1.41582 304.299C1.41582 304.299 1.41582 304.299 1.41582 304.299C1.41582 304.299 1.41582 304.299 1.41582 304.299C1.41582 304.299 1.41582 304.299 1.41582 304.299C1.41582 304.299 1.41582 304.299 1.41582 304.298C1.41582 304.298 1.41582 304.298 1.41582 304.298C1.41582 304.298 1.41581 304.298 1.41581 304.298C1.41581 304.298 1.41581 304.298 1.41581 304.298C1.41581 304.298 1.41581 304.298 1.41581 304.298C1.41581 304.298 1.41581 304.298 1.41581 304.297C1.41581 304.297 1.41581 304.297 1.41581 304.297C1.41581 304.297 1.41581 304.297 1.41581 304.297L0.515828 304.303ZM0.569036 312.323L-0.330945 312.328C-0.321286 313.803 -0.313861 314.96 -0.310188 315.584C-0.309269 315.74 -0.308587 315.862 -0.308163 315.947C-0.307703 316.04 -0.307641 316.077 -0.307623 316.075C-0.307608 316.074 -0.307577 316.072 -0.307521 316.069C-0.307477 316.067 -0.307358 316.061 -0.307086 316.054C-0.30694 316.051 -0.306509 316.041 -0.306209 316.036C-0.305659 316.027 -0.303613 316.002 -0.301911 315.986C-0.296441 315.946 -0.21362 315.688 -0.0846948 315.495C0.736622 315.2 1.45599 315.835 1.47891 315.934C1.48321 315.961 1.48799 316.001 1.48913 316.014C1.48971 316.021 1.49053 316.033 1.4908 316.037C1.4913 316.046 1.49154 316.053 1.49163 316.055C1.49183 316.061 1.49192 316.065 1.49193 316.065C1.49199 316.068 1.49195 316.067 1.49185 316.058C1.49167 316.044 1.4914 316.019 1.49105 315.982C1.49035 315.908 1.48935 315.79 1.48801 315.625L0.588043 315.632L-0.311928 315.64C-0.310589 315.805 -0.309577 315.923 -0.308869 315.999C-0.308517 316.036 -0.308231 316.064 -0.30801 316.081C-0.307916 316.089 -0.307785 316.098 -0.3076 316.107C-0.307554 316.109 -0.307434 316.114 -0.307208 316.12C-0.30711 316.123 -0.306848 316.13 -0.306341 316.139C-0.306058 316.144 -0.305234 316.156 -0.304654 316.163C-0.303508 316.176 -0.298715 316.216 -0.294413 316.243C-0.271492 316.341 0.447887 316.977 1.26921 316.681C1.39814 316.489 1.48097 316.23 1.48644 316.191C1.48815 316.174 1.4902 316.149 1.49075 316.14C1.49106 316.135 1.49149 316.126 1.49165 316.122C1.49211 316.109 1.49222 316.099 1.49223 316.098C1.4926 316.069 1.49157 315.876 1.48978 315.573C1.4861 314.949 1.47867 313.791 1.46902 312.317L0.569036 312.323ZM0.569036 312.323L1.46902 312.318C1.45614 309.9 1.44544 307.482 1.43685 305.065L0.536858 305.068L-0.363136 305.071C-0.354546 307.49 -0.34384 309.909 -0.330951 312.327L0.569036 312.323ZM0.536858 305.068L1.43685 305.065C1.42691 302.267 1.41981 299.468 1.41543 296.67L0.515427 296.672L-0.384572 296.673C-0.380188 299.472 -0.373078 302.272 -0.363136 305.071L0.536858 305.068ZM0.515427 296.672L1.41542 296.669C1.38354 287.008 1.25166 277.353 1.1162 267.699L0.216292 267.712L-0.683619 267.725C-0.548148 277.379 -0.416409 287.025 -0.384568 296.675L0.515427 296.672ZM0.216292 267.712L1.11628 267.708C1.09091 261.568 1.07151 255.428 1.05869 249.287L0.158691 249.289L-0.741307 249.291C-0.728479 255.433 -0.709081 261.574 -0.6837 267.716L0.216292 267.712ZM0.158691 249.289L1.05854 249.273L0.899851 240.54L0 240.556L-0.899851 240.572L-0.741161 249.306L0.158691 249.289ZM0 240.556L0.899984 240.561L0.949363 232.35L0.0493789 232.345L-0.850605 232.339L-0.899984 240.55L0 240.556ZM0.0493789 232.345L0.949364 232.339L0.908167 225.162L0.00818231 225.167L-0.891803 225.172L-0.850606 232.35L0.0493789 232.345ZM0.00818231 225.167L0.884679 225.371C3.29829 215.018 7.779 209.98 15.673 202.675L15.0618 202.015L14.4505 201.354C6.46031 208.748 1.66683 214.088 -0.868315 224.963L0.00818231 225.167ZM15.0618 202.015L15.246 202.896C22.6374 201.349 27.6783 200.857 35.0139 201.088L35.0423 200.189L35.0707 199.289C27.5803 199.053 22.3963 199.561 14.8775 201.134L15.0618 202.015ZM35.0423 200.189L35.0434 201.089L40.9925 201.082L40.9915 200.182L40.9904 199.282L35.0412 199.289L35.0423 200.189ZM40.9915 200.182L40.9899 201.082C47.4389 201.093 53.8818 201.218 60.3399 201.344L60.3575 200.444L60.3751 199.544C53.9193 199.418 47.4606 199.293 40.993 199.282L40.9915 200.182ZM60.3575 200.444L60.3515 201.344C64.8415 201.374 69.3316 201.397 73.8217 201.413L73.8249 200.513L73.8281 199.613C69.3399 199.597 64.8517 199.574 60.3635 199.544L60.3575 200.444ZM73.8249 200.513L73.8202 201.413C85.6075 201.474 97.3925 201.632 109.182 201.81L109.196 200.91L109.21 200.01C97.4183 199.832 85.6261 199.674 73.8296 199.613L73.8249 200.513ZM109.196 200.91L109.184 201.81C121.228 201.975 133.273 202.048 145.314 202.129L145.32 201.229L145.326 200.329C133.283 200.248 121.245 200.175 109.208 200.01L109.196 200.91ZM145.32 201.229L145.313 202.129C168.92 202.302 192.524 202.576 216.13 202.914L216.143 202.015L216.156 201.115C192.547 200.776 168.938 200.502 145.326 200.329L145.32 201.229ZM216.143 202.015L217.043 202.007L216.989 195.483L216.089 195.49L215.189 195.498L215.243 202.022L216.143 202.015ZM216.089 195.49L216.989 195.483C216.828 175.174 216.705 154.865 216.627 134.555L215.727 134.559L214.827 134.562C214.905 154.874 215.028 175.186 215.189 195.497L216.089 195.49ZM215.727 134.559L216.627 134.555C216.585 124.113 216.528 113.67 216.436 103.227L215.536 103.235L214.637 103.243C214.728 113.682 214.785 124.121 214.827 134.562L215.727 134.559ZM215.536 103.235L216.436 103.227C216.349 93.1488 216.301 83.071 216.28 72.9919L215.38 72.9937L214.48 72.9956C214.501 83.0779 214.549 93.1598 214.637 103.242L215.536 103.235ZM215.38 72.9937L216.28 72.9903C216.265 69.1461 216.236 65.302 216.193 61.458L215.293 61.4682L214.393 61.4784C214.436 65.3178 214.465 69.1575 214.48 72.9972L215.38 72.9937ZM215.293 61.4682L216.193 61.4584C216.134 56.0747 216.131 50.6895 216.13 45.2996L215.23 45.2997L214.33 45.2999C214.331 50.689 214.334 56.0833 214.393 61.478L215.293 61.4682ZM215.23 45.2997L216.13 45.2945L216.076 36.0053L215.176 36.0106L214.276 36.0158L214.33 45.305L215.23 45.2997ZM215.176 36.0106L216.07 36.1157C216.802 29.8908 218.378 25.1761 220.904 21.0082C223.437 16.8274 226.956 13.1485 231.651 9.02746L231.057 8.35109L230.463 7.67473C225.716 11.8421 222.038 15.6633 219.364 20.0752C216.682 24.5002 215.039 29.471 214.282 35.9055L215.176 36.0106ZM231.057 8.35109L231.582 9.08224C235.859 6.01234 239.002 4.1466 242.331 3.02191C245.655 1.89856 249.227 1.49324 254.391 1.44787L254.383 0.547905L254.375 -0.35206C249.134 -0.306008 245.342 0.104254 241.754 1.31664C238.171 2.52768 234.854 4.51782 230.532 7.61994L231.057 8.35109ZM0.588043 315.632L1.48802 315.627L1.41648 304.398L0.516496 304.403L-0.383485 304.409L-0.311939 315.638L0.588043 315.632ZM0.509969 303.384L1.40995 303.378L1.34572 293.302L0.445742 293.308L-0.45424 293.313L-0.390012 303.39L0.509969 303.384ZM213.212 650.318L212.312 650.317L212.311 653.378L213.211 653.379L214.111 653.379L214.112 650.318L213.212 650.318ZM213.211 653.379H212.311V653.415H213.211H214.111V653.379H213.211ZM213.211 653.415L212.311 653.414C212.308 663.254 212.305 673.093 212.29 682.932L213.19 682.933L214.09 682.934C214.105 673.094 214.108 663.254 214.111 653.415L213.211 653.415ZM461.106 342.325L461.105 343.225L463.748 343.229L463.749 342.329L463.75 341.429L461.107 341.425L461.106 342.325ZM463.749 342.329L463.748 343.229C474.459 343.241 485.168 343.253 495.878 343.279L495.88 342.379L495.882 341.479C485.171 341.453 474.461 341.441 463.75 341.429L463.749 342.329ZM567.284 342.499L567.283 343.399C567.893 343.4 568.492 343.402 569.081 343.404L569.084 342.504L569.087 341.604C568.498 341.602 567.897 341.6 567.286 341.599L567.284 342.499ZM569.084 342.504L569.082 343.404L569.175 343.404L569.178 342.504L569.18 341.604L569.087 341.604L569.084 342.504ZM569.178 342.504L569.175 343.404C575.737 343.425 581.168 343.448 586.289 342.272C591.452 341.088 596.263 338.698 601.671 333.975L601.079 333.297L600.487 332.619C595.274 337.172 590.725 339.408 585.886 340.518C581.006 341.638 575.796 341.626 569.18 341.604L569.178 342.504ZM608.954 300.496L608.054 300.497L608.07 311.821L608.97 311.82L609.87 311.819L609.854 300.495L608.954 300.496ZM393.226 138.615L394.126 138.617L394.129 136.261L393.229 136.26L392.329 136.258L392.326 138.614L393.226 138.615ZM393.229 136.26L394.129 136.261C394.142 126.733 394.154 117.206 394.179 107.679L393.279 107.676L392.379 107.674C392.354 117.202 392.342 126.731 392.329 136.258L393.229 136.26Z" fill="white" fill-opacity="0.25" mask="url(#path-1-inside-1_6493_2946)"/>
</svg>
