<svg width="609" height="793" viewBox="0 0 609 793" fill="none" xmlns="http://www.w3.org/2000/svg">
<path d="M254.383 0.547905L261.544 0.469866L269.304 0.435346L277.281 0.389047C282.861 0.363694 288.441 0.346193 294.022 0.335876C302.537 0.309918 311.05 0.226806 319.564 0.142171C324.986 0.124661 330.407 0.11059 335.829 0.100288L343.523 0C357.614 0.0472907 367.546 1.04907 379.69 9.02121C390.762 21.2874 393.432 27.7949 393.4 44.1408L393.399 54.5473C393.385 58.3097 393.371 62.0721 393.357 65.8345C393.352 69.673 393.348 73.5115 393.345 77.35C393.335 87.4589 393.309 97.5676 393.279 107.676C393.254 117.204 393.242 126.732 393.229 136.26L393.226 138.615C393.197 158.855 393.152 179.095 393.095 199.334L400.417 199.262C423.217 199.047 446.017 198.884 468.818 198.779C480.539 198.723 492.26 198.647 503.981 198.525C515.298 198.409 526.614 198.345 537.931 198.317C542.243 198.297 546.556 198.258 550.867 198.2C556.92 198.122 562.969 198.112 569.022 198.117L579.45 198.045C590.492 199.565 596.288 203.115 604.901 210.056C608.208 216.667 607.994 221.17 608.099 228.565L608.23 236.863C608.349 249.405 608.459 261.947 608.521 274.489C608.565 281.103 608.638 287.717 608.741 294.331C608.817 299.249 608.869 304.166 608.907 309.083C608.926 307.546 608.936 305.86 608.943 304.002C608.936 301.276 608.936 299.641 608.954 300.495V300.496L608.97 311.82C608.97 311.869 608.97 311.918 608.97 311.968C608.993 318.227 609.016 324.381 608.986 322.929C608.967 318.313 608.943 313.698 608.907 309.083C608.728 323.627 607.764 324.846 601.079 333.297C590.459 342.573 582.356 342.547 569.178 342.504L569.084 342.504C568.495 342.502 567.895 342.5 567.284 342.499L561.575 342.5C555.352 342.498 549.129 342.477 542.905 342.456C538.589 342.451 534.272 342.448 529.956 342.445C518.597 342.435 507.239 342.408 495.88 342.379C485.17 342.353 474.46 342.341 463.749 342.329L461.106 342.325C438.364 342.297 415.622 342.251 392.88 342.195L392.902 348.22C393.08 396.609 393.428 476.369 393.512 524.759C393.553 548.16 393.61 571.561 393.702 594.962C393.782 615.359 393.834 635.756 393.852 656.154C393.862 666.953 393.887 677.752 393.946 688.551C394 698.72 394.017 708.889 394.005 719.058C394.007 722.785 394.023 726.513 394.054 730.241C394.094 735.341 394.079 740.442 394.062 745.542L394.085 754.183C392.489 767.163 387.84 775.799 378.182 784.513C369.391 790.597 364.906 792.063 354.363 792.191L346.877 792.295L338.761 792.355L330.424 792.421C324.591 792.458 318.758 792.487 312.926 792.508C304.022 792.554 295.121 792.671 286.218 792.79C280.552 792.817 274.886 792.84 269.22 792.858L261.17 793C245.251 792.95 236.364 791.491 224.187 780.995C214.503 769.978 213.127 760.903 213.14 746.509L213.129 736.566C213.138 732.924 213.148 729.282 213.158 725.64C213.159 721.81 213.158 717.979 213.157 714.149C213.156 703.744 213.172 693.338 213.19 682.933C213.205 673.094 213.208 663.254 213.211 653.415V653.379L213.212 650.318C213.22 629.727 213.242 609.137 213.269 588.547C213.299 565.107 213.314 541.667 213.327 518.227C213.355 470.006 213.187 390.415 213.247 342.195L206.128 342.267C183.959 342.482 161.791 342.645 139.622 342.75C128.225 342.806 116.829 342.882 105.432 343.003C94.4282 343.12 83.425 343.184 72.4203 343.212C68.2279 343.232 64.0356 343.27 59.8436 343.328C53.958 343.406 48.0758 343.417 42.1898 343.412L32.0506 343.484C21.0747 341.939 15.3704 338.386 6.80285 331.473C1.01461 322.792 0.740443 320.264 0.619201 310.225L0.536858 305.068C0.545447 307.486 0.55615 309.904 0.569036 312.323C0.588352 315.272 0.598746 316.952 0.588043 315.632L0.516496 304.403C0.516273 304.37 0.516051 304.336 0.515828 304.303C0.513718 303.987 0.511609 303.67 0.509509 303.355L0.489311 302.09L0.453532 294.878C0.4421 293.097 0.437624 292.307 0.445742 293.308L0.509969 303.384L0.536858 305.068C0.526918 302.269 0.51981 299.47 0.515427 296.672C0.483568 287.017 0.351757 277.366 0.216292 267.712C0.190914 261.571 0.171518 255.43 0.158691 249.289L0 240.556L0.0493789 232.345L0.00818231 225.167C2.48256 214.553 7.11965 209.364 15.0618 202.015C22.5169 200.455 27.6293 199.955 35.0423 200.189L40.9915 200.182C47.4498 200.193 53.9005 200.318 60.3575 200.444C64.8466 200.474 69.3357 200.497 73.8249 200.513C85.6168 200.574 97.4054 200.732 109.196 200.91C121.237 201.075 133.278 201.148 145.32 201.229C168.929 201.402 192.536 201.676 216.143 202.015L216.089 195.49C215.928 175.18 215.805 154.87 215.727 134.559C215.685 124.117 215.628 113.676 215.536 103.235C215.449 93.1543 215.401 83.0744 215.38 72.9937C215.365 69.1518 215.336 65.3099 215.293 61.4682C215.234 56.079 215.231 50.6893 215.23 45.2997L215.176 36.0106C216.665 23.3513 221.615 16.6394 231.057 8.35109C239.656 2.17907 243.978 0.639331 254.383 0.547905Z" fill="#D4AF37"/>
</svg>
