<svg width="36" height="29" viewBox="0 0 36 29" fill="none" xmlns="http://www.w3.org/2000/svg">
<path d="M29.8359 5.70452V20.1885C29.8359 21.3405 28.9 22.4205 27.748 22.5645L27.3519 22.6126C24.7359 22.9606 20.7039 24.2925 18.3999 25.5645C18.0879 25.7445 17.5719 25.7445 17.2479 25.5645L17.1999 25.5406C14.8959 24.2806 10.876 22.9606 8.27197 22.6126L7.92393 22.5645C6.77193 22.4205 5.83594 21.3405 5.83594 20.1885V5.69251C5.83594 4.26451 6.99991 3.18452 8.42791 3.30452C10.9479 3.50852 14.7639 4.78055 16.8999 6.11255L17.1999 6.29251C17.5479 6.50851 18.124 6.50851 18.472 6.29251L18.676 6.16053C19.432 5.69253 20.3919 5.22452 21.4359 4.80452V9.70054L23.8359 8.10452L26.2359 9.70054V3.43658C26.5599 3.37658 26.872 3.34053 27.16 3.31653H27.232C28.66 3.19653 29.8359 4.26452 29.8359 5.70452Z" stroke="#C1C1C1" stroke-width="1.8" stroke-linecap="round" stroke-linejoin="round"/>
<path d="M17.8359 6.68799V24.688" stroke="#C1C1C1" stroke-width="1.8" stroke-linecap="round" stroke-linejoin="round"/>
<path d="M26.2375 3.43604V9.7L23.8375 8.10398L21.4375 9.7V4.80398C23.0095 4.17998 24.7615 3.67604 26.2375 3.43604Z" stroke="#C1C1C1" stroke-width="1.8" stroke-linecap="round" stroke-linejoin="round"/>
</svg>
